<?xml version="1.0" encoding="UTF-8"?>
<svg id="Lag_2" data-name="Lag 2" xmlns="http://www.w3.org/2000/svg" viewBox="0 0 1957.93 2909.75">
  <defs>
    <style>
      .cls-1 {
        opacity: .85;
      }

      .cls-2 {
        fill: #fff3de;
      }
    </style>
  </defs>
  <g id="Layer_2" data-name="Layer 2">
    <path class="cls-2" d="M0,11.11L1957.93,0c-263.07,433.38-623.47,1230.2-623.47,1230.2,0,0,7.68,20.7,11.51,17.21,31.2-28.44,79.84-13.48,79.84-13.48,0,0,76.11,49.61-7.84,119-10.66,8.81,17.78,57.11,6.38,89.5-15.86,45.08-97.65,74.16-97.65,74.16,0,0-33.58,5.61,558.6,1369.3L0,2909.75V11.11Z"/>
    <g>
      <g class="cls-1">
        <path d="M1895.05,95.57c-2.37,3.96-4.76,7.95-7.14,11.94,1.3-1.95,2.65-3.83,4.14-5.7,1.72-2.51,2.17-4.09,3-6.24Z"/>
        <path d="M1881.33,118.57c-.43.72-.86,1.45-1.25,2.12-.32.68-.63,1.33-.91,1.91.72-1.34,1.45-2.7,2.16-4.04Z"/>
        <path d="M1869.68,139.79c2.22-3.66,4.2-7.24,6.06-10.73-1.86,2.96-3.88,6.48-6.06,10.73Z"/>
        <path d="M1879.7,123.31c-.99,1.14-1.62,1.63-.57-.61.01-.03.03-.05.05-.09-1.13,2.13-2.26,4.25-3.43,6.45,1.39-2.21,2.74-4.13,3.96-5.75Z"/>
        <path d="M1879.7,123.31c.96-1.1,2.33-2.95,2.86-3.55-.88,1-1.84,2.19-2.86,3.55Z"/>
        <path d="M1882.52,131.97c-1.03,2.22-2.4.77-4.43,5.16-5.16,10.08-9.17,18.92-14.37,28.15-1.98,4.41-7.57,10-9.53,14.42-5.08,10.17-16.78,36.76-8.64,21.77,12.16-22.59,19.87-37.43,30.96-57.59,8.59-16.63,16.84-32.62,26.03-49.44,2.66-4.66,5.35-8.88,8.08-13.13-3.67,5.47-7.36,11.12-11.43,17.4-5.48,8.21-9.36,19.7-16.67,33.25Z"/>
        <path d="M1950.14,9.22c-1.14,2.13-3.44,6.42-3.44,6.42-3.5,4.16-6.71,8.67-9.69,13.41-2.97,4.75-5.8,9.66-8.58,14.61,1.14-1.23,2.31-2.48,3.49-3.74,3.38-5.53,3.33-6.45-.11-1.82,4.03-5.25,7.73-10.5,11.34-15.73,1.8-2.62,3.55-5.26,5.28-7.92,1.75-2.65,3.48-5.31,5.19-8-.87.38-1.29-.09-3.49,2.77Z"/>
        <path d="M1957.62.12c-1.34,2.12-2.68,4.25-3.99,6.34.08-.02.19-.09.29-.13,1.31-2.15,2.61-4.3,3.89-6.4-.06.06-.13.13-.19.2Z"/>
        <path d="M1846.05,185.39c-7.76,14.09-15.29,27.78-22.66,41.17-7.34,13.42-14.52,26.55-21.62,39.52-.75,2.18-1.13,3.79-2.78,6.37-1.39,1.87-2.68,3.82-3.9,5.78-2.08,3.79-4.16,7.57-6.23,11.32-.67,1.34-1.35,2.7-2.03,4.08,0,.02-.04.08-.05.11-.96,2.24-.36,1.74.6.56.97-1.38,1.92-2.61,2.76-3.65-.54.66-1.82,2.49-2.76,3.65-1.19,1.68-2.41,3.59-3.75,5.88-1.74,3.53-3.61,7.2-5.7,10.9,2.02-4.28,3.93-7.88,5.7-10.9,1.09-2.24,2.14-4.4,3.2-6.55.28-.63.56-1.27.85-1.93-4.71,8.66-9.4,17.27-14.09,25.89-1.01,2.02-1.97,3.95-2.76,5.52-3.11,6.4-6.21,12.78-9.09,16.22-.83,1.52-1.68,3.07-2.52,4.63.2-.26.42-.55.63-.82-.42.66-.78,1.22-1.09,1.66-1.77,3.25-5.41,10.4-8.86,17.31-3.41,6.93-6.64,13.61-7.67,15.87,0,0-3.79,8.5-6.16,11.79-2.96,6.4-7.48,14.31-11.71,20.39,3.5-8.45,7.75-14.89,11.71-20.39,1.43-3.07,2.48-5.78,3-7.8,1.04-1.31,3.17-3.99,3.17-3.99,2.06-4.54,3.96-9.15,5.88-13.59-6.89,12.83-13.85,25.79-20.97,39.04-45.79,85.21-86.04,164.84-131.42,254.35-24.6,48.5-48.24,95.09-71.42,140.79-5.75,11.41-11.38,22.72-16.91,33.97-5.53,11.24-11,22.41-16.27,33.59-5.29,11.18-10.55,22.29-15.8,33.38-5.24,11.1-10.49,22.15-15.61,33.28-5.18,11.1-10.36,22.21-15.57,33.37-2.63,5.56-5.26,11.14-7.9,16.73-2.62,5.6-5.24,11.22-7.87,16.85-10.54,22.54-21.63,45.19-32.86,68.51-4.32,8.95-9.34,19.91-14.66,31.87-5.16,12.05-10.59,25.11-15.96,38.15-5.48,12.98-10.41,26.2-15.05,38.29-2.31,6.05-4.52,11.84-6.58,17.23-2.12,5.36-3.78,10.5-5.41,15.03-7.19,24.87-6.56,31.59-3.99,31.89,2.57.29,7.06-5.82,7.69-6.88,4.3-6.83,7.81-13.45,11.05-20.47,1.64-3.5,3.12-7.14,4.77-10.89,1.66-3.75,3.33-7.67,5.07-11.84,3.47-8.33,7.23-17.64,11.81-28.5,1.12-2.72,2.38-5.51,3.7-8.4,1.33-2.89,2.71-5.88,4.14-9,2.9-6.22,6.08-12.89,9.61-20.07-9.4,19.67-7.38,11.83-.48-5.48,1.74-4.32,3.72-9.26,6.02-14.45,2.31-5.19,4.83-10.69,7.45-16.21,5.24-11.04,10.87-22.17,16.05-31.13,3.74-6.48,7.67-13.32,11.47-20.57,3.82-7.23,7.62-14.83,11.41-22.71,3.8-7.87,7.54-16.05,11.38-24.38,3.86-8.32,7.72-16.84,11.59-25.48,15.34-34.6,31.36-70.84,47.77-103.73,8.34-16.38,16.44-34.14,26.03-53.91,6.39-12.72,12.73-25.33,19.02-37.86,6.26-12.55,12.43-25.06,18.53-37.55,6.12-12.48,12.22-24.93,18.32-37.38,6.06-12.47,12.12-24.94,18.21-37.46,12.25-24.99,24.59-50.14,37.16-75.76,12.74-25.54,25.81-51.5,39.53-78.12,7.26-14.11,13.68-27.57,19.71-40.52,6.05-12.94,11.62-25.43,17.42-37.49,8.75-17.45,19.25-35.5,26.6-49.57,5.74-11.08,11.1-21.38,16.02-31.28,4.94-9.9,9.54-19.36,13.99-28.64-10.41,20.51-18.01,35.48-29.61,58.34-7.81,15.21,3.29-11.7,8.18-21.92,1.89-4.48,7.35-10.2,9.24-14.69,4.94-9.31,8.72-18.26,13.55-28.5,1.9-4.49,3.33-3.08,4.28-5.32,6.88-13.8,10.41-25.41,15.54-33.83,3.83-6.43,7.29-12.23,10.66-17.89,2.07-3.61,4.11-7.21,6.14-11.11,1.16-2.47,2.37-5.04,3.57-7.6q-1.59,1.69,0,0c8.73-18.36,19.12-39.37,29.03-58.77-.09.05-.2.12-.29.17-6.03,11.22-12.21,21.98-19.6,33.01,3.12-4.81,3.25-3.93.21,1.83-1.08,1.31-2.17,2.62-3.25,3.92,4.99-10.21,9.99-20.4,16.42-29.11,0,0,1.99-4.46,2.97-6.66,1.98-3.01,2.43-2.57,3.24-2.98,1.17-2.19,2.36-4.4,3.55-6.63-3.44,4.14-12.64,18.16-12.64,18.16Z"/>
        <path d="M1783.45,300.41c.77-1.55,1.73-3.46,2.74-5.49-3.94,7.23-7.88,14.47-11.84,21.73,2.88-3.43,5.98-9.82,9.1-16.24Z"/>
      </g>
      <g class="cls-1">
        <path d="M1852.22,2788.8c-2.15-4.5-4.31-9.03-6.47-13.55.98,2.33,1.88,4.66,2.7,7.11,1.23,3.04,2.36,4.4,3.77,6.44Z"/>
        <path d="M1839.72,2762.73c-.4-.82-.8-1.63-1.17-2.4-.42-.7-.82-1.36-1.17-1.96.78,1.45,1.56,2.91,2.34,4.36Z"/>
        <path d="M1827.51,2739.6c1.99,4.15,4.06,8.08,6.11,11.83-1.58-3.43-3.57-7.36-6.11-11.83Z"/>
        <path d="M1836.49,2758.4c-.46-1.56-.55-2.41.83-.12.02.03.03.06.05.09-1.24-2.29-2.48-4.57-3.76-6.94,1.17,2.57,2.12,4.92,2.88,6.97Z"/>
        <path d="M1836.49,2758.4c.45,1.51,1.32,3.83,1.55,4.66-.4-1.38-.92-2.94-1.55-4.66Z"/>
        <path d="M1827.49,2755.55c-1.38-2.24.61-2.56-2.13-7-6.04-10.63-11.54-19.68-16.5-30.04-2.66-4.53-4.25-12.91-6.8-17.46-5.72-10.9-20.65-38.63-13.1-21.74,5.75,12.68,10.72,23.06,15.67,33.06,4.95,10,9.87,19.61,15.71,30.68,9.93,17.6,19.21,34.62,28.86,52.97,2.61,5.18,4.83,10.12,7.1,15.09-2.85-6.53-5.77-13.21-9.01-20.62-4.17-9.81-11.96-20.3-19.8-34.93Z"/>
        <path d="M1901.76,2887.41c-1.49-2.13-4.5-6.42-4.5-6.42-4.57-10.78-10.83-21.23-16.93-31.84.53,1.73,1.07,3.49,1.65,5.25,3.36,6.14,4.21,6.6,1.69.91,5.59,13.12,11.97,25.01,19.24,36.73.01-1.01.57-1.14-1.15-4.63Z"/>
        <path d="M1907.25,2898.85c-1.45-2.28-2.91-4.58-4.34-6.82-.02.08,0,.22,0,.33,1.49,2.27,2.98,4.54,4.44,6.76-.04-.09-.08-.18-.11-.27Z"/>
        <path d="M1802,2690.45c-14.42-31.6-26.69-61.93-38.87-91.45-1.3-2.12-2.36-3.54-3.43-6.67-.66-2.43-1.43-4.83-2.27-7.18-1.77-4.32-3.55-8.63-5.3-12.9-.67-1.47-1.35-2.96-2.04-4.48,0-.02-.04-.09-.06-.12-1.21-2.33-1.19-1.5-.82.1.51,1.75.93,3.37,1.25,4.77-.2-.9-.89-3.21-1.25-4.77-.63-2.12-1.4-4.45-2.4-7.14-1.75-3.87-3.54-7.95-5.21-12.23,2.18,4.62,3.89,8.68,5.21,12.23,1.13,2.45,2.2,4.8,3.29,7.15.34.66.68,1.33,1.04,2.03-4.06-9.84-8.01-19.67-12.1-29.45-1.01-2.22-1.98-4.34-2.77-6.06-3.26-6.96-6.51-13.89-7.52-18.62-.72-1.73-1.45-3.49-2.19-5.25.09.35.18.73.27,1.08-.28-.8-.5-1.48-.67-2.03-3.09-7.37-14.14-31.64-16.56-36.45,0,0-4.52-8.97-5.72-13.18-3.34-6.84-6.95-16-9.25-23.64,4.67,8.7,7.25,16.61,9.25,23.64,1.6,3.29,3.14,6.03,4.45,7.84.42,1.76,1.27,5.34,1.27,5.34,2.4,4.82,4.92,9.57,7.31,14.22-6.02-14.53-12.26-29.14-18.56-44.11-40.49-96.29-79.82-184.23-122.28-283.9-5.73-13.51-11.43-26.87-16.98-40.16-5.52-13.3-11-26.49-16.43-39.57-10.9-26.16-21.25-52.09-31.53-77.75-2.57-6.39-5.13-12.75-7.68-19.07-2.52-6.33-5.04-12.64-7.54-18.91-5.06-12.53-10.08-24.95-15.08-37.31-2.5-6.18-5.06-12.31-7.5-18.48-2.45-6.16-4.89-12.32-7.33-18.46-4.88-12.29-9.75-24.55-14.62-36.82l-3.64-9.21c-1.21-3.07-2.36-6.17-3.53-9.26-2.33-6.18-4.67-12.37-7.01-18.57-4.66-12.41-9.29-24.88-13.9-37.45l-1.72-4.72-1.65-4.76c-1.09-3.18-2.19-6.36-3.28-9.55-2.16-6.39-4.34-12.8-6.52-19.24-2.14-6.46-4.29-12.94-6.46-19.46-1.06-3.27-2.13-6.54-3.2-9.83-.53-1.64-1.06-3.29-1.59-4.94-.5-1.66-1-3.32-1.5-4.98-3.09-10.21-7.08-22.52-11.55-35.84-2.26-6.65-4.6-13.57-6.99-20.61-.6-1.76-1.21-3.53-1.81-5.3-.57-1.78-1.14-3.57-1.72-5.36-1.15-3.58-2.31-7.18-3.47-10.77-4.69-14.36-9.36-28.67-13.66-41.84-.54-1.64-1.08-3.27-1.6-4.88-.51-1.61-.97-3.21-1.45-4.79-.94-3.15-1.86-6.21-2.74-9.17-1.76-5.91-3.4-11.39-4.87-16.3-9.23-25.92-13.85-31.54-16.12-30.32-2.27,1.22-2.17,9.3-2.03,10.61,1.38,17.25,4.89,32.04,9.98,50.95.32,1.18.65,2.38.98,3.6.36,1.21.73,2.43,1.11,3.67.75,2.49,1.53,5.05,2.33,7.7,1.59,5.31,3.28,10.98,5.11,17.1,1.8,6.13,3.7,12.73,5.69,19.9.98,3.59,1.99,7.32,3.05,11.2.52,1.94,1.05,3.92,1.59,5.94.57,2.01,1.15,4.05,1.74,6.14-.83-2.84-1.5-5.19-2-7.11-.47-1.93-.8-3.42-1.01-4.51-.41-2.17-.32-2.72.17-1.96.49.76,1.36,2.83,2.52,5.91,1.21,3.06,2.75,7.11,4.46,11.85,3.42,9.49,7.56,21.77,11.48,34.4,1.96,6.32,3.87,12.73,5.6,18.92,1.79,6.17,3.49,12.1,4.84,17.54,3.85,15.76,9.08,32.87,15.15,50.84,6.29,17.88,13.54,36.57,21.07,55.65,1.89,4.77,3.8,9.56,5.71,14.37,1.98,4.78,3.97,9.58,5.96,14.39,3.98,9.62,7.98,19.28,11.96,28.9,3.97,9.63,7.84,19.25,11.67,28.76,3.89,9.49,7.66,18.9,11.24,28.18,7.2,18.54,15.46,38.01,24.67,59.92,45.63,114.53,94.77,217.96,146.31,336.66,13.76,31.41,27.56,58.26,39.94,84.36,8.7,19.21,16.84,40.24,23.64,55.98,10.62,24.77,20.39,45.82,29.88,65.92-10.07-22.7-17.71-39.16-28.86-64.49-7.38-16.92,7.31,10.82,12.63,21.85,2.46,4.64,3.73,13.03,6.19,17.68,2.24,5.23,4.59,10.16,7.04,15.16,2.46,5,5,10.08,7.6,15.61,2.42,4.66.42,4.85,1.62,7.18,6.84,15.18,14.08,26.07,17.71,36.09,2.86,7.56,5.42,14.38,7.86,21.08,1.63,4.2,3.27,8.36,5.17,12.72,1.29,2.66,2.62,5.42,3.96,8.18q-.4-2.46,0,0c9.56,19.81,20.57,42.67,31.3,63.66,0-.11.01-.25.02-.36-6.01-12.4-11.33-24.74-15.96-38.31,2.08,5.83,1.28,5.35-1.63-1.07-.42-1.78-.85-3.57-1.26-5.33,5.35,11.05,10.78,22.01,14.34,33.15,0,0,2.58,4.59,3.86,6.86,1.38,3.64.77,3.73.65,4.69,1.19,2.41,2.39,4.85,3.6,7.29-.79-2.8-2.85-8.41-4.63-13.34-1.82-4.92-3.38-9.17-3.38-9.17Z"/>
        <path d="M1746.73,2560.3c.76,1.71,1.7,3.81,2.7,6.05-3.38-8.23-6.69-16.49-10.13-24.74,1.02,4.7,4.2,11.69,7.43,18.69Z"/>
      </g>
      <g class="cls-1">
        <path d="M1405.83,919.6c-.48,1.05-.97,2.12-1.46,3.18.36-.49.78-.94,1.32-1.35.5-.61.26-1.15.14-1.83Z"/>
        <path d="M1403.02,925.72c-.09.19-.18.38-.26.56-.02.19-.04.38-.05.56.09-.37.2-.75.31-1.12Z"/>
        <path d="M1401.09,931.51c.52-.95.86-1.92,1.14-2.88-.48.75-.88,1.69-1.14,2.88Z"/>
        <path d="M1403.42,927.23c-.41.23-.76.29-.71-.37,0,0,0-.01,0-.03-.15.59-.3,1.18-.48,1.79.36-.56.76-1.03,1.19-1.4Z"/>
        <path d="M1403.42,927.23c.39-.23.86-.65,1.08-.77-.36.2-.73.46-1.08.77Z"/>
        <path d="M1409.08,931.25c-.04.64-1.76-.23-1.83,1.05-.3,1.41-.5,2.74-.73,4.04-.21,1.31-.48,2.56-.96,3.79-.04,1.28-2.72,2.25-2.77,3.53-.55,2.84-.81,10.49.65,6.5,2.11-6.04,3.1-10.14,4.98-15.58,1.11-4.59,2.02-9.09,3.25-13.77.44-1.27,1.07-2.37,1.68-3.48-.92,1.4-1.85,2.83-2.84,4.44-1.45,2.06-.35,5.77-1.44,9.47Z"/>
        <path d="M1417.34,896.57c-.05.64-.16,1.93-.16,1.93-2.37,1.89-3.06,4.71-3.73,7.52.46-.25.92-.5,1.39-.76.57-1.53.16-1.92-.82-.78,2.43-2.54,3.88-5.31,5.02-8.31-.56-.04-1.08-.33-1.7.38Z"/>
        <path d="M1419.67,894.41c-.2.6-.41,1.2-.63,1.78.06.01.12,0,.18,0,.18-.61.35-1.23.52-1.83l-.07.04Z"/>
        <path d="M1397.92,944.14c-1.45,3.77-2.92,7.4-4.33,10.97-1.37,3.59-2.73,7.09-4.11,10.54.15.67.42,1.19-.05,1.83-.51.43-.92.9-1.25,1.4-.41,1.01-.82,2.01-1.22,3.01-.08.37-.17.74-.25,1.12,0,0,0,.02,0,.03,0,.64.34.57.73.32.34-.33.7-.61,1.05-.83-.22.14-.66.58-1.05.83-.41.4-.78.87-1.12,1.45-.21.97-.48,1.97-.93,2.95.17-1.2.5-2.17.93-2.95.13-.62.26-1.21.39-1.8,0-.18.01-.36.02-.55-.96,2.29-1.82,4.59-2.72,6.89-.14.55-.27,1.08-.35,1.52-.34,1.77-.67,3.54-1.91,4.28-.16.41-.32.82-.49,1.23.08-.06.16-.13.25-.19-.12.17-.23.3-.33.41-.68,1.74-2.08,7.8-2.22,9.07,0,0-.16,2.4-1.01,3.18-.21,1.79-1.23,3.86-2.68,5.34-.08-2.43,1.25-4.03,2.68-5.34.1-.86.02-1.65-.28-2.28.43-.3,1.29-.9,1.29-.9.13-1.27.12-2.59.16-3.85-1.38,3.4-2.6,6.89-3.92,10.44-1.05,2.86-2.08,5.69-3.11,8.5-1.02,2.81-2.01,5.62-2.89,8.45-1.82,5.64-3.58,11.25-5.33,16.89-1.63,5.68-3.27,11.39-4.93,17.19-.42,1.45-.84,2.91-1.27,4.37-.4,1.47-.79,2.95-1.19,4.44-.82,2.97-1.64,5.98-2.48,9.03-.92,3.3-1.94,6.54-2.79,9.8-.9,3.25-1.8,6.46-2.68,9.66-.92,3.19-1.84,6.36-2.75,9.5-.88,3.16-1.75,6.3-2.62,9.42-.89,3.11-1.69,6.21-2.44,9.29-.78,3.08-1.33,6.17-1.95,9.23-.57,3.07-1.15,6.13-1.72,9.18-.57,3.05-1.12,6.09-1.6,9.15-1,6.11-2.11,12.22-3.45,18.38-1.23,6.18-2.73,12.42-4.72,18.79-1.43,4.9-2.25,12.05-2.92,19.16-.16,1.78-.32,3.55-.43,5.3-.09,1.74-.17,3.45-.25,5.09-.15,3.27-.29,6.26-.4,8.68,2.23,13.16,10.95,6.93,11.46,6.39,3.79-3.71,4.83-7.13,5.57-11.6.38-2.23.67-4.73,1.22-7.64.61-2.9,1.46-6.22,2.87-10.09-1.69,5.29-2.62,3.2-2.41-1.46.11-2.33.5-5.3,1.23-8.28.73-2.99,1.91-5.98,3.4-8.39,2.27-3.47,3.76-7.4,4.78-11.65,1.02-4.24,1.77-8.77,2.26-13.44.94-9.35,1.68-19.21,4.11-28.04.31-1.1.56-2.23.8-3.39.26-1.15.5-2.33.73-3.54.46-2.42.9-4.95,1.49-7.62.98-3.41,1.85-6.8,2.68-10.18.89-3.37,1.71-6.72,2.47-10.08.76-3.36,1.48-6.72,2.16-10.09.73-3.36,1.46-6.72,2.19-10.09.71-3.38,1.42-6.77,2.13-10.18.74-3.41,1.58-6.81,2.39-10.26.83-3.44,1.69-6.91,2.59-10.41.92-3.5,2.01-6.99,3.1-10.54,1.09-3.78,1.7-7.46,2.14-11.03.49-3.56.89-6.99,1.42-10.3,1.17-4.72,3.58-9.4,4.85-13.13,2-5.87,3.1-11.14,3.96-16.27-1.53,5.53-2.4,9.65-4.19,15.77-1.27,4.06-1.38-3.57-.97-6.43-.01-1.28,2.62-2.39,2.6-3.67.85-2.48.82-5.05,1.22-7.9,0-1.29,1.75-.51,1.76-1.15.92-3.75-.36-7.37.98-9.5.92-1.65,1.78-3.13,2.62-4.57.46-.94.9-1.87,1.21-2.93.09-.69.18-1.41.27-2.13q-.74.32,0,0c.74-5.14,2.01-10.93,3.24-16.32-.06,0-.13,0-.19,0-.99,3.04-2.3,5.86-4.61,8.52.92-1.18,1.35-.82.86.74-.45.27-.91.55-1.36.82.55-2.84,1.09-5.69,3.37-7.68,0,0,.05-1.29.07-1.93.58-.74,1.12-.48,1.67-.46.2-.59.38-1.2.55-1.81-1.37.87-4.06,4.32-4.06,4.32Z"/>
        <path d="M1386.24,974.86c.09-.43.24-.95.39-1.5-.82,1.9-1.52,3.85-2.3,5.78,1.24-.73,1.57-2.5,1.91-4.28Z"/>
      </g>
      <g class="cls-1">
        <path d="M1304,1101.65c0,.39,0,.79,0,1.19.12-.21.31-.42.63-.66.2-.28-.24-.37-.64-.53Z"/>
        <path d="M1304,1103.93c0,.07,0,.14,0,.21.06.06.12.11.19.16-.07-.12-.13-.25-.19-.37Z"/>
        <path d="M1304.68,1105.94c.07-.37-.02-.71-.17-1.04-.12.31-.09.65.17,1.04Z"/>
        <path d="M1305,1104.26c-.27.15-.56.24-.8.05,0,0,0,0,0,0,.11.2.22.39.31.59.09-.23.26-.45.49-.64Z"/>
        <path d="M1305,1104.26c.26-.15.5-.36.66-.44-.24.13-.46.28-.66.44Z"/>
        <path d="M1311.8,1104.16c.23.19-1.68.31-1.22.68.62.91,1.56,1.65,1.65,2.54.47.37-1.59,1.21-1.13,1.58.63.91,3.42,3.12,3.17,1.69-.49-2.14-1.13-3.51-1.67-5.43-.91-1.51-1.96-2.95-2.8-4.51-.13-.45-.02-.88.07-1.32-.25.58-.49,1.18-.71,1.84-.45.88,2.09,1.67,2.65,2.93Z"/>
        <path d="M1304.38,1092.87c.23.19.7.56.7.56-1.3,1.03-.67,1.95-.05,2.86.3-.17.61-.34.92-.51-.16-.54-.7-.56-1.07-.03,1.06-1.22,1.15-2.29.86-3.35-.51.11-1.11.15-1.35.48Z"/>
        <path d="M1305.52,1091.77c.08.21.15.42.21.62.05-.01.11-.02.16-.04-.11-.21-.22-.41-.33-.61l-.04.03Z"/>
        <path d="M1306.83,1110.13c.33,2.72.48,5.29.53,7.81.39.16.84.25.64.53-.31.23-.51.44-.63.65,0,.37,0,.74,0,1.1.05.12.12.25.19.37h.01c.24.19.52.1.8-.05.19-.16.41-.31.66-.45-.15.09-.39.3-.66.45-.23.2-.4.41-.49.64.15.32.25.66.18,1.03-.26-.38-.3-.72-.18-1.03-.1-.2-.21-.4-.32-.59-.06-.05-.12-.11-.19-.16-.01.84-.02,1.68-.03,2.52.07.19.13.36.21.51.31.58.63,1.15-.26,1.61,0,.15-.01.3-.02.45.05-.03.11-.07.16-.1-.05.07-.11.13-.16.18-.02.63.83,2.66,1.14,3.06,0,0,.65.73.11,1.13.4.56.13,1.37-.74,2.08-.88-.69-.16-1.42.74-2.08-.19-.27-.53-.48-1.02-.61.3-.17.91-.52.91-.52-.31-.39-.81-.77-1.21-1.15-.04,1.25-.08,2.51-.13,3.8-.42,8.31.54,15.84.48,24.42-.1,4.65-.48,9.15-1.17,13.6-1.38,8.86,1.96,16.49-2.04,25.66-1.38,3.5.12,9.61.59,12.79,3.55,4.02,11.57,1.1,12.01.85,6.76-3.27,2.7-5.03,6.31-10.84-1.99,3.92-4.75-2.31-.3-6.26,6.82-5.76.28-12.42,1.54-18.83.32-1.6-.18-3.23-.22-5.1,1.53-9.9-2.45-18.56-2.88-28.75-.29-2.68-2.29-4.87-3.48-7.04-.49-1.62.27-3.48.14-4.82-.22-2.11-1.07-3.86-2.07-5.52.54,1.91,1.19,3.28,1.68,5.42.26,1.43-2.55-.77-3.18-1.67-.47-.37,1.59-1.22,1.12-1.59-.09-.89-1.03-1.63-1.66-2.53-.47-.37,1.45-.51,1.22-.69-.56-1.26-3.11-2.03-2.66-2.92.22-.66.46-1.26.71-1.84.07-.36.12-.72.01-1.08-.18-.22-.36-.44-.55-.66q-.57.24,0,0c-1.29-1.61-2.48-3.5-3.47-5.27-.05.01-.11.03-.17.04.29,1.06.22,2.13-.84,3.36.38-.52.91-.51,1.08.03-.3.17-.61.34-.92.51-.63-.91-1.26-1.82.04-2.86,0,0-.47-.37-.7-.56.24-.33.84-.37,1.34-.48-.05-.21-.13-.41-.21-.62-.91.54-2,2.07-2,2.07Z"/>
        <path d="M1307.83,1121.22c-.08-.14-.14-.32-.2-.5-.02.71-.04,1.41-.06,2.12.89-.46.58-1.04.26-1.62Z"/>
      </g>
      <g class="cls-1">
        <path d="M1349.67,1853.41c-.18-1.2-.36-2.42-.53-3.63-.03.63-.13,1.27-.36,1.94-.08.83.41,1.17.89,1.69Z"/>
        <path d="M1348.66,1846.41c-.03-.22-.06-.44-.09-.64-.09-.18-.18-.36-.27-.52.13.38.25.78.36,1.16Z"/>
        <path d="M1347.07,1840.2c.09,1.13.34,2.18.64,3.19-.02-.93-.2-1.99-.64-3.19Z"/>
        <path d="M1347.49,1845.3c.21-.44.47-.68.8-.07,0,0,0,.01.01.03-.2-.61-.4-1.22-.59-1.85,0,.7-.07,1.34-.22,1.9Z"/>
        <path d="M1347.49,1845.3c-.21.42-.36,1.06-.48,1.29.19-.38.35-.82.48-1.29Z"/>
        <path d="M1340.52,1844.86c-.32-.6,1.6-.78.95-1.96-1.06-2.86-2.33-5.25-2.78-8.03-.63-1.19,1.15-3.53.52-4.72-1.02-2.88-4.8-10.05-3.96-5.6,1.39,6.68,2.58,10.98,3.96,16.94,1.61,4.76,3.34,9.3,4.9,14.19.33,1.39.42,2.72.52,4.06,0-1.77-.02-3.58-.08-5.59.07-2.66-2.89-5.34-4.03-9.29Z"/>
        <path d="M1353.39,1880.21c-.33-.58-.98-1.76-.98-1.76.84-3.06-.24-5.9-1.32-8.74-.23.49-.46.98-.7,1.48.42,1.66.98,1.76,1.12.19-.51,3.64-.09,6.91.72,10.2.47-.3,1.07-.37,1.16-1.36Z"/>
        <path d="M1352.75,1883.49c-.18-.64-.36-1.28-.52-1.92-.05.02-.1.07-.15.1.21.64.43,1.27.63,1.89l.03-.08Z"/>
        <path d="M1343.13,1827.11c-.72-4.19-1.39-8.26-1.99-12.26-.57-4-1.1-7.92-1.59-11.8-.46-.54-.95-.89-.85-1.72.24-.65.35-1.29.4-1.92-.14-1.13-.28-2.27-.41-3.39-.11-.38-.22-.77-.33-1.17,0,0-.01-.02-.01-.03-.31-.6-.58-.37-.8.06-.13.47-.31.9-.51,1.28.13-.24.29-.86.51-1.28.16-.57.26-1.19.26-1.9-.26-1.01-.48-2.08-.53-3.21.4,1.21.55,2.27.53,3.21.19.64.37,1.25.55,1.87.08.17.17.34.26.52-.32-2.59-.57-5.17-.84-7.75-.13-.58-.25-1.14-.38-1.59-.52-1.82-1.03-3.64-.27-4.92-.04-.46-.09-.92-.14-1.39-.05.09-.08.19-.13.29.03-.21.07-.39.11-.54-.19-1.95-1.75-8.32-2.2-9.58,0,0-.89-2.36-.45-3.49-.58-1.8-.55-4.24.13-6.28,1.11,2.28.6,4.39-.13,6.28.27.87.69,1.58,1.23,2.05-.26.47-.78,1.44-.78,1.44.45,1.27,1.09,2.51,1.62,3.72-.39-3.83-.7-7.71-1.06-11.67-.5-6.37-1.15-12.6-1.7-18.79-.57-6.19-1.18-12.32-1.81-18.49-1.13-12.34-2.33-24.79-3.1-38.02-.45-7.16-.69-14.2-.86-21.13-.09-3.47-.16-6.91-.2-10.33,0-3.42.02-6.83.02-10.21.05-6.75-.2-13.33-.44-19.84-.25-6.51-.68-12.93-.89-19.38-.22-6.45-.37-12.9-.23-19.46.2-6.56.67-13.21,1.59-20.04.64-5.24.63-12.67.35-20.05-.33-7.38-.66-14.72-.88-19.73-3.46-13.4-11.56-6.31-12.01-5.65-3.43,4.21-4.13,7.95-4.45,12.75-.16,2.4-.23,5.07-.48,8.21-.23,3.14-.64,6.74-1.54,11.02.99-5.82,2.19-3.72,2.58,1.21.38,4.94-.03,12.7-2.17,18.26-1.66,4.03-2.49,8.45-2.8,13.12-.32,4.67-.03,9.59.38,14.61.8,10.05,2.51,20.5,2.2,30.32-.18,4.91.59,10.07.87,15.91-.19,30.43,5.58,58.2,8.74,89.88.51,4.19,1.42,8.08,2.44,11.78,1.04,3.7,2.2,7.21,3.14,10.67,1.01,5.1.75,10.72,1.34,14.9.94,6.56,2.41,12.13,4,17.41-1.2-6-2.33-10.34-3.57-17.04-.75-4.48,2.88,2.79,3.84,5.69.6,1.21-1.22,3.51-.62,4.72.39,2.77,1.6,5.19,2.56,8.08.61,1.21-1.32,1.34-1.02,1.95,1.05,3.99,3.96,6.74,3.83,9.4.02,2,0,3.82-.04,5.59.06,1.11.14,2.2.39,3.35.26.69.54,1.41.81,2.12q.49-.68,0,0c1.94,5.15,3.97,11.1,5.71,16.66.05-.03.11-.07.16-.1-.74-3.3-1.09-6.57-.5-10.21-.17,1.56-.73,1.46-1.12-.22.25-.49.49-.98.73-1.46,1.02,2.88,2.04,5.75,1.13,8.78,0,0,.63,1.2.95,1.79-.11.98-.71,1.04-1.18,1.32.14.64.3,1.29.47,1.94.72-1.54,1.22-6.1,1.22-6.1Z"/>
        <path d="M1337.85,1792.9c.13.44.26.99.4,1.58-.25-2.16-.45-4.34-.67-6.51-.76,1.28-.24,3.1.28,4.93Z"/>
      </g>
      <g class="cls-1">
        <path d="M1271.1,1683.29c.06-.58.13-1.17.19-1.76-.15.29-.38.57-.73.85-.24.37.18.6.54.91Z"/>
        <path d="M1271.48,1679.91c.01-.11.03-.21.04-.31-.05-.1-.1-.19-.16-.28.05.2.09.39.12.59Z"/>
        <path d="M1271.15,1676.81c-.14.54-.1,1.06,0,1.57.17-.43.2-.95,0-1.57Z"/>
        <path d="M1270.55,1679.23c.3-.17.6-.25.8.08,0,0,0,0,0,.01-.07-.31-.15-.62-.21-.94-.13.32-.34.61-.59.85Z"/>
        <path d="M1270.55,1679.23c-.28.17-.56.44-.72.53.26-.15.51-.33.72-.53Z"/>
        <path d="M1263.82,1678.05c-.2-.33,1.72-.14,1.32-.78-.47-1.49-1.24-2.79-1.14-4.15-.38-.65,1.81-1.48,1.43-2.13-.43-1.49-2.73-5.42-2.77-3.21.05,3.33.38,5.52.55,8.51.64,2.46,1.43,4.83,1.99,7.32.05.69-.13,1.33-.29,1.97.34-.83.69-1.68,1.02-2.63.6-1.23-1.78-2.89-2.11-4.91Z"/>
        <path d="M1269.44,1696.26c-.2-.31-.62-.94-.62-.94,1.43-1.34.93-2.79.44-4.25-.32.2-.65.4-.98.61.08.83.62.94,1.06.22-1.22,1.64-1.45,3.23-1.31,4.87.52-.09,1.12-.05,1.4-.51Z"/>
        <path d="M1268.16,1697.73c-.05-.32-.1-.64-.13-.96-.06,0-.11.02-.17.03.08.32.17.65.25.96l.05-.03Z"/>
        <path d="M1269.86,1670.16c.12-2.05.26-4.04.45-5.98.22-1.94.46-3.84.73-5.71-.35-.32-.76-.57-.5-.93.36-.26.6-.54.76-.82.08-.55.17-1.09.25-1.63-.03-.19-.06-.39-.1-.59,0,0,0-.01,0-.02-.19-.33-.49-.27-.79-.11-.22.19-.48.36-.74.51.17-.09.45-.35.74-.51.27-.24.48-.5.62-.83-.06-.51-.08-1.04.1-1.57.16.62.1,1.14-.1,1.57.05.32.11.64.18.95.05.09.1.19.15.28.19-1.25.43-2.48.66-3.71-.02-.29-.03-.57-.07-.8-.16-.93-.31-1.86.67-2.31.04-.22.09-.44.13-.66-.06.03-.12.08-.19.11.07-.09.14-.17.21-.23.18-.93-.12-4.13-.32-4.79,0,0-.42-1.24.21-1.69-.23-.93.26-2.05,1.3-2.86.66,1.25-.24,2.12-1.3,2.86.11.45.38.85.82,1.16-.34.17-1.03.52-1.03.52.2.66.58,1.35.87,2,.35-1.83.77-3.66,1.17-5.55,2.71-12.07,4.16-23.32,7.14-35.78.82-3.37,1.75-6.65,2.74-9.87.97-3.22,2.04-6.37,3.18-9.47,4.54-12.36,4.29-24.49,11.65-36.43,2.67-4.61,3.64-13.97,4.43-18.79-1.81-7.04-10.56-5.38-11.08-5.17-7.68,2.53-4.51,6.38-10.18,13.59,3.41-5,3.6,4.93-2.15,9.15-8.7,6.05-5.06,17.91-8.65,26.85-.91,2.23-1.02,4.78-1.68,7.53-5.09,14.02-4.31,28.05-7.03,43.31-.56,4.08.72,7.89,1.27,11.45.02,2.55-1.27,5.1-1.5,7.15-.34,3.22.03,6.06.58,8.79-.03-2.99-.3-5.21-.23-8.54.12-2.21,2.28,1.81,2.66,3.32.36.67-1.87,1.41-1.51,2.08-.15,1.35.57,2.69.96,4.19.36.66-1.55.4-1.37.73.25,2.03,2.56,3.79,1.92,5-.37.93-.75,1.77-1.12,2.59-.15.53-.29,1.05-.27,1.62.12.36.25.74.38,1.12q.61-.24,0,0c.9,2.7,1.71,5.78,2.32,8.63.05,0,.12-.02.17-.03-.07-1.64.22-3.22,1.51-4.82-.48.7-1,.57-1.05-.28.33-.19.67-.38,1-.56.43,1.49.87,2.97-.62,4.24,0,0,.38.65.58.97-.3.44-.9.38-1.42.44.01.32.04.65.08.97,1-.61,2.39-2.65,2.39-2.65Z"/>
        <path d="M1271.35,1653.51c.04.23.06.5.08.79.17-1.04.39-2.07.59-3.11-.99.46-.83,1.39-.67,2.32Z"/>
      </g>
    </g>
  </g>
</svg>