<?xml version="1.0" encoding="UTF-8"?>
<svg id="Lag_2" data-name="Lag 2" xmlns="http://www.w3.org/2000/svg" viewBox="0 0 1018.49 364.98">
  <defs>
    <style>
      .cls-1 {
        opacity: .85;
      }

      .cls-2 {
        fill: #6e6e6e;
      }
    </style>
  </defs>
  <g id="Layer_2" data-name="Layer 2">
    <g>
      <polygon class="cls-2" points="772.13 240.49 199.6 240.49 116.11 62.49 842.86 62.49 772.13 240.49"/>
      <g class="cls-1">
        <path d="M744.79,335.25c.45-1.2.91-2.4,1.37-3.61-.27.59-.57,1.17-.91,1.74-.36.77-.36,1.23-.46,1.87Z"/>
        <path d="M747.43,328.31c.08-.22.17-.44.24-.64.05-.2.09-.4.13-.57-.13.4-.25.81-.38,1.21Z"/>
        <path d="M749.53,321.93c-.45,1.1-.81,2.18-1.13,3.23.39-.89.78-1.95,1.13-3.23Z"/>
        <path d="M747.51,326.89c.26-.35.45-.5.3.17,0,0,0,.02,0,.03.19-.64.39-1.28.59-1.94-.3.66-.6,1.25-.88,1.74Z"/>
        <path d="M747.51,326.89c-.25.34-.56.9-.7,1.08.22-.31.46-.67.7-1.08Z"/>
        <path d="M745.24,324.33c.1-.68.87-.25,1.08-1.59.7-3.08,1.06-5.8,1.9-8.62.16-1.36,1.87-3.01,2.06-4.36.7-3.09,1.49-11.32.21-6.75-1.83,6.91-2.87,11.46-4.51,17.66-1.11,5.11-2.19,10.02-3.54,15.19-.41,1.43-.87,2.75-1.31,4.08.63-1.72,1.27-3.48,1.99-5.43,1.03-2.54,1.12-6,2.13-10.18Z"/>
        <path d="M734.79,361.85c.21-.63.64-1.91.64-1.91,1.1-2.78,2.19-5.74,3.14-8.73-.2.41-.41.84-.62,1.26-.56,1.71-.57,1.92.03.44-1.4,3.39-2.48,6.67-3.63,10.03.09-.2.09-.16.44-1.09Z"/>
        <path d="M733.68,364.91c.23-.66.45-1.32.67-1.97,0,.02-.02.04-.03.07-.22.66-.45,1.32-.67,1.97l.02-.07Z"/>
        <path d="M753.41,308.21c2.88-8.45,5.67-16.38,8.49-24.09-.05-.69-.21-1.21.22-1.96.44-.53.8-1.08,1.11-1.66.42-1.12.83-2.25,1.25-3.36.1-.4.2-.82.3-1.23,0,0,0-.03,0-.03.06-.69-.22-.58-.57-.25-.3.39-.61.73-.91,1.01.19-.18.58-.7.91-1.01.36-.47.71-1.02,1.03-1.69.27-1.06.59-2.16,1.06-3.25-.26,1.3-.63,2.37-1.06,3.25-.16.68-.31,1.33-.47,1.98-.02.2-.04.39-.06.59.97-2.56,1.93-5.11,2.89-7.66.17-.6.33-1.18.44-1.66.45-1.93.88-3.86,2.02-4.76.17-.45.35-.91.53-1.36-.08.07-.15.15-.23.22.12-.19.23-.34.33-.47.74-1.92,2.46-8.57,2.68-9.95,0,0,.35-2.6,1.2-3.49.35-1.95,1.46-4.24,2.93-5.89-.13,2.63-1.51,4.4-2.93,5.89-.17.93-.16,1.78.05,2.45-.41.34-1.26,1.04-1.26,1.04-.22,1.38-.3,2.82-.44,4.18,1.47-3.77,2.96-7.57,4.47-11.46,9.94-24.96,17.91-48.4,27.7-74.48,5.36-14.11,10.72-27.59,16.06-40.79,5.31-13.16,9.22-26.15,13.31-39.11,4.02-12.98,8.36-25.9,13.06-39.42,3.49-10.42,7.41-30.64,9.44-41.15.59-3.55.97-5.74,1.23-7.03.25-1.28.36-1.66.34-1.59-.01.15-.68,2.05-.81,2.35-1.57,4.08-3.24,7.61-5.17,12.26-1.98,4.63-4.18,10.38-8.31,18.36,2.74-5.46,2.21-3.28.44,1.58-1.8,4.86-4.91,12.38-8.31,17.26-5.04,7.02-9.43,16.13-13.19,25.96-3.82,9.81-7.04,20.34-11.47,29.62-2.23,4.63-3.91,9.79-6.17,15.47-13.43,28.84-20.3,57.56-31.07,89.03-2.67,8.4-3.41,16.34-4.8,23.71-1.37,5.26-3.89,10.52-5.19,14.74-2.02,6.64-3.2,12.54-4.23,18.22,1.6-6.2,2.56-10.8,4.41-17.69,1.31-4.57,1.07,3.85.53,6.99-.07,1.4-2.4,2.83-2.45,4.24-.86,2.8-1,5.59-1.53,8.73-.08,1.4-1.47.76-1.51,1.45-.92,4.21-.15,7.96-1.36,10.44-.83,1.91-1.59,3.63-2.32,5.31-.41,1.08-.81,2.16-1.12,3.34-.12.76-.25,1.55-.38,2.33q.56-.47,0,0c-.95,5.63-2.33,12.03-3.78,17.92.03-.01.08-.03.11-.05,1-3.39,2.14-6.65,4-9.89-.76,1.42-1,1.13-.5-.61.34-.37.68-.75,1.01-1.12-.67,3.1-1.42,6.17-3.12,8.74,0,0-.2,1.36-.3,2.03-.46.9-.76.75-1.09.85-.19.66-.38,1.34-.57,2.01.93-1.24,3.11-5.4,3.11-5.4Z"/>
        <path d="M765.31,273.87c-.11.47-.27,1.04-.44,1.65.81-2.14,1.63-4.28,2.45-6.42-1.11.9-1.55,2.84-2,4.77Z"/>
      </g>
      <g class="cls-1">
        <path d="M244.49,334.59c-.5-1.23-1-2.47-1.5-3.7.21.64.39,1.28.54,1.96.27.83.59,1.19.96,1.74Z"/>
        <path d="M241.6,327.46c-.09-.22-.18-.45-.26-.66-.11-.19-.21-.37-.3-.53.19.39.38.79.56,1.19Z"/>
        <path d="M238.71,321.14c.43,1.15.92,2.22,1.41,3.25-.33-.95-.78-2.03-1.41-3.25Z"/>
        <path d="M240.68,326.32c-.06-.44-.02-.69.34-.08,0,0,0,.02.01.03-.3-.62-.6-1.24-.91-1.89.25.71.43,1.36.56,1.94Z"/>
        <path d="M240.68,326.32c.05.43.21,1.07.24,1.31-.05-.39-.13-.83-.24-1.31Z"/>
        <path d="M237.25,325.93c-.4-.59.46-.79-.31-1.96-1.62-2.84-3.25-5.16-4.59-7.9-.83-1.15-.72-3.59-1.52-4.75-1.64-2.84-6.76-9.68-4.53-5.3,3.45,6.54,5.85,10.74,8.95,16.6,2.73,4.67,5.35,9.17,7.94,14.04.69,1.38,1.27,2.7,1.87,4.02-.73-1.75-1.48-3.53-2.31-5.52-1.01-2.65-3.34-5.35-5.5-9.24Z"/>
        <path d="M255.63,361.8c-.28-.63-.85-1.9-.85-1.9-1.12-2.89-2.38-5.89-3.77-8.84.14.46.28.92.43,1.39.77,1.69.92,1.86.33.32,1.32,3.56,2.81,6.81,4.3,10.16-.08-.22-.04-.18-.43-1.14Z"/>
        <path d="M256.94,364.91c-.29-.66-.58-1.32-.87-1.97,0,.02.02.05.03.07.29.66.59,1.32.88,1.96l-.03-.07Z"/>
        <path d="M232.03,307.98c-3.76-8.44-7.22-16.43-10.51-24.26-.51-.49-.99-.77-1.2-1.64-.04-.71-.17-1.38-.34-2.03-.48-1.15-.95-2.29-1.42-3.43-.21-.38-.42-.76-.63-1.15,0,0-.02-.02-.02-.03-.44-.57-.56-.29-.59.2.05.5.06.98.04,1.4.02-.27-.06-.93-.04-1.4-.06-.61-.19-1.27-.42-2-.54-1-1.07-2.06-1.48-3.21.71,1.17,1.18,2.24,1.48,3.21.35.63.69,1.23,1.03,1.83.12.16.24.33.37.5-1.07-2.62-2.13-5.23-3.2-7.84-.3-.58-.58-1.13-.83-1.57-1.01-1.79-2.03-3.56-1.82-5.03-.18-.46-.37-.94-.56-1.41,0,.11,0,.22-.02.33-.04-.23-.07-.42-.09-.58-.79-1.98-4.14-8.25-4.94-9.45,0,0-1.54-2.23-1.54-3.5-1.1-1.73-1.88-4.24-1.94-6.52,1.73,2.1,1.95,4.41,1.94,6.52.52.83,1.12,1.48,1.74,1.84-.07.55-.2,1.66-.2,1.66.8,1.21,1.74,2.35,2.58,3.5-1.54-3.89-3.09-7.83-4.68-11.85-10.05-25.93-20.48-49.33-31.42-76.01-5.87-14.48-11.3-28.47-16.55-42.24-5.25-13.72-11.39-26.34-17.4-39.06-6.06-12.69-11.85-25.55-17.8-39.13-4.68-10.37-15.83-28.52-21.64-37.95-2.03-3.12-3.27-5.06-3.98-6.22-.7-1.16-.89-1.51-.85-1.45.1.12.92,2.03,1.04,2.36,1.68,4.19,2.91,8.05,4.73,12.93,1.76,4.9,4.15,10.81,6.67,19.76-1.79-6.06-.67-4.03,1.41.91,2.06,4.95,5,12.84,5.9,18.92,1.19,8.84,4.3,18.83,8.38,28.93,4.02,10.13,8.97,20.4,12.17,30.54,1.59,5.08,3.94,10.17,6.22,16.07,10.2,31.3,25.09,57.97,39.04,89.45,3.87,8.26,8.83,14.83,12.92,21.42,2.65,4.96,4.45,10.72,6.43,14.84,3.13,6.46,6.35,11.78,9.54,16.84-3.13-5.84-5.62-10.02-9.04-16.56-2.21-4.4,3.45,2.21,5.23,4.98.92,1.12.21,3.82,1.15,4.93,1.31,2.73,3.15,4.96,4.93,7.72.91,1.12-.55,1.59-.09,2.15,2.25,3.85,5.41,6.19,6.24,8.92.71,2.03,1.36,3.87,1.99,5.66.45,1.11.91,2.2,1.5,3.32.44.66.89,1.35,1.34,2.04q.08-.74,0,0c3.21,4.96,6.64,10.8,9.66,16.3.02-.03.03-.08.05-.11-1.62-3.28-3.04-6.56-3.94-10.32.43,1.61.06,1.55-.79-.12-.01-.52-.03-1.04-.04-1.55,1.66,2.83,3.24,5.69,3.78,8.83,0,0,.8,1.17,1.19,1.76.29,1-.04,1.09-.2,1.41.32.64.65,1.28.98,1.93-.18-1.59-1.47-6.27-1.47-6.27Z"/>
        <path d="M216.92,273.53c.25.44.52.98.82,1.56-.89-2.19-1.78-4.39-2.67-6.59-.19,1.46.84,3.24,1.85,5.03Z"/>
      </g>
      <g class="cls-1">
        <path d="M934.71,61.58c-3.38-.04-6.78-.08-10.18-.13,1.71.07,3.4.16,5.13.3,2.22.1,3.38-.05,5.05-.17Z"/>
        <path d="M915.11,61.33c-.61,0-1.23-.02-1.8-.02-.55.02-1.07.04-1.55.06,1.11-.01,2.24-.02,3.35-.04Z"/>
        <path d="M897.38,61.41c3.13.07,6.13.06,9.03.03-2.56-.08-5.53-.11-9.03-.03Z"/>
        <path d="M911.51,61.71c-1.09-.13-1.62-.26.18-.34.02,0,.04,0,.07,0-1.77.02-3.52.05-5.35.07,1.91.06,3.62.16,5.1.27Z"/>
        <path d="M911.51,61.71c1.05.12,2.72.24,3.3.31-.96-.11-2.06-.21-3.3-.31Z"/>
        <path d="M907.04,64.69c-1.79.12-1.37-.74-4.9-.51-8.3.33-15.39.87-23.16.99-3.53.29-9.11-.8-12.64-.54-8.32.34-29.55,2.25-17.04,1.99,18.82-.57,31.09-.94,47.97-1.45,13.72-.6,26.91-1.17,40.96-1.57,3.94-.08,7.61-.07,11.31-.08-4.83-.04-9.77-.08-15.26-.12-7.22-.15-15.94.88-27.24,1.28Z"/>
        <path d="M1009.71,62.43c-1.76,0-5.31,0-5.31,0-7.9-.14-16.2-.22-24.5-.14,1.21.06,2.44.12,3.68.17,4.75-.02,5.3-.08,1.08-.17,9.66.23,18.79.19,28.15.19-.58-.02-.46-.03-3.1-.06Z"/>
        <path d="M1018.29,62.49c-1.84,0-3.68,0-5.49,0,.04,0,.13,0,.2,0,1.84,0,3.68,0,5.49,0-.06,0-.13,0-.2,0Z"/>
        <path d="M859.78,62.18c-23.58.01-45.77-.06-67.44-.23-1.67.27-2.83.59-5.07.43-1.69-.25-3.4-.41-5.09-.52-3.17-.03-6.33-.06-9.47-.09-1.1.04-2.21.07-3.34.11-.01,0-.07,0-.09,0-1.78.17-1.25.4-.15.62,1.23.16,2.35.34,3.31.54-.61-.12-2.24-.32-3.31-.54-1.49-.19-3.15-.34-5.1-.43-2.88.09-5.9.15-9.02.05,3.47-.18,6.45-.17,9.02-.05,1.83-.07,3.58-.13,5.34-.2.5-.04,1.01-.09,1.54-.13-7.23-.09-14.41-.17-21.6-.26-1.65.04-3.23.09-4.52.12-5.21.2-10.4.42-13.62-.37-1.27-.02-2.57-.04-3.86-.06.24.05.5.1.74.15-.57-.05-1.06-.1-1.45-.16-5.42-.08-23.51.44-27.16.69,0,0-6.8.51-9.75,0-5.16.3-11.84,0-17.21-.87,6.68-.73,12.3,0,17.21.87,2.48-.14,4.6-.42,6.08-.85,1.21.28,3.67.85,3.67.85,3.65-.24,7.29-.63,10.82-.94-10.67-.17-21.45-.34-32.47-.52-70.86-1.33-136.22-1.28-209.74-2.09-39.83-.5-78.09-1.21-115.62-1.99-37.42-.76-73.2-.26-109.07.07-35.87.4-71.84.47-109.65.41-29.02.07-82.89,2.91-110.86,4.39-9.37.59-15.18.94-18.61,1.11-2.98.14-3.69.17-4.26.19.39-.04,5.69-.02,6.57,0,11.52.16,21.79.61,35.04.91,13.26.38,29.5.59,52.98,1.92-15.99-.82-10.09-1.02,3.58-.92,13.67.13,35.11.63,50.21,2.27,21.85,2.5,48.35,3.71,76.13,4.07,27.78.43,56.84.07,83.79,1.26,13.48.61,27.8.53,43.91.83,83.53,3.37,161.14.57,248.96.57,23.28-.19,43.72-2.06,63.32-3.13,14.31-.41,29.61.28,41.25.14,18.3-.24,34.05-1.03,49.14-1.9-16.86.49-29.18,1.08-47.97,1.55-12.54.24,8.72-2.26,17.02-2.76,3.55-.38,9.13,1.36,12.69.95,7.73-.09,14.82-.87,23.12-1.38,3.56-.37,3.15,1.15,4.92.96,11.31-.49,20.02-2.43,27.25-2.09,5.48.17,10.43.33,15.26.48,3.05.04,6.08.06,9.31-.03,2-.13,4.07-.26,6.15-.4q-1.64-.38,0,0c14.89-.92,32.05-1.69,48.01-2.22-.06-.03-.15-.06-.21-.09-9.34.15-18.44.12-28.13-.58,4.19.26,3.67.58-1.1.67-1.22-.2-2.45-.4-3.66-.59,8.32-.37,16.62-.65,24.5.12,0,0,3.56-.25,5.32-.38,2.63.15,2.51.48,3.07.76,1.82-.04,3.66-.07,5.51-.11-3.89-.48-16.14-1.19-16.14-1.19Z"/>
        <path d="M763.82,62.04c1.27-.03,2.83-.07,4.5-.11-6.04-.08-12.07-.16-18.13-.23,3.21.76,8.41.55,13.64.35Z"/>
      </g>
      <g class="cls-1">
        <path d="M117.4,241.4c2.58.04,5.17.08,7.77.13-1.3-.07-2.59-.16-3.92-.3-1.69-.1-2.58.05-3.85.17Z"/>
        <path d="M132.35,241.66c.47,0,.94.02,1.38.02.42-.02.82-.04,1.18-.06-.85.01-1.71.02-2.56.04Z"/>
        <path d="M145.86,241.58c-2.39-.07-4.68-.06-6.88-.03,1.95.08,4.22.11,6.88.03Z"/>
        <path d="M135.09,241.28c.83.13,1.24.26-.13.34-.02,0-.03,0-.06,0,1.35-.02,2.68-.05,4.08-.07-1.46-.06-2.76-.16-3.89-.27Z"/>
        <path d="M135.09,241.28c-.8-.12-2.08-.24-2.51-.31.73.11,1.57.21,2.51.31Z"/>
        <path d="M138.5,238.29c1.36-.12,1.04.74,3.74.51,6.33-.33,11.74-.87,17.66-.99,2.69-.29,6.95.8,9.64.54,6.35-.34,22.54-2.25,13-1.99-14.35.57-23.71.94-36.58,1.45-10.46.6-20.52,1.17-31.24,1.57-3,.08-5.8.07-8.62.08,3.68.04,7.45.08,11.63.12,5.51.15,12.15-.88,20.77-1.28Z"/>
        <path d="M60.21,240.56c1.34,0,4.05,0,4.05,0,6.02.14,12.35.22,18.68.14-.92-.06-1.86-.12-2.81-.17-3.62.02-4.04.08-.83.17-7.37-.23-14.33-.19-21.46-.19.45.02.35.03,2.36.06Z"/>
        <path d="M53.66,240.49c1.4,0,2.81,0,4.18,0-.04,0-.1,0-.15,0-1.41,0-2.81,0-4.18,0h.15Z"/>
        <path d="M174.54,240.8c17.98-.01,34.9.06,51.43.23,1.27-.27,2.16-.59,3.87-.43,1.29.25,2.59.41,3.88.52,2.42.03,4.83.06,7.22.09.84-.04,1.68-.07,2.54-.11.01,0,.05,0,.07,0,1.35-.17.95-.4.11-.62-.94-.16-1.79-.34-2.53-.54.47.12,1.71.32,2.53.54,1.14.19,2.4.34,3.89.43,2.2-.09,4.5-.15,6.88-.05-2.64.18-4.92.17-6.88.05-1.39.07-2.73.13-4.07.2-.39.04-.77.09-1.17.13,5.51.09,10.99.17,16.47.26,1.26-.04,2.47-.07,3.45-.12,3.97-.2,7.93-.42,10.39.37.97.02,1.96.04,2.94.06-.18-.05-.38-.1-.57-.15.44.05.81.1,1.1.16,4.14.08,17.93-.44,20.71-.69,0,0,5.19-.51,7.43,0,3.93-.3,9.03,0,13.13.87-5.09.73-9.38,0-13.13-.87-1.89.14-3.51.42-4.64.85-.92-.28-2.8-.85-2.8-.85-2.78.24-5.56.63-8.25.94,8.14.17,16.35.34,24.76.52,54.04,1.33,103.87,1.28,159.94,2.09,30.37.5,59.55,1.21,88.16,1.99,28.53.76,55.82.26,83.17-.07,27.36-.4,54.78-.47,83.61-.41,22.13-.07,63.2-2.91,84.54-4.39,7.15-.59,11.58-.94,14.19-1.12,2.15-.13,2.73-.16,3.24-.19-.3.04-4.34.02-5.01,0-8.78-.16-16.61-.61-26.72-.91-10.11-.38-22.5-.59-40.4-1.92,12.19.82,7.69,1.02-2.73.92-10.42-.13-26.78-.63-38.29-2.27-16.66-2.5-36.87-3.71-58.05-4.07-21.18-.43-43.34-.07-63.89-1.26-10.28-.61-21.2-.53-33.48-.83-63.69-3.37-122.87-.57-189.84-.57-17.75.19-33.34,2.06-48.29,3.13-10.91.41-22.58-.28-31.45-.14-13.95.24-25.97,1.03-37.47,1.9,12.86-.49,22.25-1.08,36.58-1.55,9.56-.24-6.65,2.26-12.98,2.76-2.71.38-6.96-1.36-9.67-.95-5.89.09-11.3.87-17.63,1.38-2.71.37-2.4-1.15-3.75-.96-8.62.49-15.27,2.43-20.78,2.09-4.18-.17-7.96-.33-11.63-.48-2.33-.04-4.64-.06-7.1.03-1.53.13-3.11.26-4.69.4q1.25.38,0,0c-11.35.92-24.44,1.69-36.61,2.22.05.03.11.06.16.09,7.12-.15,14.06-.12,21.45.58-3.2-.26-2.8-.58.84-.67.93.2,1.87.4,2.79.59-6.34.37-12.67.65-18.68-.12,0,0-2.72.25-4.06.38-2.01-.15-1.92-.48-2.34-.76-1.39.04-2.79.07-4.2.11,2.96.48,12.31,1.19,12.31,1.19Z"/>
        <path d="M247.7,240.95c-.97.03-2.16.07-3.43.11,4.6.08,9.21.16,13.83.23-2.45-.76-6.42-.55-10.4-.35Z"/>
      </g>
    </g>
  </g>
</svg>