<?xml version="1.0" encoding="UTF-8"?>
<svg id="Lag_2" data-name="Lag 2" xmlns="http://www.w3.org/2000/svg" viewBox="0 0 1101.76 755.56">
  <defs>
    <style>
      .cls-1 {
        opacity: .85;
      }
    </style>
  </defs>
  <g id="Layer_3" data-name="Layer 3">
    <g>
      <g class="cls-1">
        <path d="M914.35,694.4c.04-2.47.08-4.95.13-7.43-.07,1.25-.16,2.48-.3,3.75-.1,1.62.05,2.47.17,3.69Z"/>
        <path d="M914.6,680.09c0-.45.02-.9.02-1.32-.02-.4-.04-.78-.06-1.13.01.81.02,1.63.04,2.45Z"/>
        <path d="M914.53,667.16c-.07,2.29-.06,4.48-.03,6.59.08-1.87.11-4.04.03-6.59Z"/>
        <path d="M914.22,677.46c.13-.79.26-1.19.34.13,0,.02,0,.03,0,.05-.02-1.29-.05-2.57-.07-3.9-.06,1.4-.16,2.65-.27,3.72Z"/>
        <path d="M914.22,677.46c-.12.77-.24,1.99-.31,2.41.11-.7.21-1.51.31-2.41Z"/>
        <path d="M911.24,674.2c-.12-1.31.74-1,.51-3.58-.33-6.06-.87-11.24-.99-16.91-.29-2.58.8-6.65.54-9.23-.34-6.08-2.25-21.57-1.99-12.44.57,13.73.94,22.69,1.45,35.02.6,10.02,1.17,19.65,1.57,29.9.08,2.87.07,5.55.08,8.26.04-3.53.08-7.13.12-11.14.15-5.27-.88-11.63-1.28-19.88Z"/>
        <path d="M913.51,749.15c0-1.28,0-3.88,0-3.88.14-5.77.22-11.83.14-17.88-.06.88-.12,1.78-.17,2.69.02,3.47.08,3.87.17.79-.23,7.05-.19,13.72-.19,20.55.02-.43.03-.34.06-2.26Z"/>
        <path d="M913.44,755.41c0-1.34,0-2.69,0-4,0,.03,0,.09,0,.14,0,1.35,0,2.69,0,4,0-.05,0-.1,0-.14Z"/>
        <path d="M913.75,639.71c-.01-17.21.06-33.41.23-49.23-.27-1.22-.59-2.07-.43-3.7.25-1.23.41-2.48.52-3.71.03-2.31.06-4.62.09-6.91-.04-.8-.07-1.61-.11-2.44,0-.01,0-.05,0-.07-.17-1.3-.4-.91-.62-.11-.16.9-.34,1.72-.54,2.42.12-.45.32-1.64.54-2.42.19-1.09.34-2.3.43-3.72-.09-2.11-.15-4.31-.05-6.58.18,2.53.17,4.71.05,6.58.07,1.33.13,2.61.2,3.9.04.37.09.74.13,1.12.09-5.27.17-10.52.26-15.77-.04-1.21-.07-2.36-.12-3.3-.2-3.8-.42-7.59.37-9.94.02-.93.04-1.87.06-2.82-.05.17-.1.37-.15.54.05-.42.1-.77.16-1.06.08-3.96-.44-17.16-.69-19.82,0,0-.51-4.97,0-7.12-.3-3.77,0-8.64.87-12.56.73,4.87,0,8.98-.87,12.56.14,1.81.42,3.36.85,4.44-.28.88-.85,2.68-.85,2.68.24,2.66.63,5.32.94,7.9.17-7.79.34-15.65.52-23.7,1.33-51.73,1.28-99.44,2.09-153.1.5-29.07,1.21-57,1.99-84.4.76-27.31.26-53.43-.07-79.62-.4-26.19-.47-52.44-.41-80.04-.07-21.18-2.91-60.5-4.39-80.92-.59-6.84-.94-11.08-1.12-13.58-.13-2.04-.16-2.59-.19-3.11.04.29.02,4.15,0,4.8-.16,8.41-.61,15.9-.91,25.58-.39,9.68-.59,21.53-1.92,38.67.82-11.67,1.02-7.37.92,2.61-.13,9.98-.63,25.63-2.27,36.65-2.5,15.95-3.71,35.29-4.07,55.57-.43,20.28-.07,41.49-1.26,61.16-.61,9.84-.53,20.29-.83,32.05-3.37,60.97-.57,117.62-.57,181.73.19,16.99,2.06,31.91,3.13,46.22.41,10.45-.28,21.61-.14,30.11.24,13.36,1.03,24.86,1.9,35.87-.49-12.31-1.08-21.3-1.55-35.02-.24-9.15,2.26,6.36,2.76,12.42.38,2.59-1.36,6.66-.95,9.26.09,5.64.87,10.82,1.38,16.87.37,2.6-1.15,2.3-.96,3.59.49,8.25,2.43,14.62,2.09,19.89-.17,4-.33,7.62-.48,11.14-.04,2.23-.06,4.44.03,6.79.13,1.46.26,2.97.4,4.49q.38-1.2,0,0c.92,10.87,1.69,23.39,2.22,35.05.03-.05.06-.11.09-.16-.15-6.81-.12-13.46.58-20.53-.26,3.06-.58,2.68-.67-.81.2-.89.4-1.79.59-2.67.37,6.07.65,12.13-.12,17.88,0,0,.25,2.6.38,3.89-.15,1.92-.48,1.84-.76,2.24.04,1.33.07,2.67.11,4.02.48-2.84,1.19-11.78,1.19-11.78Z"/>
        <path d="M913.9,569.67c.05.93.08,2.07.11,3.28.08-4.41.16-8.81.23-13.24-.76,2.34-.55,6.14-.35,9.96Z"/>
      </g>
      <g class="cls-1">
        <path d="M118.63,670.78c.04-2.42.08-4.87.13-7.31-.07,1.23-.16,2.44-.3,3.68-.1,1.59.05,2.43.17,3.62Z"/>
        <path d="M118.88,656.71c0-.44.02-.88.02-1.3-.02-.39-.04-.77-.06-1.11.01.8.02,1.61.04,2.4Z"/>
        <path d="M118.8,643.99c-.07,2.25-.06,4.4-.03,6.48.08-1.84.11-3.97.03-6.48Z"/>
        <path d="M118.5,654.13c.13-.78.26-1.17.34.13,0,.02,0,.03,0,.05-.02-1.27-.05-2.53-.07-3.84-.06,1.37-.16,2.6-.27,3.66Z"/>
        <path d="M118.5,654.13c-.12.75-.24,1.96-.31,2.37.11-.69.21-1.48.31-2.37Z"/>
        <path d="M115.52,650.92c-.12-1.28.74-.98.51-3.52-.33-5.95-.87-11.05-.99-16.62-.29-2.54.8-6.54.54-9.07-.34-5.97-2.25-21.21-1.99-12.23.57,13.5.94,22.31,1.45,34.43.6,9.85,1.17,19.31,1.57,29.4.08,2.82.07,5.46.08,8.12.04-3.47.08-7.01.12-10.95.15-5.18-.88-11.44-1.28-19.55Z"/>
        <path d="M117.78,724.6c0-1.26,0-3.81,0-3.81.14-5.67.22-11.63.14-17.58-.06.87-.12,1.75-.17,2.64.02,3.41.08,3.8.17.78-.23,6.93-.19,13.49-.19,20.2.02-.42.03-.33.06-2.22Z"/>
        <path d="M117.72,730.76c0-1.32,0-2.64,0-3.94,0,.03,0,.09,0,.14,0,1.32,0,2.64,0,3.94,0-.04,0-.1,0-.14Z"/>
        <path d="M118.03,617.01c-.01-16.92.06-32.85.23-48.4-.27-1.2-.59-2.03-.43-3.64.25-1.21.41-2.44.52-3.65.03-2.27.06-4.54.09-6.79-.04-.79-.07-1.58-.11-2.39,0-.01,0-.05,0-.06-.17-1.27-.4-.9-.62-.11-.16.88-.34,1.69-.54,2.38.12-.44.32-1.61.54-2.38.19-1.07.34-2.26.43-3.66-.09-2.07-.15-4.24-.05-6.47.18,2.49.17,4.63.05,6.47.07,1.31.13,2.57.2,3.83.04.36.09.73.13,1.1.09-5.19.17-10.34.26-15.5-.04-1.19-.07-2.32-.12-3.24-.2-3.74-.42-7.47.37-9.77.02-.91.04-1.84.06-2.77-.05.17-.1.36-.15.53.05-.41.1-.76.16-1.04.08-3.89-.44-16.87-.69-19.49,0,0-.51-4.88,0-7-.3-3.7,0-8.49.87-12.35.73,4.79,0,8.82-.87,12.35.14,1.78.42,3.3.85,4.36-.28.87-.85,2.63-.85,2.63.24,2.62.63,5.23.94,7.76.17-7.66.34-15.39.52-23.3,1.33-50.85,1.28-97.76,2.09-150.52.5-28.58,1.21-56.04,1.99-82.97.76-26.85.26-52.53-.07-78.27-.4-25.74-.47-51.56-.41-78.69-.07-20.83-2.91-59.48-4.39-79.56-.59-6.72-.94-10.9-1.12-13.35-.13-2-.16-2.55-.19-3.05.04.28.02,4.08,0,4.72-.16,8.27-.61,15.64-.91,25.15-.39,9.51-.59,21.17-1.92,38.02.82-11.47,1.02-7.24.92,2.57-.13,9.81-.63,25.2-2.27,36.03-2.5,15.68-3.71,34.7-4.07,54.63-.43,19.94-.07,40.79-1.26,60.13-.61,9.67-.53,19.95-.83,31.51-3.37,59.94-.57,115.64-.57,178.66.19,16.7,2.06,31.38,3.13,45.44.41,10.27-.28,21.25-.14,29.6.24,13.13,1.03,24.44,1.9,35.26-.49-12.1-1.08-20.94-1.55-34.42-.24-9,2.26,6.25,2.76,12.21.38,2.55-1.36,6.55-.95,9.1.09,5.54.87,10.64,1.38,16.59.37,2.55-1.15,2.26-.96,3.53.49,8.11,2.43,14.37,2.09,19.55-.17,3.93-.33,7.49-.48,10.95-.04,2.19-.06,4.36.03,6.68.13,1.44.26,2.92.4,4.41q.38-1.18,0,0c.92,10.68,1.69,23,2.22,34.45.03-.05.06-.11.09-.15-.15-6.7-.12-13.23.58-20.18-.26,3.01-.58,2.64-.67-.79.2-.88.4-1.76.59-2.63.37,5.97.65,11.93-.12,17.58,0,0,.25,2.56.38,3.82-.15,1.89-.48,1.8-.76,2.2.04,1.31.07,2.63.11,3.95.48-2.79,1.19-11.58,1.19-11.58Z"/>
        <path d="M118.18,548.15c.05.91.08,2.03.11,3.23.08-4.33.16-8.66.23-13.01-.76,2.3-.55,6.04-.35,9.79Z"/>
      </g>
      <g class="cls-1">
        <path d="M1012.3,80.86c-3.61-.04-7.24-.08-10.87-.13,1.83.07,3.63.16,5.48.3,2.37.1,3.61-.05,5.39-.17Z"/>
        <path d="M991.37,80.6c-.66,0-1.32-.02-1.93-.02-.58.02-1.15.04-1.65.06,1.19-.01,2.39-.02,3.58-.04Z"/>
        <path d="M972.44,80.68c3.34.07,6.55.06,9.64.03-2.73-.08-5.9-.11-9.64-.03Z"/>
        <path d="M987.52,80.98c-1.16-.13-1.73-.26.19-.34.02,0,.05,0,.08,0-1.89.02-3.76.05-5.71.07,2.04.06,3.87.16,5.44.27Z"/>
        <path d="M987.52,80.98c1.12.12,2.91.24,3.52.31-1.02-.11-2.2-.21-3.52-.31Z"/>
        <path d="M982.75,83.97c-1.91.12-1.46-.74-5.24-.51-8.86.33-16.44.87-24.73.99-3.77.29-9.73-.8-13.5-.54-8.89.34-31.56,2.25-18.2,1.99,20.09-.57,33.19-.94,51.22-1.45,14.65-.6,28.74-1.17,43.74-1.57,4.2-.08,8.12-.07,12.08-.08-5.16-.04-10.43-.08-16.29-.12-7.71-.15-17.02.88-29.08,1.28Z"/>
        <path d="M1092.38,81.7c-1.88,0-5.67,0-5.67,0-8.44-.14-17.3-.22-26.16-.14,1.29.06,2.6.12,3.93.17,5.07-.02,5.66-.08,1.16-.17,10.31.23,20.07.19,30.06.19-.62-.02-.5-.03-3.31-.06Z"/>
        <path d="M1101.55,81.76c-1.96,0-3.93,0-5.86,0,.05,0,.14,0,.21,0,1.97,0,3.93,0,5.86,0-.07,0-.14,0-.21,0Z"/>
        <path d="M932.29,81.46c-25.17.01-48.87-.06-72.01-.23-1.78.27-3.03.59-5.42.43-1.8-.25-3.63-.41-5.43-.52-3.38-.03-6.76-.06-10.11-.09-1.17.04-2.36.07-3.56.11-.02,0-.07,0-.1,0-1.9.17-1.33.4-.16.62,1.31.16,2.51.34,3.54.54-.65-.12-2.39-.32-3.54-.54-1.59-.19-3.37-.34-5.44-.43-3.08.09-6.3.15-9.63.05,3.7-.18,6.89-.17,9.63-.05,1.95-.07,3.82-.13,5.7-.2.54-.04,1.08-.09,1.64-.13-7.72-.09-15.38-.17-23.06-.26-1.77.04-3.45.09-4.83.12-5.56.2-11.11.42-14.54-.37-1.36-.02-2.74-.04-4.12-.06.26.05.54.1.79.15-.61-.05-1.13-.1-1.55-.16-5.79-.08-25.1.44-29,.69,0,0-7.27.51-10.41,0-5.51.3-12.64,0-18.38-.87,7.13-.73,13.13,0,18.38.87,2.65-.14,4.91-.42,6.49-.85,1.29.28,3.92.85,3.92.85,3.89-.24,7.78-.63,11.55-.94-11.39-.17-22.9-.34-34.67-.52-75.67-1.33-145.45-1.28-223.96-2.09-42.53-.5-83.38-1.21-123.45-1.99-39.96-.76-78.16-.26-116.46.07-38.31.4-76.71.47-117.08.41-30.99.07-88.5,2.91-118.38,4.39-9.98.56-16.18.91-19.87,1.12-3.22.14-3.97.17-4.54.19.42-.04,6.08-.02,7.02,0,12.3.16,23.26.61,37.42.91,14.15.38,31.5.59,56.57,1.92-17.07-.82-10.77-1.02,3.82-.92,14.6.13,37.49.63,53.62,2.27,23.33,2.5,51.63,3.71,81.29,4.07,29.66.43,60.69.07,89.47,1.26,14.39.61,29.68.53,46.89.83,89.19,3.37,172.06.57,265.83.57,24.86-.19,46.69-2.06,67.62-3.13,15.28-.41,31.62.28,44.04.14,19.54-.24,36.36-1.03,52.47-1.9-18,.49-31.15,1.08-51.22,1.55-13.39.24,9.31-2.26,18.17-2.76,3.79-.38,9.75,1.36,13.55.95,8.25-.09,15.83-.87,24.68-1.38,3.8-.37,3.36,1.15,5.25.96,12.07-.49,21.38-2.43,29.09-2.09,5.85.17,11.14.33,16.29.48,3.26.04,6.49.06,9.94-.03,2.14-.13,4.35-.26,6.57-.4q-1.76-.38,0,0c15.89-.92,34.22-1.69,51.26-2.22-.07-.03-.16-.07-.23-.09-9.97.15-19.69.12-30.03-.58,4.47.26,3.92.58-1.18.67-1.31-.2-2.62-.4-3.91-.59,8.88-.37,17.75-.65,26.16.12,0,0,3.8-.25,5.68-.38,2.81.15,2.68.48,3.28.76,1.94-.04,3.91-.07,5.88-.11-4.15-.48-17.23-1.19-17.23-1.19Z"/>
        <path d="M829.83,81.31c1.36-.03,3.02-.07,4.8-.11-6.44-.08-12.89-.16-19.36-.23,3.43.76,8.98.55,14.56.35Z"/>
      </g>
      <g class="cls-1">
        <path d="M1002.93,617.48c-3.62-.04-7.28-.08-10.93-.13,1.84.07,3.65.16,5.51.3,2.38.1,3.63-.05,5.42-.17Z"/>
        <path d="M981.89,617.22c-.66,0-1.32-.02-1.94-.02-.59.02-1.15.04-1.66.06,1.19-.01,2.4-.02,3.6-.04Z"/>
        <path d="M962.88,617.3c3.36.07,6.58.06,9.69.03-2.74-.08-5.93-.11-9.69-.03Z"/>
        <path d="M978.03,617.6c-1.17-.13-1.74-.26.19-.34.02,0,.05,0,.08,0-1.9.02-3.78.05-5.74.07,2.05.06,3.89.16,5.47.27Z"/>
        <path d="M978.03,617.6c1.13.12,2.92.24,3.54.31-1.03-.11-2.22-.21-3.54-.31Z"/>
        <path d="M973.24,620.59c-1.92.12-1.47-.74-5.26-.51-8.9.33-16.52.87-24.85.99-3.79.29-9.78-.8-13.57-.54-8.93.34-31.71,2.25-18.29,1.99,20.19-.57,33.36-.94,51.47-1.45,14.72-.6,28.88-1.17,43.95-1.57,4.22-.08,8.16-.07,12.14-.08-5.18-.04-10.49-.08-16.37-.12-7.75-.15-17.1.88-29.22,1.28Z"/>
        <path d="M1083.4,618.32c-1.89,0-5.7,0-5.7,0-8.48-.14-17.38-.22-26.29-.14,1.29.06,2.61.12,3.95.17,5.09-.02,5.68-.08,1.16-.17,10.36.23,20.16.19,30.2.19-.63-.02-.5-.03-3.33-.06Z"/>
        <path d="M1092.61,618.39c-1.97,0-3.95,0-5.89,0,.05,0,.14,0,.21,0,1.98,0,3.95,0,5.89,0-.07,0-.14,0-.21,0Z"/>
        <path d="M922.53,618.08c-25.3.01-49.11-.06-72.36-.23-1.79.27-3.04.59-5.44.43-1.81-.25-3.64-.41-5.46-.52-3.4-.03-6.79-.06-10.16-.09-1.18.04-2.37.07-3.58.11-.02,0-.07,0-.1,0-1.91.17-1.34.4-.16.62,1.32.16,2.52.34,3.55.54-.66-.12-2.4-.32-3.55-.54-1.6-.19-3.38-.34-5.47-.43-3.09.09-6.33.15-9.67.05,3.72-.18,6.92-.17,9.67-.05,1.96-.07,3.84-.13,5.73-.2.54-.04,1.09-.09,1.65-.13-7.75-.09-15.46-.17-23.17-.26-1.78.04-3.47.09-4.85.12-5.59.2-11.16.42-14.61-.37-1.36-.02-2.75-.04-4.14-.06.26.05.54.1.8.15-.61-.05-1.13-.1-1.55-.16-5.82-.08-25.23.44-29.14.69,0,0-7.3.51-10.46,0-5.54.3-12.7,0-18.47-.87,7.16-.73,13.19,0,18.47.87,2.66-.14,4.93-.42,6.52-.85,1.3.28,3.93.85,3.93.85,3.91-.24,7.82-.63,11.61-.94-11.45-.17-23.01-.34-34.83-.52-76.04-1.33-146.16-1.28-225.05-2.09-42.74-.5-83.79-1.21-124.06-1.99-40.15-.76-78.54-.26-117.03.07-38.49.4-77.09.47-117.65.41-31.14.07-88.94,2.91-118.95,4.39-10.03.56-16.26.91-19.96,1.12-3.24.14-3.99.17-4.57.19.42-.04,6.11-.02,7.05,0,12.36.16,23.38.61,37.6.91,14.22.38,31.65.59,56.84,1.92-17.16-.82-10.83-1.02,3.84-.92,14.67.13,37.68.63,53.88,2.27,23.44,2.5,51.88,3.71,81.69,4.07,29.81.43,60.98.07,89.91,1.26,14.46.61,29.83.53,47.12.83,89.63,3.37,172.9.57,267.13.57,24.98-.19,46.91-2.06,67.95-3.13,15.36-.41,31.77.28,44.26.14,19.63-.24,36.54-1.03,52.72-1.9-18.09.49-31.31,1.08-51.47,1.55-13.45.24,9.35-2.26,18.26-2.76,3.81-.38,9.8,1.36,13.61.95,8.29-.09,15.9-.87,24.8-1.38,3.82-.37,3.37,1.15,5.28.96,12.13-.49,21.48-2.43,29.24-2.09,5.88.17,11.19.33,16.37.48,3.27.04,6.52.06,9.98-.03,2.15-.13,4.37-.26,6.6-.4q-1.76-.38,0,0c15.97-.92,34.39-1.69,51.51-2.22-.07-.03-.16-.07-.23-.09-10.02.15-19.78.12-30.18-.58,4.5.26,3.94.58-1.18.67-1.31-.2-2.63-.4-3.93-.59,8.93-.37,17.83-.65,26.29.12,0,0,3.82-.25,5.71-.38,2.83.15,2.7.48,3.29.76,1.95-.04,3.93-.07,5.91-.11-4.17-.48-17.32-1.19-17.32-1.19Z"/>
        <path d="M819.57,617.93c1.36-.03,3.04-.07,4.82-.12-6.48-.08-12.95-.16-19.46-.23,3.44.76,9.03.55,14.64.35Z"/>
      </g>
    </g>
  </g>
</svg>