<?xml version="1.0" encoding="UTF-8"?>
<svg id="Lag_2" data-name="Lag 2" xmlns="http://www.w3.org/2000/svg" viewBox="0 0 180.26 254.43">
  <defs>
    <style>
      .cls-1 {
        fill: #ebebeb;
      }

      .cls-2 {
        fill: #2965f1;
      }

      .cls-3 {
        fill: #fff;
      }

      .cls-4 {
        fill: #f9f9f9;
      }

      .cls-5 {
        fill: #264de4;
      }
    </style>
  </defs>
  <g id="Layer_2" data-name="Layer 2">
    <g>
      <path class="cls-5" d="M90.02,254.43l-73.61-20.44L0,50h180.26l-16.42,183.97-73.82,20.46h0Z"/>
      <path class="cls-2" d="M149.78,222.26l14.03-157.21h-73.68v173.75l59.65-16.54h0Z"/>
      <path class="cls-1" d="M37.61,133.29l2.02,22.57h50.5v-22.57h-52.52Z"/>
      <path class="cls-1" d="M33.54,87.61l2.05,22.57h54.53v-22.57h-56.59Z"/>
      <path class="cls-1" d="M90.13,191.9l-.1.03-25.13-6.79-1.61-18h-22.65l3.16,35.43,46.23,12.83.1-.03v-23.48h0Z"/>
      <path class="cls-4" d="M42.42,0h27.33v11.43h-15.9v11.43h15.9v11.43h-27.33V0h0Z"/>
      <path class="cls-4" d="M75.22,0h27.33v9.94h-15.9v1.99h15.9v22.86h-27.33v-10.44h15.9v-1.99h-15.9V0h0Z"/>
      <path class="cls-4" d="M108.02,0h27.33v9.94h-15.9v1.99h15.9v22.86h-27.33v-10.44h15.9v-1.99h-15.9V0h0Z"/>
      <path class="cls-3" d="M142.51,133.29l4.07-45.67h-56.53v22.57h31.8l-2.05,23.11h-29.74v22.57h27.79l-2.62,29.27-25.17,6.79v23.48l46.26-12.82.34-3.81,5.3-59.41.55-6.06h0Z"/>
    </g>
  </g>
</svg>