<?xml version="1.0" encoding="UTF-8"?>
<svg id="Lag_2" data-name="Lag 2" xmlns="http://www.w3.org/2000/svg" viewBox="0 0 377.64 336.38">
  <defs>
    <style>
      .cls-1, .cls-2 {
        stroke: #000;
        stroke-linecap: round;
        stroke-miterlimit: 10;
        stroke-width: 16px;
      }

      .cls-3 {
        fill: #fff;
      }

      .cls-2 {
        fill: none;
      }
    </style>
  </defs>
  <g id="Layer_2" data-name="Layer 2">
    <path class="cls-3" d="M373.21,93.35c.17-2.16.19-4.33.03-6.49-1.25-16.29-13.64-28.46-25.86-37.86-6.55-5.04-14.05-8.64-22.29-9.77-8.1-1.11-16.38,0-24.33,1.64-5.01,1.03-9.97,2.24-14.88,3.68-4.79,1.4-9.64,2.75-14.35,4.41-2.44.86-4.9,2.19-7.52,2.38-2.56.18-4.68-1.39-6.5-2.99-1.45-1.28-2.76-2.7-4.2-4-1.57-1.41-3.13-2.83-4.69-4.25-3-2.72-5.99-5.45-9.02-8.13-5.38-4.76-10.9-9.38-16.92-13.32-5.85-3.82-12.1-6.92-18.79-8.95-7.79-2.36-15.88-3.26-24-3.27-1.42,0-2.21-.97-2.38-2.06-3,.55-5.97,1.29-8.91,2.25-9.67,3.16-19.2,7.2-28.37,11.6-8.91,4.27-17.52,9.19-25.52,15-7.97,5.78-15.28,12.45-21.76,19.87-6.49,7.43-12.39,15.36-19.16,22.54-3.16,3.35-6.54,6.5-10.28,9.21-3.64,2.63-7.68,4.74-11.62,6.88-7.45,4.05-15.15,7.9-21.7,13.34-7.58,6.3-13.28,14.38-17.38,23.3-2.95,6.42-5.15,13.14-7.38,19.84v58.02c.58,2.13,1.13,4.27,1.75,6.39.81.08,1.59.52,2.02,1.21,2.31,3.71,4.39,7.56,6.48,11.4,4.19,7.7,8.47,15.59,14.85,21.73,3.22,3.1,6.86,5.5,11.04,7.1,4.27,1.64,8.73,2.69,13.2,3.6,9.15,1.88,18.56,3.34,26.78,8.06,2.17,1.25,4.26,2.72,6.14,4.38,1.93,1.69,3.69,3.6,5.56,5.36,3.63,3.42,7.38,6.71,11.25,9.86,7.6,6.18,15.7,11.72,23.97,16.96,2.99,1.9,5.98,3.78,8.93,5.74,8.45.63,16.79,2.27,24.98,4.42,14.8,3.87,29.2,9.29,44.24,12.27,7.23,1.43,14.58,2.21,21.95,1.9,2.47-.1,4.92-.36,7.35-.72,7.58-1.74,15.01-4.11,22.26-6.89,16.59-6.36,32.47-14.94,46.82-25.42,6.82-4.98,13.3-10.48,19.12-16.61,5.45-5.74,10.43-11.97,13.6-19.29,3.57-8.27,5.5-18.03,4.09-27.01-.69-4.41-2.39-8.36-4.38-12.32-1.94-3.88-3.59-7.81-3.67-12.22-.08-4.89,1.83-9.32,3.6-13.77.85-2.13,1.64-4.28,2.14-6.52.53-2.4.52-4.83.63-7.28.32-7.02.5-14.29,3.11-20.91,3.42-8.7,9.18-16.45,14.39-24.12,5.68-8.36,11.4-16.7,16.74-25.28v-12.82c-.7-.45-1.21-1.23-1.15-2.08Z"/>
    <g>
      <g>
        <path class="cls-2" d="M69.14,91.31c11.64-24.57,28.27-47.24,50.49-62.91,22.22-15.67,50.38-23.82,77.14-19.03,26.76,4.79,50.7,20.87,57.32,49.36,13.73-11.78,29.63-18.91,47.61-20.91,17.98-2,41.45,3.36,52.85,17.42,8.85,10.92,16.23,27.93,14.95,41.93s-6.82,27.76-14.05,39.82c-12.27,20.45-36.39,36.46-56.82,48.76"/>
        <path class="cls-2" d="M330.99,163.68c7.81,8.86,9.91,14.21,6.13,25.39-3.79,11.18-8.11,17.18-16.08,25.89-5.7,6.23-12.73,11.27-20.44,14.69"/>
        <path class="cls-2" d="M333.95,210.37c10.48,10.95,11.38,28.59,5.68,42.63-5.7,14.05-16.85,25.13-28.46,34.89-25.4,21.35-55.9,38.79-89.04,40.37-20.69.99-41.17-4.25-60.88-10.62-11.57-3.74-23.06-7.91-33.67-13.87-19.58-10.99-35.33-27.58-50.32-44.29"/>
        <path class="cls-2" d="M106.45,163.68c0-18.91-5.34-36.58-16.38-51.25-6.17-8.19-16.61-16.44-26.77-17.79-6.03-.81-12.16.99-17.56,3.81-17.75,9.24-28.09,28.54-33.31,47.85-8.35,30.86-5.48,66.06,13.77,91.58,2.91,3.85,6.17,7.47,10.01,10.38,2.91,2.21,6.13,3.99,9.48,5.44,15.25,6.58,33.97,5.65,47.49-3.99,13.52-9.64,15.01-27.91,15.01-43.95"/>
      </g>
      <path class="cls-2" d="M209.43,188.48c-13.28.82-24.92-2.01-37.66-5.22-4.82-1.21-10.45-3.01-15.54-5.58"/>
      <path class="cls-2" d="M204.89,226.1c-17.38.88-33.24-5.25-48.65-13.21"/>
      <path class="cls-2" d="M197.84,257.83c-10.23,1.33-20.29-.33-29.94-3.55-4.68-1.56-8.49-3.67-14.07-6.07"/>
      <path class="cls-1" d="M55.12,143.73c4.2,1.15,8.47,4.9,10.75,8.61,8.13,13.25,10.78,28.98,9.96,44.5-.36,6.87-1.77,13.98-5.99,19.41-4.22,5.43-11.84,8.67-18.23,6.12-5.69-2.27-10.29-8.93-12.23-14.74-5.17-15.48-5.6-25.49-4.17-41.75.34-3.88,3.5-14.08,5.84-17.2,3.13-4.17,8.9-6.38,14.06-4.97Z"/>
      <path class="cls-2" d="M217.96,50.7c10.01,8.89,21.63,17.08,34.96,18.32,5.63.52,11.3-.22,16.94.04,5.64.26,11.58,1.73,15.48,5.82"/>
    </g>
  </g>
</svg>