<?xml version="1.0" encoding="UTF-8"?>
<svg id="Lag_2" data-name="Lag 2" xmlns="http://www.w3.org/2000/svg" viewBox="0 0 173.7 245.17">
  <defs>
    <style>
      .cls-1 {
        fill: #ebebeb;
      }

      .cls-2 {
        fill: #f16529;
      }

      .cls-3 {
        fill: #e44d26;
      }

      .cls-4 {
        fill: #fff;
      }

      .cls-5 {
        fill: #f9f9f9;
      }
    </style>
  </defs>
  <g id="Layer_2" data-name="Layer 2">
    <g>
      <path class="cls-3" d="M173.7,48.18l-15.82,177.27-71.13,19.72-70.93-19.69L0,48.18h173.7Z"/>
      <path class="cls-2" d="M86.85,230.1l57.48-15.93,13.52-151.49h-71v167.42h0Z"/>
      <path class="cls-1" d="M56.09,106.17h30.76v-21.75h-54.53l.52,5.83,5.34,59.92h48.66v-21.74h-28.77l-1.99-22.27h0Z"/>
      <path class="cls-1" d="M60.99,161.05h-21.83l3.05,34.14,44.54,12.37.1-.03v-22.62l-.1.03-24.22-6.54-1.55-17.34h0Z"/>
      <path class="cls-5" d="M16.16,0h11.05v10.92h10.11V0h11.05v33.06h-11.05v-11.07h-10.11v11.07h-11.05V0h0Z"/>
      <path class="cls-5" d="M62.9,10.96h-9.73V0h30.51v10.96h-9.73v22.1h-11.05V10.96h0Z"/>
      <path class="cls-5" d="M88.53,0h11.52l7.09,11.62,7.08-11.62h11.53v33.06h-11v-16.39l-7.6,11.76h-.19l-7.61-11.76v16.39h-10.81V0h0Z"/>
      <path class="cls-5" d="M131.25,0h11.05v22.13h15.54v10.93h-26.59V0h0Z"/>
      <path class="cls-4" d="M86.77,150.18h26.78l-2.52,28.2-24.25,6.55v22.62l44.58-12.35.33-3.67,5.11-57.25.53-5.84h-50.55v21.74h0Z"/>
      <path class="cls-4" d="M86.77,106.12v.05h52.52l.44-4.89.99-11.02.52-5.83h-54.47v21.69h0Z"/>
    </g>
  </g>
</svg>