<?xml version="1.0" encoding="UTF-8"?>
<svg id="Lag_2" data-name="Lag 2" xmlns="http://www.w3.org/2000/svg" viewBox="0 0 176.36 248.34">
  <defs>
    <style>
      .cls-1 {
        fill: #e4a126;
      }

      .cls-2 {
        fill: #eaebec;
      }

      .cls-3 {
        fill: #fff;
      }

      .cls-4 {
        fill: #f9f9f9;
      }

      .cls-5 {
        fill: #f0be25;
      }
    </style>
  </defs>
  <g id="Layer_2" data-name="Layer 2">
    <g>
      <path id="path118" class="cls-3" d="M.59,48.53l.03,2.22c.02,1.22,3.55,41.64,7.86,89.81l7.83,87.59,35.2,9.85c19.36,5.42,35.6,9.88,36.08,9.92.49.03,16.94-4.38,36.56-9.82,31.46-8.71,35.7-10.02,35.93-11.1.31-1.5,15.72-175.28,15.7-177.14v-1.33H.59Z"/>
      <path id="path88" class="cls-2" d="M51.78,238.59l-35.51-9.93-.46-2.63C15.4,223.71,0,51.72,0,49.45c0-.82,8.99-.92,88.18-.92,83.59,0,88.18.05,88.18,1.04-.03,4.24-15.97,178.51-16.36,178.85-.49.44-69.22,19.59-71.52,19.93-.65.1-17.16-4.29-36.69-9.75h0ZM110.57,203.52c11.94-3.29,21.87-6.15,22.08-6.36s1.61-14.36,3.1-31.45c1.5-17.09,2.87-32.2,3.06-33.59l.34-2.52h-51.56v21.9h27.84l-.28,1.33c-.15.73-.74,7.03-1.32,13.99-.61,7.37-1.32,12.94-1.72,13.34-.37.37-6.05,2.11-12.6,3.86l-11.92,3.18v11.15c0,7.61.2,11.15.64,11.15.35,0,10.41-2.69,22.34-5.98h0ZM138.81,115.85c-.39-2.9-3.88-41.8-3.88-43.26,0-.89-2.05-.98-23.38-.98h-23.38v22.9l10.5.4c5.78.22,11.86.56,13.51.75l3.01.35.73,8.96c.4,4.93.88,9.95,1.06,11.17l.33,2.22h21.82l-.34-2.52Z"/>
      <path id="path80" class="cls-5" d="M51.51,238l-35.2-9.85-7.83-87.59C4.17,92.38.63,51.97.62,50.75l-.03-2.22h175.18v1.33c.03,1.86-15.38,175.64-15.69,177.14-.23,1.08-4.47,2.39-35.93,11.1-19.62,5.43-36.07,9.85-36.56,9.82-.49-.03-16.73-4.5-36.08-9.92h0ZM110.6,203.94c12.17-3.38,22.29-6.43,22.51-6.77.21-.34,1.66-15.22,3.23-33.05,1.57-17.84,2.97-32.9,3.13-33.47.27-.98-1.8-1.04-37.51-1.04h-37.8l1.61-17.01c.89-9.36,1.63-17.04,1.66-17.07.03-.03,5.57-.21,12.33-.39,11.07-.31,33.91.58,34.68,1.34.29.29,2.16,18.71,2.16,21.22,0,1.24.17,1.26,11.47,1.26h11.47l-.27-2.52c-.15-1.38-1.12-12.1-2.16-23.82l-1.89-21.31-44.23-.15c-35.18-.12-44.23,0-44.23.59,0,.41-.26,3.01-.57,5.77-.76,6.7-6.52,71.38-6.52,73.17v1.4h75.27l-.34,2.22c-.18,1.22-.77,7.41-1.3,13.76s-1.14,11.7-1.34,11.9c-.55.53-22.69,6.44-24.07,6.43-.64,0-6.36-1.43-12.71-3.17l-11.54-3.16-.42-4.97c-.23-2.73-.59-6.63-.79-8.67l-.36-3.7h-22.4l.02,2.22c.05,4.15,2.74,32.11,3.13,32.5.45.45,43.46,12.54,44.78,12.59.49.02,10.84-2.74,23.01-6.12h0Z"/>
      <path id="path78" class="cls-1" d="M51.51,238l-35.2-9.85-7.83-87.59C4.17,92.38.63,51.97.62,50.75l-.03-2.22h175.18v1.33c.03,1.86-15.38,175.64-15.69,177.14-.23,1.08-4.47,2.39-35.93,11.1-19.62,5.43-36.07,9.85-36.56,9.82-.49-.03-16.73-4.5-36.08-9.92h0ZM117.14,224.82c15.48-4.27,28.44-8.07,28.8-8.43.55-.57,13.93-147.12,13.87-152.03l-.02-1.63h-71.61v8.29h-20.71c-16.17,0-20.71.16-20.72.74,0,.41-.26,3-.57,5.77-.76,6.7-6.52,71.38-6.52,73.17v1.4h48.53v17.16c0,13.34-.16,17.16-.74,17.15-.41,0-5.93-1.43-12.28-3.17l-11.54-3.16-.42-4.97c-.23-2.73-.59-6.63-.79-8.67l-.36-3.7h-22.4l.02,2.22c.07,6.35,2.82,32.26,3.46,32.66.39.24,10.69,3.2,22.88,6.57l22.17,6.13v11.13c0,6.12.18,11.13.41,11.13s13.07-3.5,28.56-7.77h0ZM65.7,112.75c.85-9.27,1.66-16.96,1.8-17.09.14-.13,4.85-.36,10.47-.52l10.21-.28v34.74h-24.03l1.55-16.86Z"/>
      <path id="path76" class="cls-4" d="M56.22,27.52v-5.62h15.98V0h11.24v33.14h-27.22v-5.62ZM88.77,28.7v-4.44h7.4c4.07,0,7.4-.15,7.4-.33s-3.33-3.94-7.4-8.35l-7.4-8.02V0h30.77v8.84l-7.22.17-7.22.17,7.52,8.1,7.52,8.1v7.77h-31.37v-4.44Z"/>
    </g>
  </g>
</svg>