<?xml version="1.0" encoding="UTF-8"?>
<svg id="Lag_2" data-name="Lag 2" xmlns="http://www.w3.org/2000/svg" viewBox="0 0 200.95 250.63">
  <defs>
    <style>
      .cls-1 {
        fill: #c1272d;
      }
    </style>
  </defs>
  <g id="Layer_3" data-name="Layer 3">
    <g>
      <rect x="108.79" y="80.08" width="46.48" height="15.49" transform="translate(-10.39 18.1) rotate(-7.55)"/>
      <rect x="128.93" y="232.15" width="46.48" height="15.49" transform="translate(-30.18 22.06) rotate(-7.55)"/>
      <path class="cls-1" d="M87.24,174.44l2.85,21.51c.14,1.09.36,2.15.59,3.21l110.27-14.61c-.05-1.08-.12-2.16-.27-3.25l-2.85-21.5-110.54,14.64s-.04,0-.06,0Z"/>
      <path class="cls-1" d="M193.53,128.57l-110.27,14.61c.05,1.08.12,2.16.27,3.25l2.85,21.51s.03-.02.05-.02l110.54-14.64-2.85-21.5c-.14-1.09-.36-2.15-.59-3.21Z"/>
      <path d="M151.71,99.29l-35.7,4.73c-17.3,2.29-30.26,15.96-32.45,32.47l107.94-14.3c-6.41-15.37-22.48-25.2-39.79-22.91Z"/>
      <path d="M132.49,228.44l35.7-4.73c17.3-2.29,30.26-15.96,32.45-32.47l-107.94,14.3c6.41,15.37,22.48,25.2,39.79,22.91Z"/>
      <path d="M132.18,78.63c-7.33-11.27-8.67-23.27-9.5-36.38-.82-12.91-1.17-25.87,2.02-38.51.94-3.75-4.84-5.34-5.79-1.6-3.47,13.78-3.04,27.89-2.11,41.95s2.66,25.97,10.2,37.57c2.1,3.23,7.29.22,5.18-3.03h0Z"/>
    </g>
    <g>
      <rect x="32.74" y="117.02" width="33.62" height="11.21" transform="translate(16 -5.31) rotate(7.31)"/>
      <rect x="18.63" y="227.06" width="33.62" height="11.21" transform="translate(29.89 -2.62) rotate(7.31)"/>
      <path class="cls-1" d="M2.18,174.86l-2,15.56c-.1.79-.15,1.57-.18,2.35l79.79,10.24c.16-.76.32-1.53.42-2.32l2-15.56L2.22,174.88s-.02-.01-.04-.01Z"/>
      <path class="cls-1" d="M84.99,162.51l-79.79-10.24c-.16.76-.32,1.53-.42,2.32l-2,15.57s.03,0,.04,0l79.99,10.26,2-15.56c.1-.79.15-1.57.18-2.35Z"/>
      <path d="M61.19,134.28l-25.83-3.31c-12.52-1.61-24.11,5.55-28.71,16.68l78.1,10.02c-1.63-11.94-11.05-21.78-23.56-23.39Z"/>
      <path d="M23.8,221l25.83,3.31c12.52,1.61,24.11-5.55,28.71-16.68L.24,197.61c1.63,11.94,11.05,21.78,23.56,23.39Z"/>
      <path d="M52.49,118.18c6.74-14.54,12.74-29.42,17.84-44.61,4.86-14.5,10.26-29.86,11.55-45.19.32-3.85-5.68-3.83-6,0-1.24,14.73-6.67,29.66-11.34,43.6-4.93,14.71-10.71,29.11-17.23,43.18-1.61,3.48,3.56,6.53,5.18,3.03h0Z"/>
    </g>
  </g>
</svg>