<?xml version="1.0" encoding="UTF-8"?>
<svg id="Lag_2" data-name="Lag 2" xmlns="http://www.w3.org/2000/svg" viewBox="0 0 925.15 263">
  <defs>
    <style>
      .cls-1 {
        fill: #f9f9f9;
        stroke: #000;
        stroke-miterlimit: 10;
      }

      .cls-2 {
        opacity: .85;
      }
    </style>
  </defs>
  <g id="Layer_1" data-name="Layer 1">
    <g>
      <polygon class="cls-1" points="801.55 175.69 837.93 46.69 181.93 46.69 270.71 175.69 801.55 175.69"/>
      <g class="cls-2">
        <path d="M307.22,226.03c-.51-.79-1.03-1.59-1.54-2.38.23.42.44.85.63,1.3.29.55.57.75.91,1.08Z"/>
        <path d="M304.26,221.44c-.09-.14-.19-.29-.27-.42-.1-.12-.2-.23-.28-.33l.55.75Z"/>
        <path d="M301.39,217.41c.45.75.94,1.43,1.42,2.08-.35-.62-.81-1.31-1.42-2.08Z"/>
        <path d="M303.45,220.77c-.09-.3-.1-.48.24-.11v.02c-.28-.39-.58-.79-.88-1.19.26.46.48.9.64,1.28Z"/>
        <path d="M303.45,220.77c.09.29.28.73.33.89-.08-.27-.2-.56-.33-.89Z"/>
        <path d="M300.91,221.03c-.36-.36.24-.63-.46-1.34-1.52-1.75-2.98-3.15-4.29-4.88-.74-.68-.96-2.43-1.68-3.12-1.53-1.76-6.08-5.8-3.93-3.05,3.34,4.06,5.52,6.71,8.52,10.35,2.55,2.88,5,5.66,7.47,8.7.67.87,1.25,1.71,1.84,2.55-.74-1.12-1.51-2.27-2.35-3.54-1.05-1.72-3.07-3.27-5.12-5.68Z"/>
        <path d="M318.61,243.55c-.28-.4-.85-1.21-.85-1.21-1.17-1.87-2.44-3.8-3.81-5.66.16.3.32.61.48.92.77,1.08.89,1.18.28.17,1.39,2.31,2.87,4.38,4.36,6.52-.08-.14-.05-.12-.45-.74Z"/>
        <path d="M319.94,245.54c-.29-.42-.58-.84-.87-1.25,0,.01.02.03.03.05.29.42.59.84.87,1.25l-.03-.05Z"/>
        <path d="M294.94,209.14c-3.75-5.39-7.23-10.5-10.57-15.53-.43-.26-.82-.39-1.07-.98-.12-.49-.29-.95-.49-1.39-.48-.74-.97-1.47-1.45-2.21-.2-.23-.4-.47-.6-.72,0,0-.01-.01-.02-.02-.39-.33-.44-.11-.41.23.1.35.16.68.2.99-.02-.19-.16-.65-.2-.99-.12-.42-.29-.87-.55-1.35-.51-.62-1.03-1.29-1.47-2.04.66.72,1.13,1.4,1.47,2.04.33.39.65.76.97,1.14.11.1.21.19.33.3-1.09-1.69-2.18-3.37-3.27-5.05-.29-.36-.56-.71-.79-.98-.95-1.11-1.91-2.2-1.93-3.28-.19-.3-.38-.6-.58-.91,0,.08.02.15.03.23-.06-.15-.1-.29-.13-.4-.81-1.28-4.01-5.19-4.74-5.92,0,0-1.39-1.34-1.54-2.23-1.01-1.05-1.88-2.71-2.2-4.31,1.51,1.22,1.95,2.82,2.2,4.31.48.51.99.87,1.49,1.03.02.4.06,1.2.06,1.2.73.73,1.55,1.4,2.3,2.07-1.59-2.51-3.19-5.05-4.84-7.65-10.44-16.78-20.85-31.71-32.03-48.88-6.02-9.33-11.66-18.39-17.14-27.3-5.48-8.88-11.47-16.86-17.37-24.92-5.94-8.04-11.71-16.23-17.67-24.91-4.66-6.61-14.96-17.72-20.32-23.48-1.85-1.89-2.99-3.07-3.64-3.78-.65-.71-.83-.93-.8-.89.09.07.92,1.29,1.04,1.5,1.73,2.7,3.09,5.24,5,8.41,1.87,3.19,4.32,7,7.23,12.94-2.03-4.01-.97-2.75,1.14.42,2.09,3.18,5.19,8.3,6.58,12.46,1.93,6.07,5.4,12.65,9.59,19.16,4.15,6.54,8.98,13.03,12.54,19.71,1.77,3.34,4.09,6.58,6.46,10.4,11.19,20.55,25.25,37.1,39.2,57.2,3.81,5.25,8.22,9.12,11.99,13.15,2.53,3.1,4.53,6.89,6.47,9.49,3.05,4.08,6.05,7.35,8.98,10.43-2.98-3.65-5.3-6.21-8.58-10.31-2.14-2.77,2.78,1.03,4.41,2.71.8.65.61,2.67,1.43,3.31,1.28,1.73,2.89,3.02,4.52,4.7.79.65-.21,1.21.19,1.54,2.1,2.38,4.68,3.54,5.62,5.34.76,1.33,1.46,2.53,2.13,3.69.46.72.93,1.42,1.49,2.12.4.4.81.82,1.22,1.24q-.03-.54,0,0c2.93,3.01,6.13,6.61,9,10.03,0-.03.02-.06.02-.09-1.58-2.07-3.01-4.16-4.11-6.68.51,1.07.23,1.09-.59.03-.07-.36-.14-.73-.22-1.09,1.55,1.75,3.04,3.52,3.82,5.66,0,0,.72.71,1.08,1.06.33.67.11.78.02,1.03.31.4.63.81.94,1.21-.32-1.09-1.83-4.2-1.83-4.2Z"/>
        <path d="M279.79,187.13c.23.27.5.61.78.98-.91-1.41-1.82-2.83-2.74-4.25.04,1.06,1,2.16,1.95,3.27Z"/>
      </g>
      <g class="cls-2">
        <path d="M778.42,241.58c.31-.86.63-1.73.95-2.6-.19.43-.4.84-.65,1.26-.25.55-.25.89-.3,1.34Z"/>
        <path d="M780.25,236.58c.06-.16.12-.31.17-.46.03-.15.06-.29.09-.41-.09.29-.17.58-.26.87Z"/>
        <path d="M781.69,231.98c-.32.79-.56,1.57-.78,2.32.28-.64.54-1.4.78-2.32Z"/>
        <path d="M780.28,235.56c.18-.25.32-.36.23.12,0,0,0,.01,0,.02.13-.46.26-.92.4-1.4-.21.48-.42.9-.62,1.25Z"/>
        <path d="M780.28,235.56c-.18.24-.4.65-.5.78.16-.22.33-.48.5-.78Z"/>
        <path d="M778.53,233.71c.06-.49.64-.18.78-1.15.46-2.22.67-4.18,1.24-6.21.09-.98,1.34-2.17,1.45-3.14.46-2.23.88-8.15.02-4.86-1.18,4.99-1.95,8.25-3,12.72-.73,3.68-1.43,7.22-2.33,10.94-.28,1.03-.59,1.98-.9,2.94.43-1.24.88-2.51,1.37-3.91.72-1.83.71-4.32,1.38-7.33Z"/>
        <path d="M771.51,260.75c.15-.46.44-1.37.44-1.37.77-2.01,1.52-4.13,2.16-6.29-.14.3-.29.6-.43.91-.39,1.23-.39,1.39.03.32-.98,2.44-1.72,4.81-2.5,7.22.06-.15.06-.11.31-.79Z"/>
        <path d="M770.74,262.95c.15-.47.31-.95.46-1.42,0,.01-.01.03-.02.05-.15.48-.31.95-.46,1.42l.02-.05Z"/>
        <path d="M784.3,222.09c1.97-6.09,3.9-11.8,5.84-17.36-.05-.49-.19-.87.12-1.41.32-.38.58-.78.8-1.19.29-.81.58-1.62.86-2.42.07-.29.13-.59.2-.89,0,0,0-.02,0-.03.03-.5-.18-.42-.43-.18-.22.28-.44.53-.66.73.14-.13.42-.5.66-.73.26-.34.51-.73.73-1.22.18-.77.39-1.56.72-2.34-.16.94-.42,1.71-.72,2.34-.1.49-.21.96-.31,1.42-.01.14-.02.28-.03.43.67-1.85,1.34-3.68,2-5.52.11-.44.22-.85.29-1.2.3-1.39.58-2.78,1.41-3.43.12-.32.24-.65.37-.98-.06.05-.11.11-.17.16.08-.14.16-.25.23-.34.52-1.38,1.66-6.17,1.8-7.17,0,0,.21-1.88.83-2.52.22-1.4,1-3.06,2.07-4.24-.04,1.89-1.04,3.17-2.07,4.24-.11.67-.09,1.29.09,1.77-.3.25-.92.75-.92.75-.14,1-.16,2.03-.24,3.01,1.02-2.72,2.05-5.46,3.1-8.26,6.91-17.99,12.38-34.88,19.15-53.67,3.71-10.17,7.44-19.88,11.15-29.39,3.69-9.49,6.35-18.84,9.13-28.18,2.74-9.35,5.71-18.66,8.94-28.41,2.39-7.51,4.9-22.08,6.2-29.65.37-2.56.61-4.14.77-5.06.16-.92.23-1.2.22-1.14,0,.11-.46,1.47-.56,1.7-1.09,2.94-2.27,5.49-3.6,8.84-1.39,3.33-2.9,7.48-5.83,13.23,1.93-3.94,1.58-2.37.36,1.14-1.24,3.5-3.41,8.92-5.85,12.44-3.62,5.06-6.71,11.62-9.31,18.71-2.65,7.07-4.84,14.66-7.95,21.34-1.57,3.34-2.71,7.06-4.29,11.15-9.44,20.78-13.97,41.48-21.36,64.15-1.83,6.05-2.21,11.77-3.1,17.08-.91,3.79-2.69,7.58-3.57,10.62-1.37,4.78-2.13,9.03-2.78,13.13,1.07-4.47,1.69-7.78,2.93-12.75.89-3.29.88,2.78.54,5.04-.02,1.01-1.74,2.04-1.74,3.06-.59,2.02-.63,4.03-.96,6.29-.03,1-1.08.55-1.1,1.05-.6,3.03.05,5.74-.8,7.52-.58,1.37-1.11,2.62-1.62,3.83-.29.78-.56,1.56-.77,2.41-.08.55-.15,1.11-.23,1.68q.41-.34,0,0c-.6,4.06-1.49,8.67-2.46,12.91.03-.01.06-.02.08-.03.68-2.45,1.46-4.79,2.78-7.13-.54,1.02-.72.81-.39-.44.24-.27.49-.54.73-.81-.44,2.23-.93,4.44-2.15,6.3,0,0-.12.98-.18,1.46-.33.65-.55.54-.8.62-.13.48-.26.96-.39,1.45.67-.89,2.21-3.89,2.21-3.89Z"/>
        <path d="M792.48,197.35c-.07.34-.18.75-.3,1.19.56-1.54,1.13-3.08,1.69-4.63-.81.65-1.1,2.05-1.4,3.44Z"/>
      </g>
      <g class="cls-2">
        <path d="M76.1,47.69c3.07.04,6.16.09,9.25.13-1.55-.06-3.09-.14-4.66-.24-2.02-.08-3.07.03-4.59.11Z"/>
        <path d="M93.9,47.95c.56,0,1.12.02,1.64.02.5-.01.98-.03,1.4-.04-1.01,0-2.03,0-3.04.01Z"/>
        <path d="M110,47.96c-2.84-.07-5.57-.07-8.2-.05,2.32.07,5.02.1,8.2.05Z"/>
        <path d="M97.18,47.68c.99.1,1.47.2-.16.26-.02,0-.04,0-.07,0,1.61-.01,3.2-.02,4.86-.03-1.74-.06-3.29-.13-4.63-.22Z"/>
        <path d="M97.18,47.68c-.96-.08-2.47-.2-2.99-.24.87.09,1.87.17,2.99.24Z"/>
        <path d="M101.25,45.46c1.63-.09,1.24.56,4.45.4,7.54-.22,13.98-.6,21.04-.66,3.21-.21,8.28.63,11.48.45,7.56-.23,26.85-1.58,15.49-1.43-17.09.36-28.24.59-43.58.91-12.47.4-24.45.78-37.21,1.02-3.58.04-6.91.02-10.27.02,4.39.05,8.88.09,13.86.15,6.56.14,14.48-.6,24.74-.86Z"/>
        <path d="M7.98,46.77c1.6,0,4.83.01,4.83.01,7.18.14,14.72.22,22.25.2-1.1-.05-2.21-.1-3.34-.14-4.31,0-4.81.04-.98.12-8.77-.21-17.07-.21-25.57-.25.53.01.42.03,2.81.06Z"/>
        <path d="M.18,46.69c1.67,0,3.34.01,4.98.02-.04,0-.12,0-.18,0-1.68,0-3.35-.01-4.98-.02.06,0,.12,0,.18,0Z"/>
        <path d="M144.16,47.52c21.42.08,41.57.22,61.26.43,1.51-.2,2.58-.44,4.61-.3,1.53.19,3.08.32,4.62.41,2.88.04,5.75.07,8.6.1,1-.02,2.01-.05,3.03-.07.01,0,.06,0,.08,0,1.61-.12,1.14-.29.14-.46-1.11-.12-2.14-.27-3.01-.42.56.1,2.03.25,3.01.42,1.36.15,2.86.27,4.63.34,2.62-.06,5.36-.09,8.19,0-3.15.12-5.86.11-8.19,0-1.66.04-3.25.09-4.85.13-.46.03-.92.06-1.4.09,6.56.09,13.09.18,19.62.28,1.5-.03,2.94-.05,4.11-.07,4.73-.13,9.45-.27,12.37.33,1.15.02,2.33.04,3.51.06-.22-.04-.46-.08-.68-.11.52.04.96.08,1.32.12,4.93.08,21.36-.24,24.67-.41,0,0,6.18-.35,8.85.04,4.69-.21,10.75.05,15.63.72-6.07.52-11.17-.05-15.63-.72-2.25.1-4.18.3-5.53.61-1.1-.22-3.33-.65-3.33-.65-3.31.17-6.62.45-9.83.66,9.69.17,19.48.34,29.49.51,64.37,1.26,123.73,1.47,190.52,2.35,36.18.53,70.93,1.2,105.02,1.93,33.99.71,66.49.47,99.08.36,32.59-.16,65.26-.09,99.6.1,26.36.06,75.3-1.88,100.72-2.88,8.48-.38,13.75-.62,16.9-.77,2.66-.09,3.32-.11,3.87-.13-.36.03-5.17,0-5.97-.03-10.46-.16-19.79-.54-31.83-.82-12.04-.34-26.8-.55-48.12-1.64,14.52.68,9.16.81-3.25.68-12.42-.15-31.89-.61-45.6-1.89-19.84-1.96-43.91-2.96-69.14-3.34-25.23-.43-51.63-.27-76.11-1.26-12.24-.51-25.25-.5-39.88-.79-75.86-2.84-146.37-1.03-226.14-1.36-21.15.06-39.72,1.38-57.53,2.11-13,.26-26.9-.32-37.47-.26-16.62.11-30.94.65-44.64,1.24,15.32-.31,26.51-.7,43.58-.98,11.39-.13-7.92,1.66-15.47,2.01-3.23.27-8.29-1.05-11.52-.76-7.02.04-13.47.59-21,.95-3.23.27-2.85-.87-4.47-.74-10.27.33-18.2,1.75-24.76,1.47-4.98-.15-9.48-.28-13.86-.42-2.77-.04-5.52-.07-8.45-.02-1.82.09-3.7.18-5.59.28q1.49.29,0,0c-13.52.64-29.12,1.15-43.62,1.49.06.02.14.05.19.07,8.48-.08,16.75-.02,25.55.54-3.81-.21-3.34-.45,1-.5,1.11.15,2.23.31,3.32.46-7.56.24-15.1.43-22.25-.19,0,0-3.24.18-4.84.26-2.39-.12-2.28-.37-2.78-.58-1.65.02-3.33.04-5,.06,3.53.37,14.66.96,14.66.96Z"/>
        <path d="M231.32,47.99c-1.15.02-2.57.04-4.08.07,5.48.08,10.97.16,16.47.24-2.91-.58-7.64-.44-12.39-.31Z"/>
      </g>
      <g class="cls-2">
        <path d="M198.86,176.4c2.44.03,4.9.07,7.36.1-1.24-.05-2.46-.12-3.71-.23-1.61-.07-2.44.04-3.65.13Z"/>
        <path d="M213.02,176.59c.44,0,.89.01,1.3.02.4-.02.78-.03,1.12-.04-.8,0-1.62.02-2.42.03Z"/>
        <path d="M225.83,176.54c-2.26-.06-4.43-.05-6.52-.02,1.85.06,4,.09,6.52.02Z"/>
        <path d="M215.62,176.31c.79.1,1.17.2-.13.26-.02,0-.03,0-.05,0,1.28-.02,2.54-.03,3.86-.05-1.38-.05-2.62-.12-3.68-.21Z"/>
        <path d="M215.62,176.31c-.76-.07-1.97-.19-2.38-.23.69.08,1.49.16,2.38.23Z"/>
        <path d="M218.86,174.07c1.29-.09.99.56,3.54.38,5.99-.25,11.12-.65,16.74-.74,2.55-.22,6.59.6,9.14.41,6.01-.26,21.36-1.68,12.32-1.49-13.6.42-22.46.7-34.67,1.07-9.92.45-19.45.87-29.6,1.16-2.84.06-5.5.05-8.17.05,3.49.03,7.06.06,11.03.1,5.22.12,11.52-.66,19.68-.95Z"/>
        <path d="M144.66,175.74c1.27,0,3.84,0,3.84,0,5.71.11,11.71.17,17.7.11-.87-.04-1.76-.09-2.66-.13-3.43.01-3.83.06-.78.13-6.98-.18-13.58-.15-20.34-.15.42.01.34.02,2.24.05Z"/>
        <path d="M138.46,175.69c1.33,0,2.66,0,3.96,0-.03,0-.09,0-.14,0-1.33,0-2.66,0-3.96,0,.05,0,.1,0,.14,0Z"/>
        <path d="M253,175.97c17.04,0,33.07.06,48.74.2,1.2-.2,2.05-.44,3.67-.32,1.22.19,2.45.31,3.68.39,2.29.02,4.57.05,6.84.07.79-.03,1.6-.05,2.41-.08.01,0,.05,0,.07,0,1.28-.12.9-.3.11-.46-.89-.12-1.7-.26-2.39-.4.44.09,1.62.24,2.39.4,1.08.14,2.28.26,3.68.32,2.08-.07,4.26-.11,6.52-.04-2.5.13-4.66.13-6.52.04-1.32.05-2.59.1-3.86.15-.36.03-.73.06-1.11.1,5.22.07,10.41.13,15.61.2,1.2-.03,2.34-.06,3.27-.09,3.77-.15,7.52-.31,9.84.29.92.01,1.85.03,2.79.05-.17-.04-.36-.08-.54-.11.41.04.76.08,1.05.12,3.92.06,16.99-.32,19.62-.51,0,0,4.92-.38,7.04,0,3.73-.23,8.55,0,12.44.66-4.82.55-8.89,0-12.44-.66-1.79.11-3.32.32-4.39.63-.87-.21-2.65-.64-2.65-.64-2.63.18-5.27.47-7.82.7,7.71.13,15.5.27,23.46.4,51.21,1.02,98.44,1,151.56,1.63,28.78.39,56.43.93,83.55,1.53,27.04.58,52.89.22,78.82-.02,25.92-.29,51.92-.33,79.24-.27,20.97-.04,59.9-2.16,80.11-3.26,6.73-.42,10.92-.67,13.45-.83,2.01-.09,2.57-.12,3.08-.14-.28.03-4.11.01-4.75,0-8.32-.12-15.74-.46-25.32-.7-9.58-.29-21.32-.45-38.28-1.46,11.55.62,7.29.77-2.59.69-9.88-.1-25.37-.49-36.28-1.72-15.79-1.88-34.94-2.79-55.01-3.08-20.07-.33-41.07-.07-60.55-.97-9.74-.46-20.09-.4-31.73-.64-60.36-2.55-116.44-.48-179.91-.51-16.82.14-31.6,1.53-45.76,2.33-10.34.3-21.4-.22-29.81-.11-13.22.17-24.61.76-35.51,1.41,12.18-.36,21.08-.8,34.66-1.15,9.06-.17-6.3,1.69-12.3,2.07-2.57.29-6.6-1.02-9.17-.72-5.58.07-10.71.65-16.7,1.03-2.57.28-2.27-.86-3.55-.72-8.17.37-14.47,1.82-19.69,1.56-3.96-.13-7.54-.25-11.02-.36-2.21-.03-4.39-.05-6.72.02-1.45.1-2.94.2-4.44.3q1.19.28,0,0c-10.76.69-23.16,1.25-34.69,1.65.05.02.11.05.15.07,6.75-.11,13.32-.09,20.32.45-3.03-.19-2.66-.43.8-.5.88.15,1.77.3,2.65.45-6.01.27-12.01.49-17.7-.1,0,0-2.57.19-3.85.28-1.9-.11-1.82-.36-2.22-.57-1.31.03-2.65.05-3.98.08,2.81.36,11.66.9,11.66.9Z"/>
        <path d="M322.34,176.11c-.92.02-2.05.05-3.25.08,4.36.06,8.72.12,13.1.18-2.32-.57-6.08-.41-9.86-.27Z"/>
      </g>
    </g>
  </g>
</svg>