<?xml version="1.0" encoding="UTF-8"?>
<svg id="Lag_2" data-name="Lag 2" xmlns="http://www.w3.org/2000/svg" viewBox="0 0 925.15 263">
  <defs>
    <style>
      .cls-1 {
        fill: #f9f9f9;
        stroke: #000;
        stroke-miterlimit: 10;
      }

      .cls-2 {
        opacity: .85;
      }
    </style>
  </defs>
  <g id="Layer_1" data-name="Layer 1">
    <g>
      <polygon class="cls-1" points="123.61 175.69 87.23 46.69 743.23 46.69 654.44 175.69 123.61 175.69"/>
      <g class="cls-2">
        <path d="M619.06,226.81c.56-.75,1.13-1.52,1.7-2.28-.31.36-.64.71-1,1.05-.41.47-.5.8-.7,1.23Z"/>
        <path d="M622.33,222.43c.1-.14.21-.27.3-.4.07-.13.14-.26.21-.38l-.51.78Z"/>
        <path d="M625.09,218.34c-.54.69-1.01,1.38-1.45,2.05.46-.55.95-1.22,1.45-2.05Z"/>
        <path d="M622.66,221.44c.25-.19.42-.26.18.19v.02c.26-.41.52-.83.79-1.25-.34.41-.67.76-.98,1.05Z"/>
        <path d="M622.66,221.44c-.24.19-.58.52-.71.62.22-.17.46-.38.71-.62Z"/>
        <path d="M621.54,219.15c.21-.46.67,0,1.09-.9,1.11-2.04,1.91-3.9,3.07-5.72.38-.93,1.94-1.74,2.34-2.66,1.11-2.05,3.31-7.72,1.48-4.75-2.64,4.55-4.36,7.51-6.73,11.6-1.81,3.4-3.55,6.66-5.54,10.04-.58.93-1.17,1.77-1.75,2.62.79-1.09,1.6-2.2,2.5-3.44,1.24-1.59,1.99-4.02,3.54-6.78Z"/>
        <path d="M606.62,243.6c.28-.4.84-1.22.84-1.22,1.34-1.75,2.71-3.61,3.98-5.55-.23.25-.46.51-.69.77-.74,1.09-.79,1.25-.07.32-1.68,2.11-3.1,4.22-4.59,6.36.1-.13.09-.09.53-.68Z"/>
        <path d="M605.22,245.54c.29-.42.59-.84.87-1.25l-.03.04c-.29.42-.58.84-.87,1.26l.03-.04Z"/>
        <path d="M630.59,209.41c3.74-5.4,7.31-10.44,10.86-15.33.1-.5.08-.9.54-1.34.42-.28.79-.6,1.13-.94.52-.71,1.04-1.42,1.56-2.13.15-.27.31-.54.46-.81,0,0,0-.02,0-.02.18-.48-.05-.46-.36-.3-.29.21-.58.39-.86.53.17-.09.55-.37.86-.53.35-.26.71-.58,1.07-.98.4-.7.85-1.41,1.4-2.09-.44.87-.92,1.55-1.4,2.09-.25.45-.49.88-.73,1.31-.05.13-.11.27-.16.41,1.2-1.62,2.4-3.22,3.59-4.83.24-.39.47-.77.64-1.09.7-1.28,1.4-2.56,2.39-2.96.21-.28.43-.57.65-.86-.07.03-.14.08-.21.11.12-.11.23-.2.33-.26.91-1.2,3.46-5.57,3.89-6.51,0,0,.77-1.77,1.55-2.23.63-1.31,1.88-2.71,3.27-3.57-.61,1.84-1.96,2.81-3.27,3.57-.31.63-.47,1.23-.44,1.75-.37.16-1.11.47-1.11.47-.43.94-.77,1.94-1.14,2.88,1.8-2.37,3.62-4.76,5.48-7.2,12.07-15.64,22.43-30.62,34.61-47.09,6.64-8.9,13.16-17.34,19.59-25.6,6.41-8.24,11.79-16.63,17.29-24.98,5.46-8.38,11.12-16.64,17.17-25.26,4.56-6.67,11.38-20.2,14.91-27.24,1.13-2.39,1.83-3.88,2.27-4.73.44-.86.58-1.1.56-1.06-.04.11-.89,1.31-1.05,1.5-1.93,2.57-3.83,4.73-6.13,7.62-2.34,2.87-5.05,6.5-9.6,11.3,3.05-3.31,2.23-1.87,0,1.21-2.25,3.07-5.97,7.76-9.38,10.51-5.01,3.93-9.96,9.48-14.6,15.67-4.68,6.17-9.07,12.97-14.09,18.63-2.52,2.82-4.74,6.13-7.49,9.69-15.35,17.66-25.95,36.62-39.9,56.71-3.59,5.4-5.67,10.88-8.13,15.83-2.02,3.45-4.87,6.66-6.64,9.38-2.76,4.29-4.77,8.23-6.64,12.05,2.38-4.07,3.97-7.14,6.66-11.64,1.85-2.97,0,2.96-1,5.07-.33.98-2.29,1.51-2.6,2.5-1.17,1.81-1.82,3.76-2.82,5.88-.34.97-1.21.23-1.37.72-1.49,2.8-1.68,5.62-3.04,7.13-.98,1.18-1.86,2.25-2.72,3.29-.51.68-1.01,1.36-1.46,2.14-.24.51-.48,1.05-.73,1.58q.49-.21,0,0c-1.8,3.8-4.05,8.05-6.26,11.93.03,0,.06,0,.09,0,1.39-2.2,2.85-4.27,4.83-6.18-.82.85-.94.59-.24-.54.32-.19.63-.39.95-.58-1.1,2.06-2.24,4.08-3.97,5.55,0,0-.41.92-.61,1.38-.51.54-.69.37-.95.38-.27.43-.54.87-.81,1.31.91-.68,3.3-3.18,3.3-3.18Z"/>
        <path d="M645.93,187.52c-.17.31-.4.68-.64,1.08,1.01-1.35,2.01-2.69,3.03-4.05-.98.41-1.67,1.69-2.38,2.97Z"/>
      </g>
      <g class="cls-2">
        <path d="M148.03,241.16c-.25-.88-.51-1.77-.77-2.66.1.46.17.92.22,1.4.12.6.32.86.55,1.26Z"/>
        <path d="M146.56,236.04c-.05-.16-.09-.32-.13-.47-.06-.14-.12-.27-.17-.38l.31.86Z"/>
        <path d="M145.01,231.48c.21.83.47,1.6.74,2.34-.16-.68-.39-1.45-.74-2.34Z"/>
        <path d="M145.98,235.19c0-.31.05-.48.26-.03v.02c-.16-.45-.32-.9-.49-1.36.12.51.19.97.23,1.38Z"/>
        <path d="M145.98,235.19c0,.3.06.76.06.92,0-.27-.02-.58-.06-.92Z"/>
        <path d="M143.48,234.73c-.24-.43.41-.52-.05-1.38-.94-2.06-1.92-3.77-2.66-5.75-.51-.84-.2-2.54-.68-3.39-.95-2.07-4.09-7.11-2.85-3.94,1.99,4.72,3.29,7.81,5.07,12.05,1.58,3.4,3.1,6.68,4.57,10.21.39,1,.69,1.95,1.01,2.9-.38-1.26-.77-2.54-1.2-3.97-.5-1.9-1.97-3.91-3.21-6.73Z"/>
        <path d="M153.74,260.72c-.15-.45-.45-1.37-.45-1.37-.56-2.07-1.21-4.23-1.96-6.36.06.33.12.66.19.99.41,1.22.5,1.35.21.24.65,2.55,1.45,4.9,2.23,7.31-.04-.16-.02-.13-.22-.82Z"/>
        <path d="M154.41,262.95c-.15-.47-.31-.95-.46-1.42,0,.02,0,.03.01.05.16.48.31.95.46,1.42l-.02-.05Z"/>
        <path d="M141.29,221.95c-1.99-6.08-3.81-11.83-5.51-17.47-.33-.37-.66-.59-.73-1.21.04-.49,0-.97-.06-1.43-.24-.82-.49-1.65-.73-2.47-.12-.27-.24-.55-.36-.84,0,0,0-.02-.01-.02-.27-.42-.39-.23-.45.1,0,.35-.05.69-.1.98.04-.19.04-.65.1-.98,0-.43-.02-.89-.12-1.42-.31-.72-.6-1.49-.8-2.32.42.85.67,1.63.8,2.32.2.46.4.89.59,1.33.07.12.15.24.22.37-.55-1.89-1.09-3.76-1.63-5.64-.17-.42-.32-.82-.47-1.14-.58-1.3-1.17-2.59-.88-3.6-.09-.33-.19-.67-.28-1.01-.02.07-.02.15-.04.23-.01-.16-.01-.3-.01-.41-.4-1.42-2.29-5.97-2.78-6.85,0,0-.93-1.64-.81-2.52-.65-1.26-.99-3.06-.83-4.65,1.08,1.55,1.03,3.18.83,4.65.31.61.69,1.09,1.12,1.37-.1.38-.3,1.15-.3,1.15.48.89,1.06,1.73,1.58,2.58-.78-2.79-1.56-5.62-2.36-8.5-5.02-18.61-10.55-35.47-16.16-54.65-2.99-10.4-5.71-20.45-8.31-30.32-2.61-9.84-5.97-18.96-9.23-28.15-3.3-9.17-6.39-18.44-9.52-28.22-2.5-7.48-9.05-20.73-12.47-27.61-1.21-2.28-1.95-3.7-2.36-4.55-.41-.84-.52-1.1-.5-1.05.06.09.49,1.46.55,1.7.85,3.01,1.4,5.77,2.3,9.26.85,3.51,2.06,7.76,3.09,14.13-.76-4.32-.12-2.84.96.71,1.06,3.56,2.5,9.21,2.61,13.49.06,6.22,1.43,13.35,3.5,20.6,2.03,7.27,4.73,14.69,6.15,21.93.7,3.62,1.96,7.3,3.1,11.53,4.62,22.35,13.16,41.74,20.55,64.42,2.09,5.97,5.15,10.81,7.56,15.62,1.5,3.6,2.3,7.71,3.37,10.68,1.71,4.67,3.6,8.55,5.49,12.25-1.77-4.24-3.22-7.28-5.14-12.03-1.22-3.18,2.34,1.73,3.4,3.75.57.83-.2,2.67.39,3.5.72,1.97,1.87,3.63,2.93,5.65.56.83-.55,1.08-.27,1.49,1.3,2.81,3.42,4.6,3.78,6.55.34,1.45.65,2.77.94,4.05.23.8.47,1.58.8,2.4.26.49.53.99.8,1.5q.13-.51,0,0c1.91,3.63,3.9,7.88,5.63,11.88.01-.02.03-.05.05-.08-.89-2.38-1.64-4.73-1.95-7.4.17,1.14-.1,1.08-.57-.13.04-.36.08-.73.11-1.08.96,2.06,1.87,4.14,1.97,6.35,0,0,.48.86.72,1.29.12.71-.13.76-.28.97.18.46.36.93.54,1.4.01-1.11-.51-4.44-.51-4.44Z"/>
        <path d="M133.32,197.13c.14.32.3.71.46,1.13-.45-1.58-.9-3.15-1.36-4.74-.27,1,.32,2.3.9,3.6Z"/>
      </g>
      <g class="cls-2">
        <path d="M849.05,46.32c-3.07-.02-6.16-.04-9.25-.06,1.55.04,3.09.11,4.67.21,2.02.06,3.07-.05,4.59-.15Z"/>
        <path d="M831.24,46.2c-.56,0-1.12,0-1.64-.01-.5.02-.97.04-1.4.05,1.01-.01,2.03-.03,3.04-.04Z"/>
        <path d="M815.14,46.33c2.84.04,5.57.02,8.2-.01-2.32-.05-5.02-.06-8.2.01Z"/>
        <path d="M827.97,46.5c-.99-.09-1.48-.19.16-.26.02,0,.04,0,.07,0-1.61.02-3.2.05-4.86.07,1.74.04,3.29.11,4.63.19Z"/>
        <path d="M827.97,46.5c.96.07,2.47.18,2.99.22-.87-.08-1.88-.15-2.99-.22Z"/>
        <path d="M823.92,48.76c-1.62.1-1.24-.55-4.46-.36-7.53.28-13.98.71-21.04.83-3.21.23-8.28-.56-11.49-.35-7.56.29-26.84,1.8-15.47,1.56,17.09-.5,28.24-.82,43.57-1.27,12.46-.5,24.44-.98,37.2-1.33,3.57-.07,6.91-.08,10.27-.1-4.39-.01-8.88-.02-13.86-.03-6.56-.09-14.48.72-24.74,1.06Z"/>
        <path d="M917.18,46.67c-1.6,0-4.83.03-4.83.03-7.18-.08-14.72-.1-22.26-.01,1.1.04,2.21.08,3.34.12,4.31-.03,4.81-.08.98-.13,8.77.14,17.07.07,25.57.04-.53-.01-.42-.02-2.82-.04Z"/>
        <path d="M924.97,46.69c-1.67,0-3.34.01-4.98.02.04,0,.12,0,.18,0,1.68,0,3.35-.02,4.98-.02-.06,0-.12,0-.18,0Z"/>
        <path d="M780.99,47.05c-21.42.1-41.58.13-61.26.08-1.51.21-2.57.46-4.61.34-1.54-.18-3.09-.29-4.62-.37-2.88-.01-5.75-.02-8.6-.03-1,.03-2.01.06-3.03.1-.01,0-.06,0-.08,0-1.61.13-1.13.3-.13.47,1.11.11,2.14.25,3.01.39-.56-.09-2.04-.23-3.01-.39-1.36-.14-2.86-.24-4.63-.3-2.62.08-5.36.13-8.19.07,3.15-.15,5.86-.15,8.19-.07,1.66-.06,3.25-.11,4.85-.17.46-.03.92-.07,1.4-.11-6.56-.04-13.09-.08-19.62-.11-1.5.04-2.94.08-4.11.11-4.73.17-9.45.35-12.37-.23-1.15,0-2.33-.02-3.51-.03.22.03.46.07.68.11-.52-.04-.96-.07-1.32-.11-4.93-.04-21.35.42-24.67.62,0,0-6.18.41-8.85.03-4.69.25-10.75.04-15.64-.59,6.06-.57,11.17-.04,15.64.59,2.25-.12,4.18-.33,5.52-.66,1.1.21,3.33.63,3.33.63,3.31-.19,6.62-.5,9.83-.74-9.69-.09-19.48-.18-29.49-.27-64.37-.73-123.74-.45-190.53-.78-36.18-.23-70.94-.62-105.03-1.06-33.99-.43-66.49.08-99.08.46-32.59.43-65.26.62-99.6.72-26.36.16-75.28,2.5-100.69,3.71-8.48.45-13.75.74-16.9.91-2.66.11-3.32.14-3.86.16.36-.03,5.17-.04,5.97-.02,10.47.08,19.79.38,31.84.55,12.04.24,26.8.33,48.13,1.24-14.53-.56-9.17-.73,3.25-.71,12.42.04,31.9.34,45.62,1.52,19.85,1.79,43.93,2.6,69.17,2.77,25.24.22,51.63-.16,76.12.63,12.24.41,25.25.29,39.89.46,75.89,2.21,146.37-.18,226.15-.5,21.14-.23,39.71-1.71,57.51-2.58,13-.36,26.9.1,37.47-.05,16.62-.25,30.93-.9,44.63-1.61-15.31.43-26.5.92-43.57,1.34-11.39.23,7.91-1.73,15.45-2.14,3.23-.3,8.3.98,11.53.66,7.02-.1,13.46-.71,20.99-1.12,3.23-.29,2.86.85,4.47.7,10.27-.41,18.18-1.9,24.74-1.67,4.98.11,9.48.21,13.86.3,2.77.02,5.52.02,8.45-.05,1.82-.1,3.7-.21,5.58-.32q-1.49-.28,0,0c13.52-.75,29.11-1.38,43.6-1.85-.06-.02-.14-.05-.19-.07-8.48.15-16.75.16-25.55-.33,3.81.18,3.34.42-1,.51-1.11-.14-2.23-.29-3.33-.43,7.56-.31,15.1-.55,22.25,0,0,0,3.23-.2,4.83-.3,2.39.1,2.29.35,2.79.56,1.65-.03,3.33-.07,5-.1-3.53-.34-14.66-.83-14.66-.83Z"/>
        <path d="M693.83,47.3c1.15-.03,2.57-.06,4.08-.1-5.48-.04-10.97-.07-16.47-.11,2.92.56,7.64.38,12.39.21Z"/>
      </g>
      <g class="cls-2">
        <path d="M726.29,175.03c-2.44-.03-4.9-.06-7.36-.09,1.24.05,2.46.12,3.71.22,1.61.07,2.44-.04,3.65-.13Z"/>
        <path d="M712.13,174.85c-.44,0-.89-.01-1.3-.02-.39.02-.78.03-1.12.05.8,0,1.62-.02,2.42-.03Z"/>
        <path d="M699.32,174.91c2.26.05,4.43.04,6.52.02-1.85-.06-4-.08-6.52-.02Z"/>
        <path d="M709.53,175.14c-.79-.1-1.17-.2.13-.26.02,0,.03,0,.05,0-1.28.02-2.54.04-3.86.05,1.38.05,2.62.12,3.68.2Z"/>
        <path d="M709.53,175.14c.76.07,1.97.19,2.38.23-.69-.08-1.49-.16-2.38-.23Z"/>
        <path d="M706.3,177.37c-1.29.09-.99-.56-3.54-.38-5.99.25-11.12.66-16.74.75-2.55.22-6.59-.6-9.14-.4-6.01.26-21.35,1.7-12.31,1.5,13.6-.43,22.46-.72,34.67-1.1,9.92-.45,19.45-.89,29.6-1.19,2.84-.06,5.5-.05,8.17-.06-3.49-.03-7.06-.05-11.03-.09-5.22-.11-11.52.67-19.68.97Z"/>
        <path d="M780.49,175.64c-1.27,0-3.84,0-3.84,0-5.71-.1-11.71-.16-17.7-.1.87.04,1.76.09,2.66.13,3.43-.02,3.83-.06.78-.13,6.98.17,13.58.14,20.34.13-.42-.01-.34-.02-2.24-.05Z"/>
        <path d="M786.69,175.69c-1.33,0-2.66,0-3.96,0,.03,0,.09,0,.14,0,1.33,0,2.66,0,3.96,0h-.14Z"/>
        <path d="M672.15,175.51c-17.04.02-33.07-.03-48.74-.15-1.2.21-2.05.45-3.67.32-1.22-.19-2.45-.31-3.68-.39-2.29-.02-4.57-.04-6.84-.07-.79.03-1.6.06-2.41.08-.01,0-.05,0-.07,0-1.28.13-.9.3-.11.47.89.12,1.7.26,2.39.4-.44-.09-1.62-.24-2.39-.4-1.08-.14-2.28-.25-3.68-.32-2.08.07-4.26.11-6.52.04,2.5-.13,4.66-.13,6.52-.04,1.32-.05,2.59-.1,3.86-.15.36-.03.73-.07,1.11-.1-5.22-.06-10.41-.12-15.61-.19-1.2.03-2.34.07-3.27.09-3.77.15-7.52.31-9.84-.28-.92-.01-1.85-.03-2.79-.04.17.04.36.07.54.11-.41-.04-.76-.08-1.05-.12-3.92-.06-16.99.34-19.62.52,0,0-4.92.38-7.04,0-3.73.23-8.55,0-12.44-.65,4.82-.55,8.89,0,12.44.65,1.79-.11,3.32-.32,4.39-.64.87.21,2.65.64,2.65.64,2.63-.18,5.27-.48,7.82-.71-7.71-.13-15.5-.25-23.46-.38-51.21-.97-98.44-.92-151.57-1.5-28.78-.37-56.43-.88-83.55-1.46-27.04-.56-52.89-.17-78.82.08-25.92.31-51.92.38-79.24.34-20.97.06-59.89,2.21-80.11,3.33-6.73.42-10.92.68-13.44.84-2.01.1-2.57.12-3.08.15.28-.03,4.11-.02,4.75,0,8.32.12,15.74.45,25.32.67,9.58.29,21.32.44,38.28,1.42-11.55-.61-7.29-.76,2.59-.69,9.88.09,25.37.46,36.29,1.69,15.79,1.87,34.94,2.76,55.01,3.03,20.07.32,41.07.04,60.55.92,9.74.45,20.09.39,31.73.61,60.36,2.5,116.44.37,179.91.35,16.82-.15,31.59-1.56,45.76-2.37,10.34-.31,21.4.2,29.81.09,13.22-.19,24.61-.78,35.51-1.44-12.18.37-21.08.82-34.66,1.18-9.06.18,6.3-1.7,12.3-2.08,2.57-.29,6.6,1.02,9.17.71,5.58-.07,10.71-.65,16.7-1.04,2.57-.28,2.27.86,3.56.72,8.17-.37,14.47-1.83,19.69-1.58,3.96.13,7.54.24,11.02.35,2.21.03,4.39.05,6.72-.02,1.45-.1,2.94-.2,4.44-.3q-1.19-.28,0,0c10.76-.7,23.16-1.28,34.69-1.68-.05-.02-.11-.05-.15-.07-6.75.12-13.32.1-20.32-.43,3.03.19,2.66.43-.8.5-.88-.15-1.77-.3-2.65-.44,6.01-.28,12.01-.5,17.7.09,0,0,2.57-.19,3.85-.28,1.9.11,1.82.36,2.22.57,1.31-.03,2.65-.06,3.98-.08-2.81-.36-11.66-.89-11.66-.89Z"/>
        <path d="M602.81,175.43c.92-.02,2.05-.06,3.25-.09-4.36-.06-8.72-.11-13.1-.17,2.32.57,6.08.41,9.86.26Z"/>
      </g>
    </g>
  </g>
</svg>