<?xml version="1.0" encoding="UTF-8"?>
<svg id="Lag_2" data-name="Lag 2" xmlns="http://www.w3.org/2000/svg" viewBox="0 0 25.47 1607.44">
  <defs>
    <style>
      .cls-1 {
        fill-rule: evenodd;
      }
    </style>
  </defs>
  <g id="Layer_1" data-name="Layer 1">
    <g>
      <path class="cls-1" d="M5.09.03c.02,2.61-.04,4.3-.28,4-.02-2.62.04-4.3.28-4Z"/>
      <path class="cls-1" d="M3.01,5.03c.15,2.45.84-3.11.81,3-.22-.95-.55,3.56-.54-1-.36,1.28.02,2.07,0,5-.43-.66-.28-2.57-.26-7Z"/>
      <path class="cls-1" d="M17.79,6.05c.37-.09.71.14.71,4.01-.3-.68-.64-.92-.71-4.01Z"/>
      <path class="cls-1" d="M8.68,11.04c.31.17.47,5.18.35,7-.29-.37-.6-3.73-.35-7Z"/>
      <path class="cls-1" d="M12.37,11.04c.2.86.32,5.21.17,7-.15-1.43-.3-5.43-.17-7Z"/>
      <path class="cls-1" d="M12.64,11.04c.21,2.36.44-.16.72,0,.08,3.41.31,5.11.35,9-.24-1.01-.51-1.64-.53-5-.39.74.12,5.4-.37,5,.09-4.56-.14-5.67-.16-9Z"/>
      <path class="cls-1" d="M8.4,12.04c-.05,3.22-.15,5.8-.55,5,.25-.89.22-4.96.55-5Z"/>
      <path class="cls-1" d="M10.02,13.04c-.09,2.08-.27,3.04-.55,2.99-.04-.89-.08-1.79-.18-2,.17-3.38.44-.85.72-1Z"/>
      <path class="cls-1" d="M19.92,25.05c.21.63.42,1.35.44,4-.29.2-.39-1.68-.44-4Z"/>
      <path class="cls-1" d="M1.53,27.02c.34-.86.42,3.32.26,5-.28.46-.28-2.14-.26-5Z"/>
      <path class="cls-1" d="M3.59,31.02c.04,3.15-.14,3.91-.19,6-.28-.17-.11-6.43.19-6Z"/>
      <path class="cls-1" d="M3.4,38.02c.2,11.14-1.61,10.54-2.27,8.99.22-4.29.77-4.92.83-11,.53-3.01,1.02,4.19,1.44,2Z"/>
      <path class="cls-1" d="M20.04,55.04c.17.42.39.36.35,3-.37-.28-.2.37-.19,3-.07-.53-.14-1.04-.27-1-.03-2.41.17-2.17.1-4.99Z"/>
      <path class="cls-1" d="M.2,114.98c.12.36.14,1.76.27,2-.02,2.19-.23,2.15-.45,2-.06-2.73.18-2.01.19-4Z"/>
      <path class="cls-1" d="M.8,131.98c-.23.11-.32,1.83-.46,3-.47-.86.47-10.2.46-3Z"/>
      <path class="cls-1" d="M1.58,196.96c.08.77.2,1.08.36,1,.05,4.34-.46,3.08-.36-1Z"/>
      <path class="cls-1" d="M1.03,299.91c.53,4.58-.54,8.49,0,0h0Z"/>
      <path class="cls-1" d="M.92,410.87c.28,1.28.48,5.15,0,4.99.07-3.08.07-1.92,0-4.99Z"/>
      <path class="cls-1" d="M.46,417.87c.28-.09.26,3.02.26,5.99-.07-.53-.14-1.04-.27-1,.17-1.91-.05-1.81,0-5Z"/>
      <path class="cls-1" d="M.53,427.86c.31-.36.37,5.78,0,5,0-1.66,0-3.33,0-5Z"/>
      <path class="cls-1" d="M1.06,433.86c.17,1.45.39,5.31.26,7-.16.13-.19-1.22-.36-1,0-2.47,0-4.82.1-6Z"/>
      <path class="cls-1" d="M1.01,462.85c.1,1.5.26,2.44.26,5-.34.87-.42-3.32-.26-5Z"/>
      <path class="cls-1" d="M2.57,495.84c.31-.35.37,4.7.26,6-.27.03-.22-3.51-.26-6Z"/>
      <path class="cls-1" d="M23.71,514.87c.36,2.36.06,2.51.54,1,.09,3.73-.23,2.85-.19,6-.28-.7-.17-.7-.45,0,.09-3.78.01-4.7.1-7Z"/>
      <path class="cls-1" d="M23.96,528.86c.2.74.02,5.61.08,8-.32.23-.08-5.64-.44-5-.03-2.76.34-.93.37-3Z"/>
      <path class="cls-1" d="M23.8,566.85c.18.69.24,2.67.26,5-.39.35-.34-2.49-.26-5Z"/>
      <path class="cls-1" d="M3.15,576.81c.49,2.5.19-1.89.55-4,.34.9-.39,5.58.08,5-.03,1.31-.16,1.57-.19,3-.12-.35-.14-1.76-.27-2-.09,2.02-.02,6.64-.55,6,.11-3.96.35-1.95.38-8Z"/>
      <path class="cls-1" d="M3.77,580.8c.27,1.45-.04,4.9-.01,8-.18-.96-.19-3.84-.17-7,.1.16.16-.22.18-1Z"/>
      <path class="cls-1" d="M3.22,587.81c.2.14.19,2.51.17,5-.27.21-.31-3.57-.17-5Z"/>
      <path class="cls-1" d="M4.36,600.8c.34.17.54,11.29.16,12.99-.09-2.4.26-5.96-.26-7-.06-3.05.16-2.94.1-5.99Z"/>
      <path class="cls-1" d="M24.26,611.83c-.19,3.73.18,7.46-.28,8,.11-2.49-.03-7.8.28-8Z"/>
      <path class="cls-1" d="M22.99,614.83c.1,1.89.22,3.51.26,6-.28-.93-.38-3.16-.26-6Z"/>
      <path class="cls-1" d="M4.82,649.78c.29.35.4,5.99.26,8-.12-2.3-.25-4.46-.26-8Z"/>
      <path class="cls-1" d="M3.73,654.78c.02-1.17.17-.84.27-1-.03,3.96.18,7.51-.2,9,.07-2.33.07-5.63-.08-8Z"/>
      <path class="cls-1" d="M24.52,664.81c-.12,2.43-.09,6.49-.37,6.99-.04-4.25.1-6.35.37-6.99Z"/>
      <path class="cls-1" d="M24.41,679.8c.06,4.73-.14,6.57-.29,9-.37-1.04.27-6.36-.17-5.99-.03-3.03.3-2.07.46-3Z"/>
      <path class="cls-1" d="M6,694.76c.09,0,.18,0,.27,0,.07,4.37.01,4.45.08,8.01-.13.51-.23,1.47-.36,1.99.09,1.33.14,3.02.26,4-.02,1.44-.27.35-.27,2-.24-1.05-.19-7.43.1-8-.23-2.21-.14-4.3-.08-8.01Z"/>
      <path class="cls-1" d="M23.99,713.79c.17.43.39.36.35,3.01-.24.27-.45.33-.35-3.01Z"/>
      <path class="cls-1" d="M21.26,773.77c.22.96-.13,3.83-.01,7,.24-.54.23-.8.54-2-.03,7.46.18,16.15-.04,24-.07,2.71.43-.72.36,2-.1,2.61-.34,3.57-.46,6-.34-.71-.26-5.54.01-7-.06-1.34-.19-1.86-.36-2,.26-4.25,0-8.05.38-10.99.04-7.25-.44-8.95-.88-11,.18-1.7.39-3.06.46-5.99Z"/>
      <path class="cls-1" d="M19.44,784.76c-.18,4.96-.03,7.68.07,11.99-.2.55-.12-1.91-.27-1.99-.42,4.26.22,9.98.06,16.98-.55-4.27-.36-11.17-.42-16.99.31.12.14-5.21.37-6-.04-1.48-.12.4-.27,0,0-3.14.24-3.43.46-3.99Z"/>
      <path class="cls-1" d="M5.38,785.73c.35,1.85.38,6.65.16,9.99-.04-2.51-.21-4.32-.16-9.99Z"/>
      <path class="cls-1" d="M12.14,785.74c.28,1.13.24-.28.45,1-.07,3.74-.3-.74-.37,3-.12-.31-.07-2.5-.08-4Z"/>
      <path class="cls-1" d="M12.49,791.74c.48,4.15-.46,6.17-.63,2,.44-6.36.29,4.2.63-2Z"/>
      <path class="cls-1" d="M24.74,796.76c-.01,3.29-.39,2.39-.37,6-.12-.66-.16-2.14-.17-4,.26.27.28-2.26.54-2Z"/>
      <path class="cls-1" d="M16.6,808.75c.17-2.13.19-5.99.46-7-.03,3.81-.14,6.58-.46,7Z"/>
      <path class="cls-1" d="M14.18,803.74c.4,2.98-.02,4.07.44,7-.32-1.76-.22.66-.54.99-.12-2.94-.1-6.18.1-7.99Z"/>
      <path class="cls-1" d="M6.24,810.72c.3,1.76.01,5.52.16,10-.23.17-.28-1.54-.36-3,.12-3.94.15-3.06.19-7Z"/>
      <path class="cls-1" d="M19.47,815.75c.1,4.19-.38,1.78-.46,4-.12-.31-.07-2.5-.08-4,.28.5.36-2.18.54,0Z"/>
      <path class="cls-1" d="M22.81,814.75c.08,1.81.24,7.79.07,9-.32-.1-.1-5.15-.07-9Z"/>
      <path class="cls-1" d="M12.97,823.73c.35-.25.37,6.27.26,8-.11-2.36-.14-5.66-.26-8Z"/>
      <path class="cls-1" d="M24.77,829.75c.18,2.08.11,10.01-.2,10-.01-4.23.09-7.08.2-10Z"/>
      <path class="cls-1" d="M12.15,832.73c.3-2.52.66,2.62.71,6-.15-.37-.17.78-.18,2-.28-2.2-1.02-3.55-.8-8,.31-.75.14,3.68.35,3.99.21-.26.06-4.42-.08-3.99Z"/>
      <path class="cls-1" d="M6.2,833.72c.38-2.54.18,4.08.26,7-.53.7.06-4.98-.26-7Z"/>
      <path class="cls-1" d="M22.84,846.74c.33.68.15,6.88-.01,7.99-.15-2.65-.19-6.42.01-7.99Z"/>
      <path class="cls-1" d="M12.84,848.72c.52,1.53-.19,9.18,0,0h0Z"/>
      <path class="cls-1" d="M21.49,849.74c.37-.22.6,4.52.44,7-.21-1.65-.39-3.56-.44-7Z"/>
      <path class="cls-1" d="M6.33,856.71c.23-2.81.29,4.6.25,8-.4.09-.15-7.52-.25-8Z"/>
      <path class="cls-1" d="M14.08,859.72c.27,1.62.12,4.81-.01,7-.22-.96.13-3.84.01-7Z"/>
      <path class="cls-1" d="M21.99,867.73c.2.72.03,5.7-.19,5-.07-3.18.15-3.09.19-5Z"/>
      <path class="cls-1" d="M5.04,874.69c.32,1.7.33,5.23.26,9-.33-.84-.37-5.99-.26-9Z"/>
      <path class="cls-1" d="M13.78,877.71c.13.52.22,1.48.36,2-.03,1.15-.16,2.53-.18,1-.09.03-.07,1.22-.09,2-.13-1.22-.2-3.82-.08-4.99Z"/>
      <path class="cls-1" d="M21.89,877.73c.3.02.2,7.3.17,8-.21-1.88-.34-4.57-.17-8Z"/>
      <path class="cls-1" d="M13.14,878.71c.34-.87.42,3.33.26,5-.16-.91-.31-1.86-.26-5Z"/>
      <path class="cls-1" d="M20.35,878.72c.25-.15.26,2.45.26,5-.35.97-.36-3.9-.26-5Z"/>
      <path class="cls-1" d="M22.24,881.73c.23-3.37-.14,7.94.35,4.99,0,1.67,0,3.34,0,5-.22.16-.28-1.57-.45-2,.06-2.39.14-4.56.1-8Z"/>
      <path class="cls-1" d="M14.67,883.71c.07.19.09,1.01.18,1,0,.67,0,1.33,0,2-.11-2.88-.57,4.73-.63-1,.1-.16.16.22.18,1,.13-.55.22-1.56.28-3Z"/>
      <path class="cls-1" d="M5.11,886.69c.41.15.22,6.78.25,11-.28-1.51-.27-6.27-.25-11Z"/>
      <path class="cls-1" d="M21.96,887.72c.2.75.03,5.61.08,8-.42-.37-.16-5.22-.08-8Z"/>
      <path class="cls-1" d="M22.3,896.72c.25,1.54-.01,5.86-.19,6,.13,1.41.28,4.85.08,7-.36-4.18-.22-9.4.11-13Z"/>
      <path class="cls-1" d="M6.61,902.69c.19-.27.07,2.27.36,3-.05,2.37-.36,4.15-.54,2,.21-.73-.07-6.92.28-6,.01.85-.04.95-.09,1Z"/>
      <path class="cls-1" d="M22.08,919.71c.31.81.23,5.97.25,9.99-.2-2.03-.23-5.98-.25-9.99Z"/>
      <path class="cls-1" d="M5.86,920.68c.09,0,.18,0,.27,0,0,6.31.27,13.21-.03,19-.34-3.93-.15-12.4-.24-19Z"/>
      <path class="cls-1" d="M25.05,921.71c0,1.34,0,2.67,0,4-.22.15-.28-1.57-.45-2,.12-3.13.19-.52.45-2Z"/>
      <path class="cls-1" d="M13.86,932.69c-.29,1.11-.24.48-.45-1,.21-.73.17-4.23.28-6,.16.73,0,1.82,0,3,.04,1.57.28.86.17,4Z"/>
      <path class="cls-1" d="M9.89,933.68c.14-.29.15.94.27,1,0,2.36-.16,2.95-.1,6-.25-5.33-.18,2.09-.45-3-.02-2.63.35-.78.28-3.99Z"/>
      <path class="cls-1" d="M19.89,935.7c.04,3,.36,5.99.08,7-.16-2.16-.15-4.59-.08-7Z"/>
      <path class="cls-1" d="M14.3,936.69c.28-.75.1,3.44.45,2,.03,5.58-.22,3.45-.2,10-.54-1.45.13-8.79-.25-12Z"/>
      <path class="cls-1" d="M10.5,943.68c-.3-.09-.52,3.29-.9,1,.18-3.83.8-1.72.73-5,.19-2.63.31,2.11.17,4Z"/>
      <path class="cls-1" d="M5.98,950.67c.12,0,.24,0,.36,0,0,1.33,0,2.67,0,4-.1-1.5-.37-1.17-.35-4Z"/>
      <path class="cls-1" d="M22.47,952.7c.1-2.62.11,3.94.17,4.99-.41-.74.13,2.74-.27,2-.04-3.16.17-3.53.1-7Z"/>
      <path class="cls-1" d="M16.97,952.69c.22-.41.19,1.82.45,1-.1,1.21-.26,1.81-.19,5-.19-.91-.27-2.95-.26-6Z"/>
      <path class="cls-1" d="M6.24,959.67c.35,7.48.43,14.29.14,23.99-.21-5.82-.4-16.07-.14-23.99Z"/>
      <path class="cls-1" d="M8.3,963.67c.14,1.45.35,2.1.53,3-.03,2.35-.15,3.76-.1,7-.45,0-.34-6.12-.43-10Z"/>
      <path class="cls-1" d="M7.4,967.66c.06,0,.12,0,.18,0-.02.85.03.95.09,1,0,.97-.11.78-.18,1-.01,2.72.15,2.01,0,4-.2-.13-.03-4.25-.08-6Z"/>
      <path class="cls-1" d="M12.71,968.68c.02,2.34.14,3.75.08,6.99-.24-.69-.18-4.55-.44-5,.06-1.34.2-1.86.36-1.99Z"/>
      <path class="cls-1" d="M11.44,973.67h-.18c.01-2.73-.15-2.01,0-4h.18c.15,1.98-.01,1.27,0,4Z"/>
      <path class="cls-1" d="M9.62,983.66c.13,1.24.16,3.44.17,6-.37-.62-.18-2.75-.17-6Z"/>
      <path class="cls-1" d="M13.13,983.67c.08-.19.08.39.09,1,.02,1.61-.09,1.72-.1,3-.19-1.76-.26-2.26-.54-1-.09-5.16.54-1.45.55-3Z"/>
      <path class="cls-1" d="M19.53,983.68c.15-.28.15.95.27,1-.25,4.37.14,5.02.07,10-.22.15-.28-1.58-.45-2.01.13-4.4.11-5.11.11-9Z"/>
      <path class="cls-1" d="M25.21,983.69c.22-.39-.06,4.56.27,3-.1.93-.03,3.68-.28,3,.05-3.15-.19-3.91.01-6Z"/>
      <path class="cls-1" d="M19.07,989.68c.23-.05.11.74.09,2,0,.97.11.78.18,1,.01,2.18-.08,3.18-.28,3-.19-2.09.05-2.85.01-5.99Z"/>
      <path class="cls-1" d="M19.51,994.68c.11,1.38.42.61.54,1.99-.03,3.96-.31-1.12-.28,3-.28.46-.28-2.14-.26-4.99Z"/>
      <path class="cls-1" d="M4.82,995.65c.3.04.34,2.85.35,6-.16-1.58-.55-3.58-.35-6Z"/>
      <path class="cls-1" d="M18.88,996.67c.18.01.11,2.73.36,2,.02,2.65-.5-.94-.37,3-.21-.26-.04-4.4,0-5Z"/>
      <path class="cls-1" d="M22.56,1000.68c-.13,3.59,0,3.66-.1,7-.09-2.01-.31-7.7.1-7Z"/>
      <path class="cls-1" d="M19.95,1001.68c.21.26.04,4.4,0,5-.09-.03-.07-1.22-.09-2-.09.65-.1,2.3-.27,2-.21-4.29.31-2.19.37-5Z"/>
      <path class="cls-1" d="M25.25,1007.68c.18,1.59.02,7,.16,9-.44-.69-.18-4.42-.16-9Z"/>
      <path class="cls-1" d="M6.51,1008.65c.16-.28.18.95.09,1,0,.97.11.78.18,1,.06,3.46-.32,3.58-.45,2,0-1.98.25-1.27.19-4Z"/>
      <path class="cls-1" d="M19.76,1008.67c.12.66.16,2.14.17,4-.11-.16-.16.22-.18,1-.21-.25-.04-4.39,0-5Z"/>
      <path class="cls-1" d="M21.65,1008.67c.27.66-.09,2.14,0,4-.06,0-.12,0-.18,0-.05-.8-.09-1.62-.08-3,.13.08.25.16.27-1Z"/>
      <path class="cls-1" d="M22.19,1008.68c.33-.34.27,3.64.35,6-.41,1.14-.23-4.03-.35-6Z"/>
      <path class="cls-1" d="M20.84,1009.67c.1.84.24,1.32.45,1-.38,6.31.55,5.08.25,9.99-.24-2.75-.46-.61-.72-2-.14.85-.2,2.52-.19,5-.23-3.65.11-8.85.21-14Z"/>
      <path class="cls-1" d="M11.19,1011.65c.33-.92.15,5.28.08,6-.2-.13-.03-4.24-.08-6Z"/>
      <path class="cls-1" d="M19.3,1012.67c0,1.33,0,2.67,0,4-.28.74-.17-2.74-.45-2,.08-1.48.29-1.45.45-2Z"/>
      <path class="cls-1" d="M25.14,1020.68c.07.53.15,1.05.27,1-.39,3.89.06,11.96-.3,14.99-.08-5.21-.23-10.41.03-15.99Z"/>
      <path class="cls-1" d="M17.99,1039.66c.07.53.14,1.04.27,1-.03,3.39.06,8.1-.11,9.99-.35.82-.1-4.82-.44-4,.26-2.63.18-3.79.28-7Z"/>
      <path class="cls-1" d="M7.35,1040.64c.54,4.19-.07,10.99.33,15.99-.12,0-.24,0-.36,0,.18-7.62-.15-8.82.03-15.99Z"/>
      <path class="cls-1" d="M8.16,1040.64c.23,2.27.38,9.5.16,10.99-.33-.71-.11-7.29-.16-10.99Z"/>
      <path class="cls-1" d="M17.26,1045.65c.27,2.88.07,5.57.16,11-.15,0-.3,0-.45,0,.07-3.93.17-7.6.29-11Z"/>
      <path class="cls-1" d="M6.44,1049.63c.11,1.65.22,5.42.08,7-.14-1.4-.25-5.17-.08-7Z"/>
      <path class="cls-1" d="M17.68,1058.65c.45,1.7.32-3.16.46-5,.11,2.73.4,3.45.35,8-.34-1.45-.18,2.75-.45,2,.13-4.31-.43-1.24-.35-5Z"/>
      <path class="cls-1" d="M14.53,1055.65c.07-2.02.23,6.31.08,6.99-.34-.91-.06-4.02-.08-6.99Z"/>
      <path class="cls-1" d="M8.32,1055.64c.45.09-.25,7.71.26,7.99-.02.81-.09,1-.09,2-.08-.19-.09.39-.09,1-.11-2.54-.26-8.18-.07-10.99Z"/>
      <path class="cls-1" d="M23.09,1058.66c.47,3.04.4,8.99.33,15.99-.49-5.31-.04-11.83-.33-15.99Z"/>
      <path class="cls-1" d="M7.41,1060.63c.09,0,.18,0,.27,0-.02,8.9.17,15.46.05,21-.52-7.6-.18-12.41-.32-21Z"/>
      <path class="cls-1" d="M19.03,1060.65c.35-.65-.05,3.8.08,7-.34-.91-.06-4.02-.08-7Z"/>
      <path class="cls-1" d="M6.41,1062.63c.36-.61.1,5.49.17,8-.23-.75-.36-5.61-.17-8Z"/>
      <path class="cls-1" d="M6.39,1075.62c.36-.36.53,7.28-.01,6,0-2,0-4.01.01-6Z"/>
      <path class="cls-1" d="M23.33,1075.65c.25.02.21,4.72.08,6-.22-1.41-.15-3.45-.08-6Z"/>
      <path class="cls-1" d="M11.79,1079.63c.2,1.06.02,6.28.07,9-.22-.89-.23-6.99-.07-9Z"/>
      <path class="cls-1" d="M20.53,1079.65c.22,2.09.19,1.43.54,1-.59,1.24-.03,9.14-.65,10,.19-3.89.16-6.24.11-11Z"/>
      <path class="cls-1" d="M6.01,1083.62c.27-.03.3,4.63.17,6-.23-.12-.17-3.35-.17-6Z"/>
      <path class="cls-1" d="M7.63,1087.62c.4.09.29,8.93-.11,10-.06-4.45.13-6,.11-10Z"/>
      <path class="cls-1" d="M8.98,1089.62c.14,1.5.44,5,0,4.99.06-3.18-.16-3.09,0-4.99Z"/>
      <path class="cls-1" d="M20.15,1089.64c.38.4.07,8.37.16,11.99-.53-1.61.16-7.03-.16-11.99Z"/>
      <path class="cls-1" d="M5.55,1091.61c.3,1.03.3,5.3.34,8.99-.12,0-.24,0-.36,0,.08-3.98-.12-7.38.02-8.99Z"/>
      <path class="cls-1" d="M19.06,1093.63c.12,0,.24,0,.36,0,.06,3.06-.1,3.65-.1,6-.22-.58-.19-3.78-.26-6Z"/>
      <path class="cls-1" d="M21.04,1097.64c-.17-.45-.55,1.36-.45-2,.21-.58.42-1.53.45,2Z"/>
      <path class="cls-1" d="M9.22,1101.61c-.02-2.61.04-4.29.28-3.99-.04,2.41.16,2.17.08,4.99-.19.42-.24-.69-.36-1Z"/>
      <path class="cls-1" d="M5.71,1102.61c.33.16.32,11.19-.03,14,0-4.01-.3-9.91.11-13,.02-.85-.03-.94-.09-1Z"/>
      <path class="cls-1" d="M21.74,1105.64c.08-.18.08.39.09,1-.03,2.63.12,3.27.35,2.99-.21,4.55-.15,5.84-.11,11-.22-.41-.2,1.82-.45,1,.31-6.34.18-8.27.12-15.99Z"/>
      <path class="cls-1" d="M23.27,1106.64c.34-.8.11,4.73.17,7-.22-2.4-.26-2.96-.17-7Z"/>
      <path class="cls-1" d="M6.15,1109.6c.11,1.65.22,5.43.08,7-.11-1.65-.22-5.42-.08-7Z"/>
      <path class="cls-1" d="M6.86,1112.61c.06,3.46-.32,3.58-.45,2,.02-2.18.23-2.15.45-2Z"/>
      <path class="cls-1" d="M23.26,1116.64c.35,1.77.09,9.73.07,10.99-.2-1.03-.14-8.17-.07-10.99Z"/>
      <path class="cls-1" d="M22.62,1118.63c.17-3.32.44,5.56,0,4-.12-2.28.24-3.76,0-4Z"/>
      <path class="cls-1" d="M16.67,1119.62c.07,1.15.52,12.46-.03,13.99.2-8.13-1.06-3.24-.61-10.99.26,1.66.69,3.51.64-3Z"/>
      <path class="cls-1" d="M11.97,1128.61c.39,6.81-.34,9.73-.3,15.99-.54-2.28.1-7.09-.06-13.99.15-.28.15.94.27,1-.02-1.61.09-1.72.1-3Z"/>
      <path class="cls-1" d="M9.8,1133.6c-.24.29-.39-.37-.35-3,.16-1.81.35.3.35,3Z"/>
      <path class="cls-1" d="M18.27,1130.62c.28,1.8.18,7.61-.02,10.99-.32-2,.03-6.68.02-10.99Z"/>
      <path class="cls-1" d="M20.35,1130.63c.13.84.19,2.51.17,4.99-.31.7-.32-3.5-.17-4.99Z"/>
      <path class="cls-1" d="M6.28,1136.6c.09-1.86.15,9.99.16,9-.45,2.57-.14-5.04-.16-9Z"/>
      <path class="cls-1" d="M16.54,1140.62c.23-3.97.45,5.38,0,3.99-.12-2.27.24-3.76,0-3.99Z"/>
      <path class="cls-1" d="M12.04,1141.6c.25-.42.08,3.73.26,4.01-.06,1.34-.2,1.86-.36,2,0-2.47,0-4.82.1-6.01Z"/>
      <path class="cls-1" d="M13.38,1145.61c.25-.73.18,1.99.36,2-.02,3.2.07,7.65-.28,6.99.05-3.87-.15-4.88-.07-9Z"/>
      <path class="cls-1" d="M11.71,1173.6c-.09-1.38-.15.42-.27-2,.13-11.05-.31-15.63.14-24.99.16,0,.25,5.61.45,2,.11,8.1.27,14.96.14,22.99-.44-3.99,0-8.16-.16-13-.51.64-.03,10.76-.21,16.99-.1-.35-.23-1.76-.09-1.99ZM11.83,1157.6c.07-.74.25-6.92-.08-6.01.05,1.76-.12,5.87.08,6.01Z"/>
      <path class="cls-1" d="M13.54,1157.61c.2.42.03,4.92.08,7-.29-1.25-.09-5.11-.08-7Z"/>
      <path class="cls-1" d="M20.55,1166.61c-.32-1.98-.02-4.57-.07-8.99.14,2.58.18,6.26.07,8.99Z"/>
      <path class="cls-1" d="M23.27,1158.61c.31.82.07,15.87.06,19-.27-5.3.02-11.81-.33-17,.13,1.43.35,1.47.27-2Z"/>
      <path class="cls-1" d="M21.55,1160.61c.38,4.15.21,12.47.15,17-.26-4.07-.17-10.16-.15-17Z"/>
      <path class="cls-1" d="M12.99,1164.6c0,1.66,0,3.33,0,4.99-.27-3.92-.77-3.47,0-4.99Z"/>
      <path class="cls-1" d="M5.86,1169.58c.19-.89.16-4.26.46-3.99-.09,3.87.39,1.63.26,5.99-.1-.25-.06-1.99-.18-2-.09.98-.19,1.98-.28,3-.21.3-.09-2.89-.26-3Z"/>
      <path class="cls-1" d="M11.18,1167.59c.21,1.54.03,5.86.17,6.01-.31,3-.26-3.25-.17-6.01Z"/>
      <path class="cls-1" d="M13.61,1167.59c.15,1.02.09,4.25.17,6.01-.42,1.65-.28-4.86-.17-6.01Z"/>
      <path class="cls-1" d="M14.69,1167.6c.13.53.23,1.48.36,2-.1,2.71-.07,4.68.17,5.99-.12,1.66-.24,3.45-.46,4,.07-5.01-.07-7.74-.07-12Z"/>
      <path class="cls-1" d="M5.23,1168.58c.23.11.17,3.35.17,5.99-.12-1.5-.33-4.31-.17-5.99Z"/>
      <path class="cls-1" d="M12.7,1171.6c.18,2.34.46-1.97.45,2.99-.14,1.6-.41-.48-.45-2.99Z"/>
      <path class="cls-1" d="M16.12,1173.61c.27,1.51-.08,4.38-.01,7-.34-.87-.08-5.2.01-7Z"/>
      <path class="cls-1" d="M10.17,1174.58c.31-.33.37,4.7.26,6.01-.1-.36-.23-1.76-.09-2-.01-1.17-.16-.85-.27-1,.05-.8.1-1.62.1-3.01Z"/>
      <path class="cls-1" d="M7.38,1176.58c.15,3.48.44,10.59.06,14-.27-3.84-.25-8.91-.06-14Z"/>
      <path class="cls-1" d="M20.08,1177.61c.31,3.3.05,9.98.06,14.99-.22-1.98-.08-10.82-.06-14.99Z"/>
      <path class="cls-1" d="M18.71,1188.6c.06-3.2-.16-3.09,0-5.01.07.53.14,1.05.27,1-.06.81-.14,2.74,0,3,.02.84-.04.94-.09,1-.06,0-.12,0-.18,0Z"/>
      <path class="cls-1" d="M18.26,1189.6c-.08.18-.08-.4-.09-1-.13.23-.04,2.98-.19,2.99-.33.96-.07-4.49-.35-3.99-.04-2.78.49.78.45-2,.12.66.16,2.13.17,4Z"/>
      <path class="cls-1" d="M5.73,1188.58c.34-.7.2,7.56-.1,6,0-2.36.16-2.95.1-6Z"/>
      <path class="cls-1" d="M7.35,1191.57c.15-.28.15.96.27,1-.04,1.92-.04,4.31-.28,4,0-1.66,0-3.33,0-5.01Z"/>
      <path class="cls-1" d="M18.6,1197.6c-.04-.89-.08-1.78-.18-2,.09-2.75.36,2.33.28-3,.18.01.11,2.73.36,2.01.11,2.5-.36,3.13-.1,4-.08,2.93-.29-.6-.45,0-.02-.86.04-.95.09-1Z"/>
      <path class="cls-1" d="M5.27,1194.58c.29,1.25.09,5.1.08,6.99-.2-.43-.03-4.92-.08-6.99Z"/>
      <path class="cls-1" d="M7.34,1197.58c.34-1.3.35,5.92.17,7-.34.8-.11-4.73-.17-7Z"/>
      <path class="cls-1" d="M15.09,1197.59c.09,0,.18,0,.27,0-.08,2.46.01,6.91-.28,6.99.18-1.89.05-4.73.01-7Z"/>
      <path class="cls-1" d="M9.76,1202.58c.29.75.55,1.81.81,3-.07.72-.88,1.16-.81-3Z"/>
      <path class="cls-1" d="M7.32,1207.58c.16-.13.19,1.22.36.99-.09,5.87-.02,11.33-.12,14-.42-2.76-.15-7.91-.24-14.99Z"/>
      <path class="cls-1" d="M23.54,1209.6c.18.46.15,7.01-.19,5.01-.06-3.08.25-1.92.19-5.01Z"/>
      <path class="cls-1" d="M4.6,1214.57c.4,0,.06,5.86-.19,4.99-.06-3.08.25-1.92.19-4.99Z"/>
      <path class="cls-1" d="M4.49,1226.56c.09,0,.18,0,.27,0-.21,7,.2,11.29-.12,16.99-.38-6.13.08-11.29-.15-16.99Z"/>
      <path class="cls-1" d="M7.38,1226.56c.25,1.41.11,3.23.17,8-.36.61-.1-5.49-.17-8Z"/>
      <path class="cls-1" d="M18,1232.58c.44,2.11-.24,5.91.17,7-.21,3.17-.33-2.92-.35-5.01.08-.44.16-.88.18-2Z"/>
      <path class="cls-1" d="M22.4,1241.58c.11,4.01.04,15.32.06,18-.32-1.56-.15-14.41-.06-18Z"/>
      <path class="cls-1" d="M14.83,1242.57c.24,3.43-.22,7.69-.29,11-.38-4.93.15-6.63.29-11Z"/>
      <path class="cls-1" d="M20.05,1242.58c.3.04.64-.4.63,3-.27-.29-.62.16-.63-3Z"/>
      <path class="cls-1" d="M4.64,1244.55c.19.89.26,5.59-.1,4.99-.02-2.32.02-3.84.1-4.99Z"/>
      <path class="cls-1" d="M14.7,1261.56c.16,2.16.15,4.59.08,7-.1-1.5-.26-2.44-.26-4.99.08-.45.16-.88.18-2Z"/>
      <path class="cls-1" d="M17.13,1266.56c.24-.3.29,1.39.26,4-.24.3-.29-1.39-.26-4Z"/>
      <path class="cls-1" d="M18.2,1269.57c-.09,2.76-.35,3.52-.64,4-.03-4.13.43-2.65.64-4Z"/>
      <path class="cls-1" d="M7.03,1270.55c.36-.65.25,3.8.26,7-.23-.75-.31-3.19-.26-7Z"/>
      <path class="cls-1" d="M16.4,1270.57c.19.81.26,6.11-.1,5.99,0-2.46,0-4.81.1-5.99Z"/>
      <path class="cls-1" d="M15.41,1271.56c.2,1.39.02,6.96.07,10-.25-2.78-.15-8.05-.07-10Z"/>
      <path class="cls-1" d="M20.08,1275.57c.15-.28.15.95.27,1-.09,5.39-.17,7.99-.21,14-.35-2.69-.09-10.47-.06-15Z"/>
      <path class="cls-1" d="M11.79,1278.55c.34.92.1,8.03.16,12-.21-3.27-.24-8.07-.16-12Z"/>
      <path class="cls-1" d="M16.38,1280.56c.21,4.43.04,9.21.16,12.99-.59-1.07-.15-9.64-.16-12.99Z"/>
      <path class="cls-1" d="M7.09,1285.54c.13,2.71.34,4.53.17,8-.31-.74-.3-4.99-.17-8Z"/>
      <path class="cls-1" d="M18.97,1291.56c.39.93.13,3.15.26,6-.32.58-.27-2.96-.26-6Z"/>
      <path class="cls-1" d="M15.01,1293.55c-.01,4.67-.26,1.91-.54,2,.1-2.88.28-3.32.54-2Z"/>
      <path class="cls-1" d="M23.21,1293.57c.29.48.3,11.04-.2,9,.19-1.61.22-5.01.2-9Z"/>
      <path class="cls-1" d="M16.36,1294.55c.23,4.86.19,10.92.06,15.99-.16-6.62-.15-11.47-.06-15.99Z"/>
      <path class="cls-1" d="M19.96,1295.56c.19,1.24.24,3.92.44,4.99,0,2.68-.29,2.17-.28,5-.15-2.27-.18-5.86-.16-9.99Z"/>
      <path class="cls-1" d="M14.46,1296.55c.33-.96.07,4.49.35,3.99-.36,14.56-.22,5.15-.35-3.99Z"/>
      <path class="cls-1" d="M12.1,1304.55c-.3,2.22-.14,3.38-.28,6.99-.16-1.18-.06-5.21-.17-7,.17-1.88.23-.11.45,0Z"/>
      <path class="cls-1" d="M18.59,1304.56c.41.8.18,6.01.17,8-.12-.35-.14-1.76-.27-2-.06-3.06.16-2.94.1-5.99Z"/>
      <path class="cls-1" d="M17.95,1309.55c.33-3.17.07,5.51-.01,7-.42-1.81.18-5.82.01-7Z"/>
      <path class="cls-1" d="M14.52,1311.55c.33-.95.12,3.94.17,6-.29-1.44-.22-2.23-.17-6Z"/>
      <path class="cls-1" d="M5.51,1312.53c.02,3.38.31,14.15-.21,15.99.27-5.08-.08-8.85.21-15.99Z"/>
      <path class="cls-1" d="M8.48,1313.53c.2.13.03,4.25.08,6-.25-.02-.2-4.72-.08-6Z"/>
      <path class="cls-1" d="M7.11,1323.53c.3,3.41.34,11.83-.03,14-.01-3.22-.12-9.03.03-14Z"/>
      <path class="cls-1" d="M13.51,1323.54c.24-.28.39.37.36,3-.16,1.81-.35-.3-.36-3Z"/>
      <path class="cls-1" d="M8.46,1324.53c.21,1.12.39,11.03-.02,9.99,0-3.33.01-6.66.02-9.99Z"/>
      <path class="cls-1" d="M11.87,1332.53c.43,1.79-.03,8.97.16,11.99-.38-.4-.07-8.38-.16-11.99Z"/>
      <path class="cls-1" d="M21.96,1333.55c.41.37-.04,7.31.17,7.99-.47,2.01-.03-5.52-.17-7.99Z"/>
      <path class="cls-1" d="M4.39,1335.52c.33-.95.12,3.94.17,5.99-.23-.11-.17-3.34-.17-5.99Z"/>
      <path class="cls-1" d="M15.56,1335.54c.09,0,.18,0,.27,0,0,2,0,4-.01,5.99-.32-3.5-.03,5.65-.46,4-.17-6.56.39-6.04.2-10Z"/>
      <path class="cls-1" d="M12.49,1339.53c.36-.61.1,5.49.17,8-.14-1.76-.11-5.33-.17-8Z"/>
      <path class="cls-1" d="M23.2,1346.54c-.23-.1-.21-3.72-.08-5,.23.1.21,3.73.08,5Z"/>
      <path class="cls-1" d="M5.44,1351.51c.14,2.58.3,7.57-.11,8,.06-2.39.14-4.56.11-8Z"/>
      <path class="cls-1" d="M19.58,1352.54c.36,1.05-.02,4.06.08,8-.32-.55-.13-5.8-.08-8Z"/>
      <path class="cls-1" d="M15.44,1353.53c.11,1.03.21,10.51-.11,9.99.08-5.14-.04-6.39.11-9.99Z"/>
      <path class="cls-1" d="M22.38,1353.54c.26-.2.49-.13.45,3-.15,1.6-.41-.48-.45-3Z"/>
      <path class="cls-1" d="M8.49,1357.52c.32,2.59.04,6.27.16,9.99-.37-1.76-.15-6.05-.16-9.99Z"/>
      <path class="cls-1" d="M4.33,1365.51c.3-1.03.13,3.11.17,5-.23-1.28-.28-2.07-.17-5Z"/>
      <path class="cls-1" d="M7.85,1365.51c.22,1.4.15,3.44.08,5.99-.25-.02-.21-4.71-.08-5.99Z"/>
      <path class="cls-1" d="M5.59,1369.51c-.06,5.02-.06,5.97-.02,10.99-.5-.97-.04-6.58-.34-9.99.08-.78.2-1.08.36-1Z"/>
      <path class="cls-1" d="M8.38,1369.51c.09,0,.18,0,.27,0,.17,5.56.17,6.88.07,11.99-.48-1.51-.53-6.18-.34-12Z"/>
      <path class="cls-1" d="M4.41,1371.5c.3,6.42.05,14.4.05,20.99-.14-7.95-.14-14.06-.05-20.99Z"/>
      <path class="cls-1" d="M21.89,1371.53c.23,2.03.55,3.14.62,7-.2-1.09-.39-2.32-.63-3,0-1.33,0-2.67,0-4Z"/>
      <path class="cls-1" d="M4.77,1373.5c.11,1.9.21,6.4.08,8-.11-1.9-.21-6.4-.08-8Z"/>
      <path class="cls-1" d="M14.95,1375.52c.15-.16.14,6.16-.01,6-.41.03-.02-4.63.01-6Z"/>
      <path class="cls-1" d="M19,1378.53c.46,4.29.12,17.18.14,23.99-.65-7.09.08-11.13-.14-23.99Z"/>
      <path class="cls-1" d="M8.72,1382.51c.02,2.32-.02,3.84-.1,5-.17-.12-.06-3.3-.26-3,.02-1.75.16-2.28.36-2Z"/>
      <path class="cls-1" d="M16.2,1382.52c.22.93.43,1.82.63,3,0,4.41-.22-.1-.45,1,.15,13.8.11,23.83-.06,32.99-.4-10.06.01-24.24-.11-36.99Z"/>
      <path class="cls-1" d="M3.57,1386.5c.09,0,.18,0,.27,0-.08,3.21.13,3.12.26,4-.14,2.1-.56-1.06-.53-4Z"/>
      <path class="cls-1" d="M8.53,1388.5c.26.87.1,1.5.08,4,.06,1.02.21,1.04.18,3-.22.16-.28-1.57-.45-2,0-2.48.15-3.09.19-5Z"/>
      <path class="cls-1" d="M9.51,1389.51c.26,2.44.15,8.87.16,14-.35-2.64-.19-9.39-.16-14Z"/>
      <path class="cls-1" d="M22.58,1390.53c.12,0,.24,0,.36,0,.02,2.64-.19,2.57-.37,3,0-1,0-2,0-3Z"/>
      <path class="cls-1" d="M4.36,1401.49c.14,1.45.18,3.9.17,7-.34.8-.11-4.72-.17-7Z"/>
      <path class="cls-1" d="M21.74,1406.52c.16,5.42.12,7.59.25,14-.19.57-.3,2.86-.45.99-.05-2.59.04-3.59.28-3-.46-3.05-.11-8.66-.07-11.99Z"/>
      <path class="cls-1" d="M8.85,1407.5c0,1.33,0,2.66,0,4-.35.78-.34-4.79,0-4Z"/>
      <path class="cls-1" d="M23.26,1411.52c.1,1.18.1,3.53.08,6-.4.16.05-2.82-.17-4-.4,5.98-.05,2.96-.54,0,.13-1.54.35-2.1.63-2Z"/>
      <path class="cls-1" d="M19.3,1412.52c.06,2.09-.09,5.52-.11,10.99-.57.57-.14-3.61-.35-7,.21-.67.31-2.55.46-3.99Z"/>
      <path class="cls-1" d="M8.75,1414.49c.08,2.23.07,7.39.07,13-.32-3,.1-8.66-.34-11,.03-3.48.24.08.27-2Z"/>
      <path class="cls-1" d="M9.46,1417.49c.31,2.57.23,10.56-.03,15,.18-5.14-.04-8.56.03-15Z"/>
      <path class="cls-1" d="M20.36,1421.51c.12.31.07,2.5.08,4-.16-.92-.48.03-.45-3,.14-.08.34.48.36-1Z"/>
      <path class="cls-1" d="M3.32,1425.48c.36,2.11.64-.27.71,4-.01-1.28-.55-1.29-.27,0-.16,3.52-.14-2.89-.45-1,0-1,0-2,0-3Z"/>
      <path class="cls-1" d="M16.21,1425.5c.41.3.08,4.2.08,5-.03,10.52-.13,7.11-.08-5Z"/>
      <path class="cls-1" d="M21.61,1428.51c.29.43.06,6.51.53,4.99-.19,2.91-.57.65-.37,6-.54-2.17.03-5.16-.16-10.99Z"/>
      <path class="cls-1" d="M17.54,1434.5c-.28.7-.17.7-.45,0,.04-2.67.49-4.69.45,0Z"/>
      <path class="cls-1" d="M23.22,1432.52c.26,1.53.16,5.01.08,8-.2-.74-.02-5.61-.08-8Z"/>
      <path class="cls-1" d="M16.99,1439.5c.35-.79.34,4.79,0,4,0-1.34,0-2.66,0-4Z"/>
      <path class="cls-1" d="M18.61,1442.5c-.18,0-.36,0-.54,0,.02-1.48.6-4.01.54,0Z"/>
      <path class="cls-1" d="M4.55,1445.48c.09-.03.07-1.22.09-2,.08.78.2,1.07.36,1,.11,8.32-.13,9.07-.03,18-.18,0-.36,0-.54,0-.07-1.16-.11-2.68-.08-5,.16,1.16.05,5.3.44,4-.41-8.75.38-10.26-.24-15.99Z"/>
      <path class="cls-1" d="M23.02,1445.51c.18,1.91-.01,7.98.35,8-.26,3.09-.48-2.52-.53-5,.08-.73.14-1.81.19-3Z"/>
      <path class="cls-1" d="M6.88,1451.48c.13,1.7.16,7.01.08,8-.06,0-.12,0-.18,0-.05-.81-.09-1.62-.08-3,.37.7-.09-3.5.19-5Z"/>
      <path class="cls-1" d="M7.68,1455.48c.2.12.03,4.24.08,6-.25-.02-.21-4.71-.08-6Z"/>
      <path class="cls-1" d="M6.06,1458.47c.11,1.82.25,6.03.08,8-.11-1.89-.21-6.4-.08-8Z"/>
      <path class="cls-1" d="M9.84,1459.48c.09,0,.18,0,.27,0-.16,5.82,0,13.5-.12,17.99-.19-4.47-.17-11.25-.15-17.99Z"/>
      <path class="cls-1" d="M6.22,1466.47c.27,1.51-.08,4.39-.01,7-.47.21-.16-5.83.01-7Z"/>
      <path class="cls-1" d="M16.04,1470.49c.28-1.53.27,6.53,0,4.99,0-1.66,0-3.33,0-4.99Z"/>
      <path class="cls-1" d="M18.1,1475.49c.32.85,0,2.46.08,6-.3-.58-.12-3.78-.08-6Z"/>
      <path class="cls-1" d="M4.31,1476.46c.16.92.19,3.12.17,6-.08-.78-.2-1.08-.36-1-.07-3.19.15-3.09.19-5Z"/>
      <path class="cls-1" d="M16.84,1476.48c.24,0,.48,0,.72,0,.1,4.29-.69,2.76-.72,0Z"/>
      <path class="cls-1" d="M4.67,1479.46c.4-.49.09,6.86.53,6,0,.97-.11.77-.18,1-.11.16-.08,1.82-.1,3-.17-2.81-.38-6.69-.25-10Z"/>
      <path class="cls-1" d="M17.79,1496.48c-.11,1.82-.47.79-.63,2-.02-3.45.48-3.66.63-2Z"/>
      <path class="cls-1" d="M13.99,1507.47c.33-.92.15,5.27.08,6-.18-1.89-.15-3.5-.08-6Z"/>
      <path class="cls-1" d="M4.14,1519.45c.29-1.48.42,5.74.08,5-.02-1.61.09-1.72.1-3-.15.37-.17-.78-.18-2Z"/>
      <path class="cls-1" d="M4.68,1520.45c.09.27.45,18.69-.13,19.98.09-4.85.13-11.65.13-19.98Z"/>
      <path class="cls-1" d="M6.48,1523.44c.34-.86.31,4.48.17,6-.23-.11-.17-3.35-.17-6Z"/>
      <path class="cls-1" d="M18,1529.47c.28,3.74.41,3.85-.1,6,0-2.36.16-2.94.1-6Z"/>
      <path class="cls-1" d="M6.46,1532.44c.09,0,.18,0,.27,0-.06,2.39.1,7.25-.1,8-.49-1.93.01-4.73-.16-8Z"/>
      <path class="cls-1" d="M5.64,1538.44c.49,1.5.14,12.21.33,16.99-.37-2.88-.23-11.24-.33-16.99Z"/>
      <path class="cls-1" d="M3.38,1540.43c.2.13.03,4.25.08,6-.51-.62-.02-2.22-.08-6Z"/>
      <path class="cls-1" d="M4.15,1566.43c.69,4.3.05,12.01.23,20-.43-5.07.11-13.38-.23-20Z"/>
      <path class="cls-1" d="M19.29,1567.45c.03,3.12-.2,3.2-.46,3,.07-1.98.25-2.67.46-3Z"/>
      <path class="cls-1" d="M21.8,1570.46c.08,1.76.28,2.91.08,4.99-.31.39-.13-4.42-.54-3,.08-1.48.23-2.15.45-1.99Z"/>
      <path class="cls-1" d="M4.95,1572.42c.43.95-.09,6.56-.28,7.01,0-1.67,0-3.34,0-5.01.07.53.15,1.04.27,1,0-1,0-2,0-3Z"/>
      <path class="cls-1" d="M18.36,1578.45c-.14,3.01-.39-.83-.63,0,.04-3.38.43-.57.63,0Z"/>
      <path class="cls-1" d="M20.23,1592.45c.21.98.57.33.53,4-.14-1.71-.57-.39-.53-4Z"/>
      <path class="cls-1" d="M21.84,1598.45c.07.53.14,1.04.27,1-.19,2.81-.17,4.1-.1,8-.12,0-.24,0-.36,0,.19-1.6.22-5,.2-8.99Z"/>
      <path class="cls-1" d="M12.95,38.04c.5.69.83,2.96,1.26,0-.04-3.64-.21-5.97-.07-9,.82.51,1.48,7,2.33,10.01.13-1.12-.05-7.3-.16-9,.11-3.57.49-3.96.56-8,.41.15.35.82.72,0,.27,4.58.73,7.05.97,11.99-.03,2.04-.25,1.96-.28,4,.17,2.48.35,8.71.16,12,.36-2.16.51,4.52.35,8,.39-4.5.93-1.52,1.01-10-.31,3.07-.3.67,0-1-.04-1.48-.12.39-.27,0-.02-1.62.09-1.72.1-3-.16-2.51-.45-3.56-.71-4.99.16-1.62.23-4.19.2-8.01.45.02.36,7.75.8,5,.04,2.5-.01,6.03.26,6-.18.69.01,5.58-.19,5.99.17,1.05.36,2.01.53,3-.04,2.23-.44.4-.63.99-.12.98-.12,3.37-.28,4,.23,8.67,1.08,5.71,1.42,14,.2-.42.01-5.31.19-5.99-.03-1.41-.16-.09-.18,1-.28.3.23-2.89-.08-3,.03-2.06.34-.94.37-3,.17,3.9.42,1.76.9,3,.02,3.74.18,5.83.62,5,.03,4.56.52,4.19.43,9.99.15,0,.3,0,.45,0,.11,2.71.21,5.55.16,10-.11,1.15-.32,1.13-.54,1,.03-2.32,0-3.84-.08-5-.13-.02-.29,4.21-.27,0-.13.85-.2,2.51-.19,5,.04,1.48.12-.4.27,0-.43,4.64.5,4.38.17,8,.4-1.36.43.21.53,4,.25-3.43-.05-7.58.11-11,.57,3.9-.08,21.15.77,21.99-.1,4-.2,7.96-.29,11.99.53,8.9.54,24.52.29,39.99.22.39-.04-4.56.28-3,0,6.22.06,11.06.24,19-.1-.84-.24-1.32-.45-1,0,.66,0,1.33,0,2,.05,2.99.2-.96.36,0,0,3.15-.37,1.94-.46,3.99.08,3.33.36-.27.54,3.01.03,1.88-.46,4.59,0,4.99-.02,1.18-.17.84-.27,1,.09,1.35.24,2,.35,3-.22,4.91.14,10.3-.38,11.99.34,1.52.45,14.79.23,23,.14-5.09-.4,4.96-.37,4.99.06,1.34.19,1.86.36,2,.01,6.62-.05,12.4-.56,12.99,0,1.66,0,3.33,0,5.01.28-1.42.41-.46.63.99-.33,4.82-.12,5.64-.2,11-.22-.41-.2,1.83-.45,1-.08,6.27.34,1.9.53,4-.39,3.24-.37,7.11-.11,10.99-.37-4.59-.36,4.05-.28,5.99.14.43.31-3.73.1-3.99.27-3.51.45,7.76-.1,5.99,0,1.34,0,2.67,0,4,.03,2.25.53-.53.35,4-.21-.31-.37-1.96-.54,0,.08,2.74.32-1.78.45,1-.29,5.75.12,11.33-.04,21-.19-.43-.24.68-.36,1,.03,1.36.22.83.36,1-.09,10.44-.19,15.39-.32,25.99.05,2.99.19-.95.36,0-.39.72.09,5.34.08,6-.04,3.77-.44,7.86-.47,13-.06,9.46.11,18.75.04,28.99-.12,0-.24,0-.36,0,.04,3.8.18,6.99-.11,9.99.2,3.57.24,5.08.25,9-.09,0-.18,0-.27,0,.19,5.54.3,11.15-.03,14.99.3,4.55.02,12.56-.3,16-.03,2.03.26-.21.27-1,.41,6.16-.13,12.44-.21,18.99.17,2.64.54,8.4.07,10,.08-4.01.15-6.97-.26-5-.12,2.48.26,4.15,0,5,.03,1.35.22.83.36,1,.11,5.97.3,10.71-.12,13.99.13,1.99.37-1.56.26,4-.44-.67-.38,4.29-.28,7-.1-.16-.16.22-.18.99-.11-.43-.18-1.27-.18-2.99-.2-.18-.29.82-.28,2.99.07,1.49.22,2.16.45,2-.03,3.74-.22,5.68-.38,8,.05,3,.19-.96.36,0-.27,10.49.17,19.97-.32,26.99.08,2.8.24-1.45.36,1-.03,4.73-.36,4.74-.54,2-.13.43.03,1.28,0,2.99.15,0,.3,0,.45,0-.43,8.78-.4,16.82-.23,25.99-.36-2.47-.39,1.49-.37,5.99-.12,0-.24,0-.36,0,.3,3.76-.17,4.83-.19,8,.19,2.65.6-4.79.81-2-.2,2.64-.24,3.32-.28,5.99.04,1.48.12-.39.27,0,.04,3.16-.17,3.53-.1,7-.12-.35-.14-1.76-.27-1.99.02.61.22,3.85,0,3.99.03,1.93.35.8.26,4-.29,1.13-.24-.28-.45,1-.02,2.04.45,6.26.45,1.99.12.66.16,2.14.17,4-.28-.51-.36,2.18-.54,0-.02,1.77.08,5.01-.19,3.99.05,3.67.15,6.86-.11,9-.16-.73-.01-1.81,0-3-.28-.45-.29,2.13-.28,5,.27,1.04.25,5.56.16,10,.18-.41.08-3.88.37-3,.09,4.38-.31,3.29-.28,7,.34-2.16.32,4.71-.01,6.99.08,2.81.24-1.45.36,1,.03,6.42-.25,9.45-.65,11-.02-2.64.19-2.58.37-3-.04-.89-.08-1.79-.18-1.99-.1.88.05,2.79-.36,1.99-.02,4.92.14,4.29.35,5.01-.11.66-.52,5.75-.1,5.99-.09,3.35-.2.87-.36,0-.14.02.04,4.72.08,5.99.09-.02.07-1.22.09-2,.13,2.71-.18,9.6.43,9-.01,2.57-.35,1.43-.37,4-.12-1-.17-2.7-.35-3,.13-3.16.03-3.34.01-7-.23,1.12.02,7.73-.2,9,.04,3.85.35-.77.54,2-.25,4.31.14,4.21.07,9-.13-.23-.03-2.99-.18-3-.24,1.78-.01,6.59.26,6-.02,3.55-.29-2.12-.27,1-.13-.22-.03-2.98-.17-2.99,0,.92-.12,6.26-.01,8,.18-.63.03-5.05.37-4-.29,6.07-.04,7.53-.38,11,.08,1.76.2,3.09.35,3.99-.15.67-.58,7.51-.01,7,.12,5.4-.25,5.31-.29,9,.07,2.94.29-.59.45,0,0,1.34,0,2.67,0,4-.77-3.28,0,12.69-.48,16.99.06.93.16,1.51.27,2.01-.24,2.67-.01,5.91.08,7.99-.08-.78-.2-1.07-.36-1,.22,7.85.39,10.25.15,18.99-.21-.84-.24-6.14-.08-8-.04.77-1.02-.42-.81,1.99-.1.12-.37-.05-.63-1-.03-1.7.07-1.88.18-1.99.02-2.85-.59,1.2-.44-3.01-.21,1.5-.14,2.44-.1,4.99-.62-.89.01-10.4.2-11.99-.15-2.45-.43.16-.63-3-.45,8.02.18,15.68-.31,22,.04,1.47.12-.4.27,0-.12,2.48.19,4.85,0,5-.26-1.36-.08-3.13-.54-3-.07,3.42.36,1.27.26,5.01-.3,2.42-.66-.59-.46,4.99-.26-.39-.17-4.71-.35-6,.03,3.47-.37,3.54-.38,9-.32-4.58.2-15.96-.97-13-.1.25-.06,1.99-.18,2,0,2.8.25-2.38.18,2,.17-.43.17-2.86.45-2,.06,6.85.6,14.38-.21,16.99.36-4.47-.53,2.6-.35-4-.52.19-.84,6.38-1.09,2.99-.1,1.45-.1,10.42.34,12-.18,6.21-.3-.61-.19,8,.14-4.23.33-1.68.73-3,.02,5.2-.43,1.19-.55,3,.06,2.1.23,4.44.08,5.99.02,1.09.18.68.18,2,.35-2.41-.24-5.32.01-7,.25-.17.31,1.54.17,3,.21.83.43-4.94.45,0,.12-.31.08-2.5.1-3.99.48,2.94,0,8.83.43,9.99-.24.29-.67-1.41-.55,3-.2.18-.29-.82-.27-3-.19.97-.2,3.83-.19,7-.2.78-.36,2.1-.63,1.99-.14,3.81.4.21.26,4-.41-3.05-.13,3.58-.55,3,.03,3.44-.05,5.6-.1,8-.3-1.01-.26-1.73-.08-4-.16-3.62-.25,1.77-.45,1,.31-5.22.02-8.74.03-14.99.16,4.08.47,2.58.27-2-.27-2.02-.28-2.38-.17-8-.09-2.44-.4,1.95-.35-3,.26,2.16.3-4.86.73-3.99.13-.85.14-3.22.19-5.01-.04-.88-.08-1.78-.18-2-.17-.4-.14,4.56.08,3-.17,1.83-.25,4.6-.64,4,0-1.33,0-2.67,0-4,.15-.28.15.95.27,1,.1-3-.2-1.77-.36-2-.11-2.5.42-2.42.1-3.99.23-2.65.56,1.76.64-3,.05-3.14-.31-2.64-.08-4.99-.27-2.19-.82-3.58-1.08-3-.05,1.29-.1,2.07-.19,5-.15,0-.3,0-.45,0-.13-8.12.29-6.16.11-10.99.43-.43.36,2.11.17,4,.26,1.39.46-2.73.54,0,.21.39-.04-4.56.28-3-.11-3.04-.31,1.08-.54,0,.31-3.7-.56-.45-.44-5.01-.07.19-.09,1.01-.18,1-.27.87.21,1.5.08,4-.73-6.04.6-12.69.12-19-.16.88-.27,3.17-.45,1-.14,3.8.4.19.26,4-.35-2.06-.59-1.31-.89-5,.06-1.69.21-.63.18,1,.16-.89.23-2.79.54-2,.09-4.28-.25-3.86-.26-7,.4,1.12.33-3.07.46-4.99.07-2.71-.43.71-.36-2-.03-3.03.3-2.07.46-3,.14,2.39-.04,4.41.08,7,.25-.92.43-1.58.54,1,.07-.19.09-1,.18-1-.02-1.09-.18-.68-.18-1.99-.03-1.7.07-1.89.18-2-.18-2.98-.37,2.51-.63,2,.02-3.56.24-8.58-.07-10,.01-2.57.35-1.43.37-4-.25-.28-.67-9.06-.25-12.99,0-4.98-.55-1.63-.72-2,.2,2.99-.14,6.12.17,7,.12-.31.08-2.5.1-3.99.5,3.6-.1,11.82.24,15.99-.26-.12-.59.54-.72-1-.12-2.87.25-5.08.01-5.99.04-2.77.28-.06.18,1.99.36-5.06-.49-7.94-.16-12.99-.2,6.39-.33,16.7-.23,24.99-.27,2.93-.61,5.13-.91,4.99.09,2.27.57.39.81,1-.15,1.99,0,1.28,0,4-.31.8-.34-1.5-.63-1-.29,1.51-.05,4.31-.19,5.99.13,2.15.22-.71.45,1,.05-2.13-.13-1.91-.27-2-.06-2.73.18-2,.19-3.99.53,1.59.22,14.67.79,12.99-.2,1.18-.42,2.07-.64,3-.36-4.66-.73.93-1.17,2,.05,2.03.27,1.95.08,3.99-.16.13-.19-1.22-.36-1-.05,5.61.55-1.01.44,6-.19-.57-.25-2.48-.54-2,.43,6.21.6,5.78.88,11-.21,0-.42,0-.63,0-.17.11.1,3.35-.01,6,.29.18.44-2.35.45,2-.23-.13-.28-1.91-.36.99.09,2.68.24,4.6.35,7,.03-2.04.43-5.58.36,0,.16-.92.2-3.13.19-6,.05.58.4,9.55.07,12-.2-4.35-.35-3.77-.89-5,.11,4.02.17,2.46-.01,6,.01,1.17.16.84.27,1-.27,5.75,0,10.71.15,18,.07-.52.15-1.04.27-1,0-1.98-.24-1.27-.17-4,.31.92.64,1.5.9,3-.25,2.41.06,5.28-.37,6,.2,1.83.29,4.11.17,7-.28.16-.3-2.66-.63-2.01-.09,4.61.48,1.92.62,4,.12-.31.08-2.5.1-4,.19.99.36,7.1.45,1,.18,3.48-.11,10.28-.56,10,.16-5.04-.62-2.79-.35-6-.45.8-.35,6.13-.2,9-.11-.16-.16.22-.18,1-.1-.25-.06-1.99-.18-2-.08.45-.16.88-.18,2,.57.79.54.12-.1,4,.07,2.36.51-2.29.44,3-.32-.75-.41,2.62-.28,4,.19-3.74.16.64.54,0,.07,3.21-.24,2.07-.28,4-.1-.25-.06-1.98-.18-2-.08.45-.16.87-.18,2,.01,1.85.3.62.36,2,.25.19.23-3.94.36,0,.03-.3.14-4.2,0-5,.32.19.49-2.7.73-2,0,3.15-.37,1.95-.46,4,.13,1.83.09,5.6.26,7,.2-2.05-.12-6.83.37-7-.22,4.29.22,2.77.36,2,.1.19.05,1,0,1-.02.85.03.95.09,1-.18,1.84-.5-3.31-.55,3,.46,1.25,1,5.89,1.26,1.01-.02,1.15.02,1.77.09,1.99-.01,3.04-.59,2.34-.72,1-.51,3.04.16,10.51-.47,12.99.23-.92.31,3.12.62,4,.03-1.43.21-5.2.2-10h-.18c.09-2.47.34,1.38.63,0-.66.39.06,7.44-.46,7-.07,4.35.15,5.53.35,7,.34-2.77-.07-4.68.1-7,.35.78.47-.44.63,1,.13-.22.04-2.98.19-3-.01-1.17-.16-.84-.27-1,.05-2.5.25-3.34.28-5.99-.52-3.11.17-7.33-.34-12,.65-6.12-.37-9.87.38-10.99-.36-6.09-.03-10.31.03-16.99-.08-2.8-.24,1.45-.36-1,.06-2.32.3-2.68.37-5,.68,6.23.11,12.01.32,20.99.62-2.22-.32-22.37.41-26.99.11-.7.27,4.65.36,0,.32,1.13,0,9.25.43,9-.39,5.68-.03,7.48-.2,12.99,0,.97.11.77.18,1,.04-3.82.13-7.29.29-11.99.19,1.76.26,2.25.54,1-.32,4.24-.18,4.71-.11,11-.15,0-.3,0-.45,0,.17,4.05.35,8.51.16,13.99.54-.37.17-8.33.11-10.99.08-.18.08.39.09,1,.08,2.7.21-2.29.36-2-.33-2.83-.07-6.1.02-10.99.12.35.14,1.75.27,2-.05-3.06-.57-10.3-.07-12.99-.16-2.57-.05-7.92-.25-10,.24-1.7.2-7.98.11-13,.12.36.14,1.75.27,2-.5-7.75-.1-14.02-.32-23.99.03,2.27.44,2.27.18,0,.14-3.3.22,2.08.45,1-.06,3.8-.27,5.74-.38,9,.07,2.93.23-1.3.45,0-.02,6.14-.13,9.11.25,12-.31,2.81-.02,6.07-.29,9,.01,1.18.16.84.27,1-.37,3.85.05,6.93-.02,13-.09,0-.18,0-.27,0,0,1.41,0,2.82-.1,3,.38.08.33,10.62.51,17.99-.09,0-.18,0-.27,0-.05,7.47.53,5.36.52,14,.23-1.27.28.51.36-1,.08,2.15.13,8.74-.11,9,.09,1.36.3,1.3.35,3-.43,2.19-.72-.29-1.08-1-.08,3.76.48.69.35,4.99.21.03.27-1.72.54-.99-.16,4.67.05,4.39.26,7-.31,2.09.04,3.76-.1,5,.02-.66-.25-.08-.46,4,.07,2.95.08-3.02.36-1,.05,2.04-.18,5.51,0,3,.25.43,0,3.14-.18,2,.24,3.23.62,4.98.8,9,.06-6.34.26-12.67-.05-19.99.27-1.48.33,1.12.45-2,.05-3.14-.22-2.82-.35-4,.07-3.4.3-.98.36,1,.24-1.33.18-4.44.1-7-.66,2.85-.38-6.15-.44-8,.23-3.36.33,2.88.26,6,.34-1.85.51,2.47.9,3-.15,2.17-.16,9.01.07,10-.09,2.69-.21,5.13-.28,8,.03,1.4.16.08.18-1,.36,3.19-.24,3.98-.28,6,.05,3,.19-.96.36,0-.07,3.08-.07,1.92,0,4.99-.34.18-.9-.48-.62-4-.14-.28-.16.95-.27,1,.14,4.63.49,7.83.89,7,.06,3.71-.39,1.72-.46,4,.09.65.54-.17.44,5-.12-1.2-.14-.39-.27,0,.09,1.35.24,2,.35,3-.11,5.7-.06,11.19-.03,16.99-.07.53-.15,1.04-.27,1-.07,3.08.24,1.92.17,5-.35,1.75-.45,5.96-.56,8-.12-1.01-.33-.98-.45-2,.39-5.28-.5-14.34.12-19-.41-6.67-.42-13.9-.15-18.99,0-1.71-.06-2.59-.18-3-.29.43-.09,6.53-.55,5,0-.97.11-.77.18-1,0-2.34-.15-2.94-.08-5.99-.62,12.51-.16,15.31-.23,25.99-.35-.45-.15-6.89-.34-9-.17,3.12-.35-.32-.54,2-.21-.31-.2-3.09-.35-4,.07-2.3.56-.97.45,2,.2-.55.13-5.79.37-3,.18-4.86-.18-4.42.02-9-.54-3.97-1.35-2.45-1.36,5.99.57,9.05-.41,21.84.39,32.99-.6,6.55-.11,12.36-.3,17.99.28.46.29-2.13.28-5,.39,2.31-.17,4.11.17,7-.53-.54-1.03-1.73-1.18,4,0,.97.11.77.18.99-.23.8-.06,6.13-.37,6,.05-5.37-.23-8.36.2-10.99-.1-1.21-.25-1.82-.17-5-.5,4.37-.17,13.44-.39,18.99.1,1.13.43,1.1.26,7,.26-.12.16-4.26.46-4,0,4.37.04,2.51-.1,7,.09,1.37.15-.43.27,2-.35,2.75-.91,7.75-.66,14,.07-.88.18-3.88.28-7,.1,2.15.18,4.58.26,7-.22-.15-.44-.19-.45,2,.08,3.36.17.49.45,1-.16,2.12-.58,4.25-.19,7-.22.92-.15,5.07-.37,6,.08,2.72.21-3.04.36,0-.46,2.76-.66,2.96-.74,9,.02,1.27.27,1.31.27,0-.18,3.74.13,10.94.15,15.99-.15.28-.15-.94-.27-1,.01,1.16-.02,1.79-.09,2,.02,1.13.09.56.09,0,.12,10.31.39,21.7.12,33.99-.02,1.71.15,2.58,0,2.99.09,2.44.4-1.95.35,3-.18,1.66-.11-.09-.36,0-.12,2.48.26,4.15,0,4.99-.29.25.05-6.26-.26-8-.15-.36-.17.78-.18,2-.32-.54-.13-5.8-.08-8,.17.15.05,3.39.17,4.01.14-2.68.32-4.97.2-8.01-.09.65-.1,2.3-.27,2-.26-2.93.1-4.04.19-5.99-.08-2.71-.32,1.02-.45,1,.05,1.45-.12,5.16.08,4.99-.34,1.34-.12-11.14-.07-12.99.23.1.14,3.73.26,4.99.28-1.28-.19-4.75.19-4.99-.09-1.66-.38-1.08-.54-2-.05-7.68-.17-19.72-.22-25.99.28,1.12.2.1.54,0,0-2.18-.22-2.15-.45-2,.25-2.71-.23-2.49-.17-6,.22-.41.19,1.83.45,1-.02-3.53-.23-2.58-.45-2,.06-16.18-.14-38.3-.25-60.98.09,0,.18,0,.27,0-.28-.57-.21-4.91-.35-7-.27.85.11,2.51,0,5-.13-.56-.22-1.56-.27-3-.16.24-.21,1.72-.19,4-.49,1.14-.57-8.37-.25-10,.19.3-.14,2.7.18,3,.19-.28-.13-2.67.1-4,.13.85.12,3.22.17,5,.19-1.25.25-3.92.46-5-.53-1.67.1-10.22-.43-10.99.21-3.3.23.2.28-4-.54-4.78-.14-13.86-.32-21.99.46,5.13.17-4.87.1-7.99.07.19.09,1,.18,1-.17-1.91.06-1.81,0-5-.44,1.67-.03-6.36-.35-4-.27-1.56.16-3.48.28-4-.01-1.17-.16-.84-.27-1,.3-1.6.06-3.03.1-7,.13,1.12.22,1.08.27-1,.01-5.91-.53-.01-.62-4-.19.26-.03,4.4-.19,5,.04,1.23.11,2.05.27,2-.48,5.82-.25,9.27-.12,16.99-.16.88-.27,3.17-.45,1-.11,1.64-.02,3.35-.01,7-.21-5.99-.53-16.33.04-20-.09-1.65-.38-1.09-.54-2-.07,3.08.24,1.92.17,5-.32-5.9-.67,1.3-1.17-1,0,.66,0,1.33,0,2,.13,1.74.39-1.02.54,2,0-.67,0-1.33,0-2,.02,4.76.03,13.89-.04,20-.12,1.28-.34,1.28-.45,0,0,1,0,2,0,3,.29.86.28-1.57.45-2,.21.59-.22,2.1-.28,3,.04,2.8.12,5.19.17,8-.54-2.46-.18,4.49-.37,8-.32-1.54.09-5.93-.35-7,.15-5.42.17-7.75-.07-11.99-.28,1.22.12,3.82-.1,5-.81-1.91-.57,2.13-.11,8-.31-3.66-.72-1.27-.99,1-.07-3.82.2-3.87.37-5-.16-1.52-.37-2.51-.44-5,.03-2.06.4-.23.37-3-.16-2.46-.81-2.06-.62-7,.13.22.03,2.98.17,3,.21-4.46-.05-4.34-.35-4,.02-3.7.14-2.51.36-2-.26-.77-.21-4.94-.44-6-.12.31-.08,2.5-.1,4-.13-.88-.28-1.5-.26-4-.26,2.88-.39,3.21-.72,1-.07.19-.09,1-.18,1,0,1.86.05,3.35.17,4-.04,1.92-.41.09-.28,4-.29-2.47-.47-.08-.81-2,.37-3.38.02-1.21-.09-2-.3-2.28-.05-7.13-.43-9,.17-2.12.42-3.43.73-4,.03-1.62-.08-1.72-.09-3-.2.84-.31,2.59-.63,2-.11-4.64.25-8.01-.25-10.99.07-.93.17-1.51.27-2-.17-20.88-.46-29.62-.36-49.98.17-.14.3-.65.36-2-.12-2.92-.31,1.77-.54.99.22-16.93-.04-29.18-.1-45.98-.15-.04-.24.75-.27,2-.1-.92-.03-1.86-.08-5,.28,1.1.25.65.36-2-.03-1.36-.22-.83-.36-1,.03-1.76.16-2.28.36-2,0-4.67.02-9.33.03-13.99-.35,1.39-.12,3.46-.37,4.99-.62-6.13.82-4.43.48-13.99-.33-.28-.21,4.38-.37,5.99-.3-3.15-.34.27-.72,0,.08.81.05,2.74.17,3-.27,1.27-.27-2.51-.19,4-.34-1.21-.13-8.37-.34-11,.02-1.45.27-.35.27-2-.3-8.12-.4-21.26-.04-29.98.37-.7-.1,3.49.17,4.99.16-.9.16-3.68.37-3.99-.2-3.56-.06-5.03-.07-11-.07,1.51-.27,7.36-.27,1-.17.42-.17,2.85-.45,1.99.11-1.83.24-3.38.37-4.99-.03-1.93-.35-.79-.26-3.99.12,0,.24,0,.36,0-.11-5.16,0-7.75-.25-10-.08-7.7.45-6.78.21-14.01.18-1.66.11.1.36,0,0-3.54-.08-6.33-.35-7,.67-3.24.03-10.8.3-17.99-.06,0-.12,0-.18,0-.2-.16-.05,3.55-.1,5-.15-2.51-.15-.7-.36-2,0-1.33,0-2.67,0-3.99-.19.25-.03,4.38-.19,5-.25-3.4-.18-4.83-.25-9,.18-.01.12-2.73.36-2,.06-2.18-.25-3.18.1-2.99-.04-8.01-.04-8.29-.06-15-.09-2.94-.4-3.47-.62-4.99-.04-3.14.23-2.82.37-3.99-.04-2.54-.39-1.68-.44-4,.12-2.06.15-5.07.46-4.99,0,.96-.11.77-.18.99.04.89.08,1.79.18,2,.37-.25-.13-5.3.28-6-.09-2.44-.37,4.1-.54,1-.04-2.13.13-1.91.27-2,.07-2.73-.18-2.01-.17-3.99-.24-.33.07,5.6-.28,3.99,0-2,0-3.99.01-6-.18-.34-.28.21-.27,2-.39-4.49.39-4.97.65-9,.04-3.1-.2-4.78.01-7-.03-1.57-.16.87-.18-1-.09.73-.14,1.82-.19,2.99-.22,3.69.13-5.68-.09-2-.25-1.35.24-2.56.19-5-.08-2.71-.17,2.66-.45,1,.02-1.16-.02-1.78-.09-2,.13-1.54.36-2.1.63-2,.19-.27.09-3.72.28-4-.08-3.37-.2-.12-.36-2-.14.36.08,1.76-.09,2-.43-.75.99-9.72.02-11,.09-3.4.26-5.85.2-10.99-.08.61-.16,1.21-.18,0-.21,3.47-.23,1.27-.64,4.99.03-1.79.48-3.91.19-5.99.16-.23.38-.82.37-3-.03-1.35-.22-.83-.36-1,.13-1.16.23-4.7,0-2-.16-4.44.5-5.19.64-5-.33-7.35-.8,1.17-1.35,1,.18-1.21-.02-3.45-.09-1-.34-5.52.41-.91.37-5.99-.49-4.6-.8,1.43-.9-3.01-.29,2.17.04,10.36-.47,12-.19-1.27.07-5.97.28-6-.05-3.32-.42-3.31-.35-8,.25.83.24-1.4.45-1-.21-2.99-.72-2.65-.8-7,.25,1.79.4,2.79.45-2,.08.27.23,4.43.08,4,.02,1.09.18.68.18,2,.24.73.18-1.99.36-2,.04-1.94-.41-1.46-.27,1-.26-1.39.03-4.93.1-5.99.35,4.01.36-6.22.64-3-.06-3.05.16-2.94.1-5.99-.25,4.19-.45,2.58-.82,4.99-.07-1.16-.11-2.68-.08-4.99.1,3.09.23-.16.36,1.99.13-1.39.2-4.93.1-5.99-.24-.69-.18,2.07-.28,3-.32-1.92.22-7.99-.17-8,.32-4.52.1-8.32.21-16.99.09.02.07,1.22.09,2,.09-.03.07-1.22.09-2,.26,1.45-.13,3.9-.01,6.99h.18c.18-1.65.08-6.57.37-6.99-.28-.89-.85-2.86-1.17,1,.01-1.34.18-5.51,0-3-.22-1.25.28-2.91.28-5-.17.14-.3.65-.36,2-.17-2.4-.06-7.89-.44-8,.03-1.26.18-1.01.18,0,.17-.4.02-4.58.37-3,.17,1.91-.06,1.81,0,5,.14.28.16-.95.27-1,.11-3.87-.31-3.55-.08-6-.45-.66-.67-3.32-.53-7.99.31.52.41,3.38.53,6,.07-.53.15-1.04.27-1-.19-.9-.29-2.77-.44-4,.02-2.18.23-2.15.45-2-.16-1.15-.41-3.46-.17-6-.14.08-.34-.48-.36,1-.25-.43,0-3.15.18-2,.01-1.02-.39-2.02-.08-3-.06-.45-.65,2.01-.72-3-.3.01-.1,5.64-.28,7,.02,1.76.15,2.28.36,2-.17,1.92-.17.78-.1,4-.34.08-.27-4.31-.72-3-.07-3.49.3-1.71.36-.99-.08-4.87-.1-4.68-.26-8-.09.65-.1,2.3-.27,2,.06-3.8.26-6.58.11-10,.17,1.85.07,1.84.36,1-.19-.89-.15-4.26-.44-4,.08-1.48.29-1.45.45-1.99-.13-4.93-.01-10.27.29-13-.08-2.1-.5.32-.46,3-.33-.71-.13-6.59.28-5,0-2.65.04-5.7-.08-7-.2,1.49.09,2.82-.19,4-.2-3.79-.23-11.09-.06-17.99-.24,4.65-.19-4.84-.53-5,.03-2.06.34-.94.37-2.99.13.87-.03,1.5.08,4,.3-.51.09-7.56.02-10-.2.15.11,2.52,0,5-.43-2.85-.35-6.8-.43-11.99.14-.08.34.48.36-1,.15.31-.12,3.47.26,3,.03-1.13-.02-3.34,0-4,.09-2.72.16,2.66.45,1-.43-3.77-.24-4.56-.71-7,.03-5.12-.29-13.18.3-13.99,0-2.21-.38-.43-.54-1,.12-1.68.27-5.1.46-3,0-2.48-.16-3.09,0-4.99.26-.83.23,1.41.45,1,0-3.04-.31-2.5-.54-3.01-.32.11.19,3.3-.1,3.01-.22.78-.21-4.79,0-4.01-.09-1.33-.24-1.96-.26-3.99,0-3.84.32-3.88.37-7-.19,2.19-.54,2.38-.46,3-.3,2.15-.28-6.97-.07-9,.17.1-.15,3.73.08,5.01.25-3.54-.26-7.75.2-10-.1-3.05-.35,1.46-.45-1.01.14-1.5.27-3,.37-4.99-.21-.37-.08-4.38-.35-4,.14-7.48.31-10.65.12-16.99.08.78.2,1.07.36,1-.58-5.31-.22-19.01-.22-27,0-1.97-.31-.74,0-2.99-.02-.81-.09-1-.09-2-.09.74-.14,1.81-.19,3-.05-3.43.26-11.28-.25-14,.19-2.83.45-7.61.11-10.99.35-4.91.24-18.32.14-25.99.12.35.14,1.76.27,1.99-.05-3.24.07-4.64.1-7-.04-1.48-.12.4-.27,0-.34-5.33.26-13.36.13-20.99.21.32.35-.16.45-1-.17-3.23.16-5.23-.17-5.99-.02-2.31.26-1.11.28-3.01-.08-2.42-.27,2.27-.54,1,.17-2.6-.03-3.02.1-5.99.65,4.52.28-9.31.48-14-.06,2.33-.41,1.46-.46,4-.13-.36,0-1.76.09-2,.09-7.41-.3-6.31.11-10-.04-1.48-.12.4-.27,0-.08-4.35.19-4.6.28-6.99-.16-.83-.51-4.58.01-5.99-.06-.74-.22-4.9.1-4-.02-2.03-.24-1.95-.26-3.99-.2-.17-.05,3.55-.1,4.99-.6-1.64-.78,1.69-1.26,1,.65-7.61,1.54-12.47,2.2-19.99-.09-3.4-.53,5-.45-2-.14.43-.08,3.14-.36,2-.06,3.19.16,3.09,0,5-.2-.15-.19-2.52-.17-5-.09,1.1-.5,3.76-.63,1-.21,1.59-.47,6.2-.73,4,.07-2.27.09-5.1.19-7,.63-.58.72-6.51,1.27-4,.16-3.38.39-3.77.64-3.99-.13-3.52.14-8.3-.16-10-.19,1.4.08,3.44-.1,5.99-.34,1.55-.87-5.16-.99,0-.32-.84,0-2.46-.08-5.99.47-.78.73,1.05.91-4,.12,1-.04,1.65.18,3,.16-3.3.51-4.46.65-8-.06-1.06-.27-.11-.45-2,.08-2.45.16-5.76-.17-6-.2.13-.05,4.25-.1,6-.34,5.1-.81-2.98-.91,3-.09-2.86-.24-3.63-.54-2,.01-1.41.02-2.83-.08-3,.42-4.55,2.36-7.38,1.38-14.99-.31,1.97-.53,1.26-.9-1.01-.2,1.97-.56,5.93-.91,3,.65-12.1,2.73-5.89,3.01-19.98-.03-2.34-.39-.97-.45-3-.5,4.39-1.75,2.86-2.35,5.99.12-7.86.98-1.12,1.1-8.99.7.4.93-4.4,1.63-4,.01-1.8-.11-2.11-.08-4,.09.65.09,2.3.27,2,.15-2.76.38-4.52.38-9-.65-1.44-.9,4.62-1.44,1-.35,4.31-.72,3.56-1.27,2,.29-7.73,1.75-10.84,2.09-8.99.19-.28.18-2.68.28-4,.47,3.97,1.31-4.71,1.62,1,.17-3.55.16-2.67.45-.99.24-5,.74-7.18.39-14-.23,1.48-.47,3.38-.54-1-.12.66-.17,2.14-.19,4-.29.87-.18-2.59-.36-3-.2.56.11,1.56-.1,3-.21.31-.1-2.89-.27-3,.27-4.3.62-2.88.91-6,.13,3.04.27.56.45,2-.1-1.18-.1-3.53-.08-6,.36,2.81.55.46.81,2,.09-.74.14-1.82.19-3,.69,1.21,1.68-1.48,2.16,4.01.14-1.45.19-4.03.55-3.01-.04,5.65.53,4.66.89,6-.06-4.62-.27-7.56-.34-12,.31,4.4.43-1.08.62,4,.88-4.3,1.79-4.45,2.71-1-.02,3.13.05,7.34-.11,9,.01.81.09,1,.09,2,.09-.03.07-1.22.09-2,.25,1.28-.12,3.99-.19,5ZM22.3,648.81c-.02,2.48-.03,4.85.17,4.99.06-2.42.19-5.14-.17-4.99ZM18.55,777.76c0,.61-.02,1.19-.09.99.01,1.18-.02,2.84.09,3,.21-4.11.08,3.56.36,2-.03-2.97-.15-4.93-.35-6ZM18.09,783.76c.03-1.18.48-2.51.19-4-.07.74-.49-3.14-.71-3.99.03,4.21.4,4.83.53,8ZM17.29,878.71c0-1,0-2,0-3-.6,2.09-.13-1.3-.35-4-.02,1.86-.07,3.34-.19,4,.05-4.83-.23-1.23-.53-3,.01,1.5-.04,3.69.08,4,.14-7.88.07,3.58.18,1,.16-5.57.43,2.55.81,1ZM8.23,903.69c.03-2.63-.12-3.28-.36-3-.03,2.63.12,3.29.36,3ZM10.52,36.03c.17-2.12-.01-6.37-.17-8-.1,2.93.01,6.38.17,8ZM6.54,45.02c.15-3.22.05-5.42.02-9-.79.31-.32,11.65-.3,15.99.25-2.69-.19-9.87.02-11.99.07.83.04,3.5.26,5ZM8.97,45.02c.21.02.27-1.72.54-1-.4-2.52.24-6.84-.17-8-.05,3.81-.18,6.84-.38,9ZM14.39,38.04c.13.67.27,6.12.44,3-.13-.88-.28-1.5-.26-4,.07-.22.18-.03.18-1-.2-.28-.34.24-.36,2ZM9.6,47.03c.18-6.05.16,4.02.27,1-.07-3.2.24-2.07.28-4-.29.88-.18-2.59-.36-3,.01,2.26-.44,4.4-.19,6ZM5.08,58.01c-.14-1.39-.28-2.83-.44-4,.08,4.3-.07,5.96-.46,5,.09,4.45-.41,5.29-.19,8,.21.02.27-1.72.54-1,.02-2.48-.14-3.09-.17-5,.13-.52.23-1.48.36-2-.07,4.03.18,4.61.26,7,.11-3.85.39-2.69.72-1.99.08-4.38-.17-1.9.28-6-.2.16-.04-3.54-.08-5-.16.6-.37-2.93-.45,0,.14.26.06,2.2,0,3,.17.96.31-3,.36,0-.17.11-.07,3.31-.28,3-.06-2.92-.21-4.92-.35-7,.03,2.23.2,5.42-.1,6ZM6.35,54.02c-.12,1.81-.49,6.56-.1,8-.1-3.54.39-5.69.1-8ZM18.66,72.03c.3,1.03.15-3.11.19-5-.52-2.31-.05-3.36,0-5-.32.88-.46-2.57-.54,1,.14,2.59.38,2.69.34,9ZM6.04,73.01c.13-1.91.35-2.86.37-5.99-.09-1.33-.14-3.02-.26-4,.05,3.71-.41,6.86-.11,9.99ZM3.34,70c.22.15.38-.52.45-2-.22.39.06-4.55-.27-3,.07,3.19-.09,3.79-.19,5ZM6.86,67.01c.32-1.55.05,3.4.26,3,.02-.78.08-1.16.18-1,.11-3.96-.41-5.31-.45-2ZM16.49,73.03c.44-5.02.78,5.32,1.35,2-.28-2.14-.88-4.16-1.34-7,.11,2.48-.27,4.14,0,4.99ZM18.38,78.03c-.38-.14.13-4.46-.17-5.99-.26,1.76-.22,9.75.17,5.99ZM21.89,78.03c.24.3.24-2.09.28-3.99-.11-.14-.2-1.78-.27,0,.27.65-.09,2.14,0,4ZM2.5,134.98c.22.15.44.19.45-2-.19-.9-.4-1.56-.54-3-.03,2.32,0,3.84.08,4.99ZM2.4,144.97c.09.87.57.42.72-1-.25.71.07-4.71-.17-4-.05,5.19-.44,2.01-.55,5ZM6.77,165.97c.37.45.33-3.73.46-5.99-.3.31-.37,3.35-.46,5.99ZM6.76,171.98c.14.25.06,2.19,0,2.99.2.28.34-.23.36-2-.33.49.05-5.52-.17-3,0,1.32-.16.92-.18,2ZM4.06,173.96c.04-1.92.35-.78.28-3.99-.28-1.31-.52,2.83-.28,3.99ZM9.19,174.97c.51-2.77.06,2.81.26,4,.11-1.18.11-3.53.1-6-.2-.28-.34.25-.36,2ZM2.24,181.95c-.12-3.15.23-6.03.01-7-.2,1.77-.21,4.97-.01,7ZM2.6,181.95c-.1.17-.1,1.59-.1,3,.1,1.16.32,1.13.54,1,0-2.71.39-4.68.01-5.99-.21,2.06.17,5.07-.28,4.99,0-3.25-.11-5.38-.35-6-.03,1.97.12,1.98.17,2.99ZM3.41,181.96c0,1.34,0,2.67,0,4,.4,1.12.33-3.07.46-4.99-.21-.33-.35.16-.45.99ZM1.87,186.96c.1.83.24,1.31.45,1,.13-5.99-.46-5.84-.45-1ZM4.21,190.95c-.22-.15-.44-.18-.45,2,.08,1.04.46.92.45-2ZM1.9,221.95c0-1.56-.26-.7-.09,0,.38.29-.07,4.2.17,4.99.13-3,.56-7.84.38-11-.13,2.29-.11,6.24-.46,6.01ZM24.78,222.98c.04-2.1.22-5.54-.08-5.99.05,1.76-.12,5.87.08,5.99ZM1.68,238.94c-.06-2.69.19-1.94.28-3.01,0-1.72-.07-2.57-.17-3-.09,1.89-.49,4.63-.1,6.01ZM2.11,349.89c.17-1.88-.05-4.42-.35-3.99-.04,3.04.32,1.69.35,3.99ZM3.33,372.89c-.16-.01-.25-5.61-.45-2,.16,0,.25,5.62.45,2ZM2.95,386.89c-.21-.28-.2-2.67-.08-4.01-.34-2.02-.37,4.55-.19,5,.02-3.54.29,2.12.27-.99ZM2.49,393.88c-.11-1.4-.44-.44-.45-3,.09-.98.19-1.98.28-3-.48-3.13-.39,11.16.17,6ZM1.97,427.86c.46,1.9.02,7.52.25,12,.5-1.9.31,3.79.62,4-.18-3.87.14-1.63.1-6-.38,2.34-.54-1.4-.71-4,.25-.94.22-5.04.28-8-.16.91-.45.34-.54,2ZM4.37,449.86c-.07-2.51.19-8.61-.17-8,.16,3.75-.15,6.43.17,8ZM2.71,466.85c-.11-3.23.29-.77.19-4-.21,1.37-.33-2.58-.36,0,.17.1-.16,3.9.17,4ZM2.98,468.85c-.03-6.06.34-1,.54-1-.01-1.5.04-3.69-.08-4-.2,1.05-.93,2.54-.46,5ZM3.79,470.85c-.28.72-.26-1.73-.54-1-.05,4.49.41,2.64.54,1ZM4.49,529.83c-.13-.19-.08-2.42-.08-4-.23,1.27-.28-.51-.36,1,.17.25.31,5.7.44,3ZM4.3,535.83c.04,3.14-.32,2.64-.1,4.99.21.02.27-1.72.54-1-.11-2.48.27-4.14,0-4.99-.1,4.75-.24,3.91-.45,1ZM5.45,548.82c-.08,4.6-.71-2.71-.46,3.01.02-1.53.83,1.66.46-3.01ZM3.81,558.82c.13.24.15,1.65.27,2.01.07-2.23.2-3.9.19-7-.31-.07-.34,2.94-.46,5ZM4.44,556.82c.36-.14.23,2.57.17,5,.35.21.36-3.42.64-4-.12-.01-.08-1.75-.18-2,0,4.85-.47-.46-.18-2-.21.33-.39,1.02-.46,3ZM3.89,561.81c.01,3.63.46,3.19.62,3-.25.71.07-4.71-.17-3.99-.09,3.35-.17.49-.45.99ZM4.7,565.81c0,1.33,0,2.67,0,4,.42,1.03.35-3.48.81-1.99.05-2.71.08-2.49.19-6-.42,1.17-.52,9.2-1,4ZM5.47,584.81c.08-1.87.16-3.67.19-6-.09,0-.18,0-.27,0,.17,2.55-.1,4.6.08,6ZM22.2,603.84c.2-.19.64-2.89.37-5-.06,2.32-.3,2.68-.37,5ZM21.7,630.82c.29,1.41.24-5.98.1-5.99,0,2.35-.16,2.95-.1,5.99ZM6.06,660.79c.21.3.38,2.13.45-1-.11-1.36-.44-1.55-.45,1ZM19.66,665.8c.27,1.19.39-4.21.19-4.99-.04,1.9-.2,2.51-.19,4.99ZM20.91,671.8c-.13-4.78.07-2.42.18,0,.11-3.09-.08-5.5.19-8-.1-.83-.24-1.31-.45-1,.31,3.17-.4,7.66.07,9ZM6.49,668.78c-.02-2.64.35-.8.28-4-.28.72-.33-1.03-.54-1.01-.08,3.21.23,2.08.26,4.01-.05,0-.1.81,0,1ZM13.32,678.78c-.33-.72.29-5.69-.17-4.99-.14,1.89-.13,8.78.17,4.99ZM19.81,678.79c.35.8.36-4.78,0-3.99,0,1.34,0,2.67,0,3.99ZM17.91,685.8c.46.15.22-7.71.56-9-.16.07-.28-.23-.36-1,0,4.16.02,8.34-.2,10ZM6.55,685.78c.13-4.04-.16-3.55-.26-5.01-.02-.77,0-1.97-.09-2-.07,4.35.15,5.54.35,7.01ZM20.8,679.8c.03,1.92.02,4.31.26,4-.09-3.14-.04-2.64.1-5-.16-.07-.28.23-.36,1ZM16.11,682.79c.15,2.71-.15,4.68.17,5.99.21-2.23,0-5.01-.08-6.99-.14.17-.33-.36-.36,1,.09,0,.18,0,.27,0ZM18.89,688.79c-.02-2.32.02-3.84.1-4.99-.06-.06-.11-.16-.09-1-.06,0-.12,0-.18,0,.09,3.76-.09,4.55.17,5.99ZM19.7,688.79c-.12-.66-.16-2.13-.17-3.99.07-.23.18-.03.18-1-.09,0-.18,0-.27,0-.15,3.32.02,7.24.26,4.99ZM20.7,688.79c.06-2.89.14,1.54.27,1,.02-3.51-.21-4.3-.35-6-.15,1.5-.07,4.09.08,4.99ZM21.24,687.79c-.05,3.14.22,2.82.35,4-.14-3.38.39-4.26.1-5.99-.02,2.18-.23,2.14-.45,1.99ZM13.85,689.78c-.03,2.64.18,2.58.35,3,.03-4.14-.1-4.03-.35-3ZM17.08,693.79c0,1-.08,1.18-.09,1.99.12-.14.33,3.37.36,1-.11-1.47-.25-7.69-.44-4.99.1.21.14,1.11.18,2ZM19.06,696.79c-.2-.79-.11-4.69-.35-4.99-.1,3.45.19,7.59.35,4.99ZM14.19,697.78c-.13-.52-.22-1.48-.36-2-.12,3.94.31,5.39.36,2ZM17.52,701.79c.33,1.87.75.85.9-2-.27-1.95-.42,2.81-.72-1.01-.02,1.42-.15,1.69-.19,3ZM19.86,701.79c.14.25.06,2.19,0,2.99.33.31.59-.16.81-1,0,1,0,2,0,3,.16-.07.28.23.36,1-.02-1.97.12-1.99.19-3.01-.26,1.08-.43,1.63-.35-2.99-.28-.11-.43,1.22-.63,1.99-.24-.95-.01-5.85-.17-3.99,0,1.32-.16.91-.18,2ZM17.23,711.78c.44.63,0,5.55.35,6.01.02-3.64.22-12.87-.25-14,0,5.16.08,4.96-.1,8ZM20.11,713.78c-.01-5.43-.33-7.49-.7-9,.27,6.67.33,4.83.7,9ZM17.05,711.78c-.13-2.54-.13-6.36-.53-6,.12,2,.39,7.5.53,6ZM21.37,712.78c.07-1.34.21-6.98.1-7-.1,1-.35,5.45-.1,7ZM6.87,707.77c0,2.66,0,5.33-.01,7.99.25-.73.18,1.99.36,2-.12-4.51-.3-2.47-.26-8,.18.01.11,2.73.36,1.99-.05-3.18.17-3.09,0-4.99-.35-1.3-.22,3.67-.45,1ZM18.32,706.79c-.28-.5-.36,2.18-.54,0,0,7.01.38,2.93.54,0ZM14.43,714.77c.13.24.15,1.65.27,2.01-.12-2.93.11-4.92-.17-7,.07,2.82-.13,2.59-.1,4.99ZM13.61,722.77c.21-2.06-.25-6.96.1-8-.14-.89-.4-5.34-.54-3,.42.63.14,8.93.43,11ZM19.47,716.79c-.2-2.11-1.13-.27-.8-5.01-.24-.69-.18,2.07-.28,3,.08,1.07.33.31.27,3,.28.51.41-2.74.36,1.99.29.88.19-2.59.37-2.99,0,.55.07,1.13.09,0ZM12.81,716.78c.13-.18.33.35.36-1-.21.31-.1-2.89-.27-3-.03,1.35-.13,1.91-.1,4.01ZM14.5,725.78c-.11-4.62.36-2.75.46-5.01-.12-.31-.17-1.42-.36-1-.03,2.58-.47,4.81-.1,6.01ZM20.08,729.78c.01,1.18-.02,2.84.08,3-.02-1.89.11-2.21.1-4-.38,1.2.17-7.56-.16-9-.02,1.18.01,2.85-.1,3-.14.17-.33-.36-.36,1,.37-.3.04,2.09.08,4,.21-.28.34.24.36,1.99ZM13.78,728.76c.31.09.27-3.7.28-6.99-.2,3.14-.58,2.66-.64,5,.31-.08.51-2.56.36,1.99ZM19.46,726.78c-.16.39-.23-1.49-.27,0-.03,7.85-.06,9.06.27,0ZM6.92,729.75c0,1.87.05,3.34.17,4,.06-1.99.32-4.27,0-5-.02.78-.08,1.17-.18,1ZM7.07,748.75c.19-2.21.26,1.28.54,1,.1-3.73-.18-3.23-.26-5.01.11-.15.25.18.27-.99-.05-1.39-.35-.16-.36-2-.04-3.15.28-2.27.19-5.99-.1-.85-.24-1.33-.45-1,.02,1.89-.1,2.2-.1,3.99.27-1.47.26,4.48,0,3-.07,3.75.34,2.18.35,4.99-.25.09-.18-1.67-.36,0-.04,6.2,0,9.29.06,14.01.2,1.36.34-2.58.36,0,.13,4.21-.5-.23-.37,3.99.2-.77.49-.58.55-3-.29-1.77.11-4.04.19-4.99-.34-1.76-.41,1.28-.54,0,.35-3.43.01-4.63-.08-8ZM14.46,750.76c.16.07.28-.23.36-1-.19-3.72-.1-1.85.1-5.01-.29-.47-.05-6.65-.26-8-.13,4.76-.1,11.77-.21,14ZM19.52,741.78c.08-2.71.4.84.18,2,.14-.17.33.35.36-1-.26-.88.21-1.5.1-4-.12-1.02-.33-.98-.45-2,.04,2.33-.46,3.45-.19,5.01ZM19.06,745.77c.09,0,.18,0,.27,0,.05-2.32-.13-6.89-.26-3.99.23.24-.13,1.72,0,3.99ZM19.31,755.77c.25-1.29.23-5.5.46-6.99-.25.73-.18-1.99-.36-2,.05,4.49-.24,5.82-.11,9ZM17.97,750.77c.23-1.92.37,1.52.54-1-.11-1.39-.42-.62-.54-2v3ZM21.37,763.77c-.09,0-.11.81-.18,1-.22.78-.62-3.63-.63,1,.37-3.19.52,5.71.9,2-.05,0-.1-.81,0-1,0,1,.16,1.25.18,0-.45-3.16-.01-9.78-.34-13.99-.08,3.28-.15,7.54.07,10.99ZM15.88,758.76c.03-2.61-.03-4.31-.26-4-.03,2.62.02,4.31.26,4ZM17.59,762.76c-.08,4.69.57,2.5.54-1-.27-.72-.27,1.72-.54,1ZM16.41,764.76c-.33.27-.43-1.85-.72-2-.06,3.39.58,4.07.72,2ZM18.57,770.76c-.14.18-.33-.36-.36,1,.11.22.05,1.11,0,2,.12-.04.2.47.27,1,.03-4.79.15,1.72.45,0-.19-5.89.47-9.53.02-12-.29,3.1-.04,8.91-.2,11-.11-.41-.18-1.29-.17-3ZM17.93,772.76c-.08,3.76.23,3.38.35,5,.03-3.27-.1-4.81-.35-5ZM6.84,775.74c-.36-.06-.31.58-.54-2,.2,2.83-.21,6.61.17,8,.09-4.99.28-3.36.64-5.99,0,2.48-.15,3.09-.19,4.99.43-.17.36-6.1.56-9-.16-.55-.37-.51-.45-2,.11-.11.21-.3.18-2-.09,0-.18,0-.27,0,.13,4.51-.08,5.79-.1,8ZM11.54,769.75c0,2.65.02,5.71-.1,7,.16,1.92.31-.86.45-2-.14-.09-.31.13-.27-2,.09,0,.1.81.18,1-.11-2.49.27-4.15,0-4.99-.02,1.15-.15,1.08-.27.99ZM14.5,773.75c.06-3,.19.95.36,0,.08-3.21-.13-3.12-.26-4,.01,1.33-.31,3.72-.1,4ZM12.06,777.75c.3.11.47,1.99.63-1-.37,1.37-.28-2.18-.54-2,0,1.37-.05,2.19-.1,3ZM11.52,780.74c.12,0,.24,0,.36,0,0-1.74.03-3.11.1-3.99-.21.61-.42,1.34-.46,3.99ZM15.2,787.75c-.05-4.4-.35-5.99-.43-9.99-.08,2.93-.29-.6-.45,0,.12,3.04-.35,6.82.08,7,.27-.66-.08-2.14,0-4,.17.23.2-1.12.36-1,.1,3.18.12,7.17.44,8ZM16.56,785.75c-.14.09-.31-.13-.27,2,.12,0,.24,0,.36,0-.05-1.45.11-5.16-.08-4.99,0,1,0,2,0,3ZM16.63,794.75c.24,0,.23-2.78.37-4,.13,1.5.15,4.21.35,4.99.09-2.44.22-4.33.19-8-.37-.66-.44.43-.9,1-.03,2.32,0,3.84.08,5-.1-.04-.23.48-.09,1ZM15.83,789.75c.09,2,.17,4.05.26,5.99.19-2.35.13-1.66.28-4.99-.35,1.11-.31-3.53-.54-1ZM8.6,802.73c.37.27.35-1.31.63,0-.02-6.3-.36-1.15-.54-3,.01-1.89.3-.7.28-3-.36-.66-.37,2.64-.37,6ZM10.1,816.73c0-.62.02-1.19.09-1-.01-1.18.02-2.83-.08-3-.08,2.93-.22-1.3-.45,0-.05,3.49.44,1.12.44,4ZM8.75,816.73c.32-.34.23-2.75.54-1,.07-3.75-.68-2.44-.54,1ZM9.46,824.73c0-2.1-.35-5.19-.45-3,.16.89.11,4.06.45,3ZM9.09,828.72c.04,1.92.03,4.31.26,4,.02-1.18-.01-2.84.1-3,.02,1.53.15.14.18-1-.18-2.2-.35-2.2-.54,0ZM8.46,828.72c0,1.74.01,3.11.08,4,.27.96.39-4.91.28-5-.02,1.48-.22.92-.36.99ZM15.46,841.73c.04-1.71.12.21.27,0,0-2.33,0-4.67.01-7,.17-1.6.3.93.45-2-.21.3-.1-2.89-.26-3-.11,1.44-.35,1.52-.46,3,.18,3.73-.13,7.19-.02,9ZM8.62,840.72c.26,2.79.45-.92.63-2-.05-1.78-.04-4.15-.17-5-.06,4.56-.48.46-.46,7ZM9.26,835.72c.3.37.17,5.32.53,5-.21-2.93.18-3.71,0-5-.13,2.99-.19-4.18-.54,0ZM9.97,837.72c.07,2.5.53,5.94.71,4.01-.31-.5-.12-4.91.09-2-.04-6.8-.43,1.38-.63-3-.02.78-.08,1.17-.18,1ZM8.94,858.71c.04,2.49,0,2.04.27,3-.27.33-.12,5.49-.37,6,.48.02.48-5.48.56-9.99-.23,1.71-.31-1.15-.45.99ZM9.58,857.71c.01-2.93.28-2.94.37-5-.45-.95-.3-8.52-.61-10.99-.12,2.04-.51,1.05-.55,3.99.35.15.21,5.57.44,7-.14,1.15-.23,1.15-.36,0,.01,4.09.46,3.46.71,5ZM11.57,852.72c.13-1.98.63.31.64-3-.28-1.13-.24.28-.45-1,.05,2.07-.4,3.4-.19,4ZM16.06,858.72c.32.68.24-8.44.01-8-.18,3.77.17,4.24-.01,8ZM11.73,864.72c.09-2.6.17-6.69-.08-8,.03,3.96-.22,6.11.08,8ZM10.64,869.71c-.02.78-.08,1.16-.18.99.02-1.88-.1-2.21-.08-4,.07-.22.18-.02.18-1-.18-1.66-.11.09-.36,0,0,1.66,0,3.33,0,4.99.19.15.72,2.21.45-.99ZM8.73,875.7c.21-.02.26,1.72.54,1-.14,1.49-.11,4.47.17,4-.1-5.43-.33-5.09.02-9-.27.99-.45,1.42-.54,2,.33,1.39-.27.15-.18,2ZM17.91,883.71c.14-.17.33.36.36-1-.15-1.24-.3-6.95-.62-4.99.19.91.27,2.95.26,5.99ZM10.25,882.7c.32,3.09.22-6.24.54-.99,0-1.33,0-2.67,0-4-.25-.09-.19,1.66-.36,0,.07,3.18-.09,3.79-.19,4.99ZM8.98,885.7c-.02,6.27.61.06.81,3,.05-3.15-.27-2.26-.17-6-.34.77-.43-1.21-.72-1,0,5.07.32.43.44,4-.25.09-.18-1.67-.36,0ZM16.19,889.71c.04-3.38-.4-1.57-.26-6-.26,1.53-.43,4-.55,7,.38-2.5.52,1.49.35,4.99.34,1.47.03-4.46.37-3,.06-2.44-.43-3.65-.17-5,.03,1.25.11,2.05.27,2ZM10.48,903.69c.06-4.93.04,1.04.18,1,.04-3.61.13-6.71.2-9.99-.47-.16-.29-7.29-.62-9-.02,1.12-.1,1.55-.18,2-.02,2.99.33,3.4.08,6,.18,1.89.38.93.45,2-.37.83-.46,6.62-.11,8ZM16.99,892.71c.13-1.28.17-5.98-.08-6,.05,1.76-.12,5.87.08,6ZM8.15,896.69c0-2.65.06-5.89-.17-5.99-.08,2.45-.17,5.76.17,5.99ZM9.41,900.69c.35-1.59.11-1.59.45,0,.17-1.78-.07-2.54.01-5.99-.18-1.67-.11.09-.36,0,.02-1.43.15-1.69.19-3-.12-.31-.17-1.42-.36-.99.11,3.79-.05,5.53.07,9.99ZM12.03,897.7c-.19,2.36-.37-1.25-.18-3-.28-.48-.37,1.25-.46,3,.15-.04.23.77.27,2-.65,2.71.34,2.43-.28,6,.5.27.15,4.69-.01,6,.37-1.15.35,2.1.63,2-.12-3.41-.06-5.84.28-4,.07-.72.25-6.92-.08-6-.05,1.45.1,5.17-.1,5,0-1.98-.24-1.27-.17-4,.07-2.23.06-6.56.1-7ZM12.48,897.7c0,1,0,2,0,3,.1.84.24,1.32.45,1,.11-3.14-.14-2.43-.17-4,.15.3.25-1.35.09-2-.02,1.85-.31.61-.36,2ZM16.7,902.71c.34-1.96.19.95.45,2,.03-1.35.13-1.9.1-4-.21.32-.35-.16-.45-1,0,1.38-.05,2.2-.1,3ZM9.76,905.69c.17.22.2-1.13.36-1,.03-2.28-.02-3.76-.17-4-.04,1.91-.26,1.81-.19,5ZM16.43,904.7c-.18,1.35-.36,2.78-.28,7,.29.28.58-7.47.2-10,0,1.37.04,2.19.08,3ZM9.49,905.69c0,1.28-.12,1.39-.1,3,.25.15.26-2.45.28-5-.17.95-.3-2.99-.36,0,.1.22.14,1.11.18,2ZM12.46,904.7c.18,2.2.33,2.06.45-1-.11-1.36-.44-1.54-.45,1ZM17.94,915.7c-.3-3.32.51-1.82.27,0,.03-1.34.13-1.91.1-3.99-.11-.16-.26.17-.27-1,.18.3.18-1.35.27-2,.11,3.36,0,9.05.34,10-.13.24-.16,1.65-.27,2,0-1.74-.02-3.11-.08-4-.44-.91-.93,3-.64,7,.14-1.18.15-3.77.28-5,.12.04.2-.47.27-1,.13,4.81.17,10.59.7,11-.05-1.77-.04-4.15-.17-4.99-.01,1.22-.03,2.36-.18,2,.22-1.33-.09-3.72.1-4,.26-.27.33,4.01.45,0-.57.2-.06-3.43.1-4-.15-.02-.04-2.77-.17-3,0,1.31-.25,1.27-.27,0,.06-4.12.18-7.49.29-11-.35.9-.76,6.8-.81,1-.37,4.18-.65,6.96-.29,10.99ZM16.78,908.7c.17-.42.39-.36.37-3-.12.05-.2-.47-.27-1-.03,1.35-.13,1.91-.1,4ZM20.82,917.71c.11-.39-.15-5.8.37-4-.11-3.1.28-5.54.01-7-.11,1.48-.09,4.46-.37,4,0-1.01-.07-1.19-.09-2,.31.88.16-3.29,0-3-.05,2.38-.31,11.42.07,12ZM10.19,918.69c.1-.93.04-3.69.28-3,.03,3.05-.25,5.1.08,6,.07-3.71.05-2.61.1-7-.3-.38-.17-5.32-.53-5,.08,2.77-.1,6.04.07,9ZM10.65,911.7c.02-1.21.1-.62.18,0,.02-1.89-.1-2.21-.08-4,.07-.23.18-.03.18-1-.39,1.75-.92-2.37-1.17,1.99.31,1.63.76-1.81.9,3ZM15.61,910.7c.35,1.23.49-3.5.19-4-.05,1.48-.14,2.52-.19,4ZM13.44,914.7c.03-2.62-.03-4.3-.26-4-.03,2.61.03,4.3.26,4ZM9.66,911.69c-.26.49-.76,3.61-.46,6.99,0-1.31.25-1.27.27,0-.29,1.28-.1,4.48-.01,7,.26-.89.31-1.27.45,1,.04-1.26.12-2.04.27-2,.06-5.26-.49-5.57-.25-9.99-.45.31-.3,1.94-.27-3ZM12.98,919.7c.06-1.14-.02-7.06-.26-8-.07,4.32.09,6.19.26,8ZM15.95,919.7c.32-1.85.86-3.14.46-7-.04,3.63-.39,3.71-.46,7ZM11.62,923.69c.28-1.11.24-.47.45,1,.11-2.91.04-9.52-.26-7,.22,1.23-.19,3.86-.19,6ZM9.28,923.69c-.21-1.04-.41-2.06-.53-4,.1,4.01-.25,7.31.08,8,.16-.61,0-4.75.19-5-.03,1.22.25,3.44.27,1ZM10.62,927.69c.22-.92.37-2.59.46-5-.34-.48-.64,2.69-.46,5ZM12.95,934.69c.28-1.84-.1-4.75.01-8-.09,0-.18,0-.27,0,0,4.9.05,7.36.26,8ZM9.62,930.68c.09-3.62-.39-1.01-.45-3-.05,3.12.19,3.19.45,3ZM8.71,935.68c.22.4.2-1.83.45-1,.04-4.94-.49-2.6-.45,1ZM11.78,935.69c.24,2.04.52,7.56.8,6-.15-4.66-.61-3.96-.52-9-.01,1.89-.3.69-.28,3ZM16.79,952.69c-.07,2.76-.02,2.27-.28,4,.25-1.6.24,4.32.08,4,.07-3.81-.36-1.52-.27,1,.29.12.4,2.2.63,3-.08,3.52-.59,2.19-.55,6.99.28,1.15.22-1.57.36-2,.02,1.89-.11,2.2-.1,4,.53-.67.5-6.89.47-9,.32,2.99.33,12.21.06,13.99.04,3.45.61,6.24.16,9,.05.06.11.15.09,1,.09,0,.11.81.18,1,.25-7.31-.19-11.72.12-16.99-.28-.04,0-4.11-.35-5,.57-2.42-.11-13.51.3-16.99-.11-.15-.26.17-.27-1,.26-2.98.05-5.37.29-8.99-.45-.35.08-2.63,0-5-.12-.32-.17-1.42-.36-1,.1,5.63-.93,3.73-.65,8,.11-1.78.46,2.08.63,3-.33-1.05-.18,3.37-.37,4-.01-1.85-.05-3.33-.17-4-.02,1.86-.07,3.34-.19,4-.02-.77,0-1.97-.09-2-.03,2.92.16,3.45.26,5ZM16.54,943.69c-.08-1.47-.13-3.17-.35-3-.03,1.35-.13,1.91-.1,4,.24.73.18-1.99.36-2,0,1.06.04,2.54.09,1ZM20.68,946.7c.16-1.11,1-3.6.46-6,.11,5.04-.61.6-.46,6ZM11.59,942.68c-.02,2.48.04,4.15.17,5,.22-1.18-.18-3.78.1-5,0,1.05.11.78.09-1-.17-.22-.2,1.13-.36,1ZM20.74,963.69c.52-.16.1-5.84-.17-6-.12,3.96.29,2.05.17,6ZM16.17,1049.65c.04-2.1.22-5.54-.08-6,.05,1.76-.12,5.87.08,6Z"/>
      <path class="cls-1" d="M10.5,943.68c.12,0,.24,0,.36,0-.04,2.41.16,2.17.08,5-.24,2.03-.72,1.4-.91,4-.09-.42.14-5.84.28-7,.28-.75.1,3.45.45,2,.14-3.8-.4-.19-.26-4Z"/>
      <path class="cls-1" d="M3.94,36.02c.08-.18.08.39.09,1-.1-1.16.03,4.91-.46,5,0-2.33,0-4.66.01-7,.12,1.27.25,4.89.36,1Z"/>
      <path class="cls-1" d="M1.02,357.89c-.09.65-.1,2.3-.27,2,0-1.66,0-3.33,0-5,.26-.62.55,6.41.26,3Z"/>
      <path class="cls-1" d="M1.46,463.85c.13,1.61.37,7.4.07,9.99.05.59-.26-8.25-.07-9.99Z"/>
      <path class="cls-1" d="M2.21,498.83c.39,1.5-.02,3.16-.1,5-.32-.72-.03-8.2-.25-9.99.26-3.11.17,5.97.26,8,.11-.16.08-1.82.1-3Z"/>
      <path class="cls-1" d="M2.28,558.81c.08-2.4.27,2.17.26,4,.19.46.17-1.43.19-3,.13,3.8.08,8.38-.11,10.99-.16-2.24-.09-6.84-.44-7-.07-2.33.32-4.31.1-5Z"/>
      <path class="cls-1" d="M23.96,575.85c.25-2.84-.21,6.33-.01,5.99-.3,3.46-.18-5.83.01-5.99Z"/>
      <path class="cls-1" d="M24.02,596.83c.36-.77-.07,4.5.17,7-.1,4.22-.24-3.53-.27,0-.03-3.84.02-10.03.13-19.99.33,1.37-.02,4.11.26,5.99-.07,2.56-.1,5.67-.28,7Z"/>
      <path class="cls-1" d="M4.31,629.79c-.08.44-.16.88-.18,2-.01-2.47-.16-7.4-.07-12,.31,1.19.03,8.81.34,10-.02,1.14-.09.56-.09,0Z"/>
      <path class="cls-1" d="M4.58,629.79c.39,1.17-.03,9.14.15,15-.25.73-.18-1.98-.36-2-.02,2.18.07,3.18.27,2.99-.22,3.58-.03,6.25-.29,10-.48-3.01.26-7.93.02-11-.15-.37-.17.78-.18,2-.17-1.39,0-7.12.29-9,0-1.86-.05-3.33-.17-3.99.04-1.57.29-.86.19-4,.07.19.09,1.01.18,1,.02-.84-.03-.94-.09-1Z"/>
      <path class="cls-1" d="M4.97,663.78c.21-1.98-.01,5.88-.1,7-.33-2.53.2-3.79.1-7Z"/>
      <path class="cls-1" d="M20.17,780.76c-.27-.87.27-.79.1-3.99-.16-.13-.19,1.22-.36,1-.02-.85.04-.95.09-1,.11-.25.09-1.99,0-2-.01-2.17.32-.46.45-1-.18,1.35.02,6.98-.28,6.99Z"/>
      <path class="cls-1" d="M20.54,773.76c-.14,6.43.54,14.2.06,16.99.12-6.27-.24-5.24-.44-6,.2-3.66.42-7.26.38-11Z"/>
      <path class="cls-1" d="M20.6,793.76c.29,3.34-.13,10.11.34,10,0,2,0,4-.01,6-.35,1.04-.6-4.78-.63,1.99-.2-1.06-.02-6.28-.07-8.99.13.23.03,2.98.17,3,.28-1.84-.1-4.75.01-8-.2,3.53-.57,2.88-.63,0,.34.22.57.7.82-4Z"/>
      <path class="cls-1" d="M24.82,799.76c.24,4.8-.26,9.94-.21,15.99.34.07.11-6.28.37-7,0,5.6-.06,12.95-.39,17.99.03-4.03.43-9.4-.16-9.99,0-7.74.27-12.07.39-16.99Z"/>
      <path class="cls-1" d="M16.87,810.74c.01-5.31.5-5.2.65-9,.24,2.07-.13,5.55.25,9-.43,2.43-.43.43-.9,0Z"/>
      <path class="cls-1" d="M16.61,803.74c-.02,1.17-.17.84-.27,1,.08,3.16.26,4.39.08,8-.39-.18.12-4.75-.26-3.99.07-2.68.18-7.82.46-5Z"/>
      <path class="cls-1" d="M21.61,829.74c-.12-1.27-.03-4.9-.26-5,.15-2.83.32-7.97-.07-9,.03-2.7.38-1.8.46-4,.12-.16.17,5.09.27,2,.23.24-.13,1.72,0,4-.57-.4-.14,4.38-.37,6.99.24.15.43,5.13.08,5.99,0,1.85.3.62.36,2-.24,5.93.01,8.36-.21,14.99-.09-1.71-.19-6.68-.36-2-.2-.15.12-2.51,0-4.99-.33,5.6-.04-6.51-.35-7-.2,2.26.11,8.25-.37,5-.1,3,.2,1.77.36,2-.53,5.69.18,15.46-.22,19.99.02,1.36.22.83.36,1-.08,1.46-.08,3.87-.37,3.01.36,5.15-.29,6.17-.03,13.99.28-2.72.54.7.81,1,0,1.99-.25,1.28-.19,4-.14-3.91-.3-2.89-.63-1,.11,2.04.43,1.83.35,6-.24-2.81-.22-.79-.54,0,.29-9.23-.46-22.83.14-28.99-.36-5.85-.47-18.32.04-23.99-.07-2.9-.13-1.13-.36-1,.38-5.55-.07-10.76.21-13.99-.27-1.19-.19-6.14-.26-7,.25-2.04.26,6.94.62,7-.29,3.07-.07,8.24-.02,12,.44.17.12-3.52.28-5,.23-2.63-.21,4.03.27,2Z"/>
      <path class="cls-1" d="M14.16,812.73c.21-.31.35.17.45,1,.04,3.14-.25,2.64-.28,5-.24-1.32-.27-3.28-.17-6Z"/>
      <path class="cls-1" d="M12.71,821.73h.18c0,1,0,2,0,3-.07-.19-.09-1-.18-1,.03,2.32-.02,3.84-.1,4.99-.28.05-.64-1.5-.45,1-.33,3.75-.48-3.71-.17-5,.11.16.07,1.82.08,3,.23-1.77.56-2.5.64-6Z"/>
      <path class="cls-1" d="M13.69,823.73c.08-2.03.31,2.4.44,3,.24.3.08-3.88.37-3-.08,2.82.12,2.59.08,4.99-.39,1.69-.7-.22-.91,3-.12-.35-.14-1.76-.27-2,.1-.44.36-.96.37-5,.02-.86-.03-.95-.09-1Z"/>
      <path class="cls-1" d="M19.24,844.74c.02-3.84-.07-.37-.27-1,.24-3.74-.14-10.5-.06-15.99.02-2.21.38-.43.54-1,.09,4.35,0,5.58.07,9-.09,0-.18,0-.27,0,.23,2.38.22,4.41.26,7,.09-.64.1-2.3.27-2,.1,5.6-.52,3.64-.55,4.99-.1-.18-.05-1,0-1Z"/>
      <path class="cls-1" d="M22.14,836.74c.06-3.71-.15-10.55.29-9.99-.02,1.77.08,5.01-.19,4,.12,1.91.34,2.87.35,6,.16-.9.17-3.5.28-4.99.13.85.19,2.52.17,4.99-.42,3.29-.55-1.6-.9,0Z"/>
      <path class="cls-1" d="M17.36,841.74c.08.75.07,3.19.08,7-.17-5.39-.26.14,0,2-.14,11.7-.39-2.96-.44-7,.06-1.38.35-.15.36-2Z"/>
      <path class="cls-1" d="M9.06,846.72c.2-5.26.61,5.15.44,6.99-.17-2.09-.13-6.43-.44-6.99Z"/>
      <path class="cls-1" d="M24.26,861.73c.02-1.13.09-.55.09,0,.22-3.67,0-7.09.02-9.99.15-.36.17.78.18,2,.25-2.5.01-7.91-.26-8,.12-1.92.4,1.15.63-.99-.27,9.21-.02,12.01-.31,19.99-.18-.3-.17-2.71-.35-3.01Z"/>
      <path class="cls-1" d="M19.41,853.73c.25,1.05-.05,5.86-.19,3,0,.66,0,1.33,0,2-.25-1.28.12-3.99.19-5Z"/>
      <path class="cls-1" d="M22.01,860.73c.23-2.09-.07,3.57-.01,5.99-.07.86-.25.6-.27,2-.12-1.88.01-3.37-.26-5,.02-4.91.55,2.18.55-3Z"/>
      <path class="cls-1" d="M19.11,865.73c-.04-3.16.45-.37.37-4,.31,8.18-.05,11.02.14,20-.73-3.42.01-11.84-.51-15.99Z"/>
      <path class="cls-1" d="M14.51,870.71c.26.41.06,5.87.26,7-.15,2.19-.29-3.97-.26-7Z"/>
      <path class="cls-1" d="M21.45,871.73c-.08-.18-.09.39-.09,1-.19-4.55.39,1.13.44,3-.14,2.73-.29-2.68-.35-4Z"/>
      <path class="cls-1" d="M6.06,908.68c.1.19.05,1.01,0,1,.06,1.02.2,1.03.17,3-.18,1.66-.11-.08-.36,0,0-1,0-2,0-3,.1.16.16-.22.18-1Z"/>
      <path class="cls-1" d="M8.52,942.68c.09-4.68.37,5.89.81,1-.32,2.49-.61,5.29-1.09,5.99.03-3.21-.15-4.23-.08-8,.16.91.14,3.69.35,4,.08-.45.16-.87.18-2,0-.97-.11-.78-.18-1Z"/>
      <path class="cls-1" d="M22.58,940.7c-.11,4.5.5,1.08.35,6-.09-.02-.07-1.23-.09-2-.21.72-.04,5.7-.37,4.99.08-1.16.12-2.67.1-4.99-.38-.88-.42,3.47-.72,2,.05-.81.1-1.62.1-3,.4,2.93.25-3.13.64-3Z"/>
      <path class="cls-1" d="M8.33,950.67c.21.33.37,1.2.54,2-.23,3.72-.1,5.2-.11,10.99-.2.18-.28-.82-.26-3-.08-.19-.09.39-.09,1,.1-2.65-.08-8.25-.07-11Z"/>
      <path class="cls-1" d="M19.3,959.69c.09,0,.18,0,.27,0-.18,2.21.23,4.06.07,9-.11-.17-.07-1.83-.08-3-.08-.19-.09.39-.09,1-.03-1.27-.14-3.26-.17-6.99Z"/>
      <path class="cls-1" d="M9.02,965.67c.02-.81.09-1,.09-2,.15-.28.15.94.27,1,0,.97-.11.77-.18,1,0,1.98.24,1.27.17,4-.09,0-.18,0-.27,0,.02-2.5.18-3.13-.08-4Z"/>
      <path class="cls-1" d="M11.64,963.67c.03,3.28.49,10.39-.02,11.99-.16-5.12.11-6.5.02-11.99Z"/>
      <path class="cls-1" d="M10.19,968.67c.29,1.71-.36,3.92.08,4-.13,1.25-.05,5.64-.28,3,.11,4,.23,6.34.25,9-.29.41-.67-13.2-.06-15.99Z"/>
      <path class="cls-1" d="M20.72,972.69c.02.85-.04.94-.09,1-.12-.15-.04,5.57.26,4-.02,1.09-.18.68-.18,2,.05,2.99.19-.95.36,0,.08,3.62-.39,1.01-.46,3,.18,3.72-.13,2.62-.1,7-.19-3.09-.37-15.31.21-16.99Z"/>
      <path class="cls-1" d="M22.52,975.69c0,2.65-.06,5.89.17,6-.05,2.07-.14,2.11-.27.99.34,6.54.15,10.57.06,16.99-.14-5.22-.24-11.35-.15-17.99-.1-.16-.16.22-.18.99-.09-.77.12-6.78.37-6.99Z"/>
      <path class="cls-1" d="M12.66,997.66c.12-2.45.33,1.1.36-1,.06,2.26.21,8.68-.19,8,.04,1.57.28.86.17,4-.39-.63-.17-7.89-.34-10.99Z"/>
      <path class="cls-1" d="M19.32,1002.68c-.02,3.51-.55,1.21-.55,4.99-.34-1.13.12-6.33.55-4.99Z"/>
      <path class="cls-1" d="M20.48,1006.68c-.27-1.87.11-4.75.37-4,.03,1.69-.07,1.88-.18,2-.02.85.03.94.09,1,.02,3.12-.26-2.55-.27,1Z"/>
      <path class="cls-1" d="M22.26,1019.67c-.12-3.98.46-2.79.91-3.99.15,7.13.03,17.71.14,21.99-.51-3.58-.39-19.27-1.05-18Z"/>
      <path class="cls-1" d="M21.71,1025.67c.22-2.01-.1,4.13-.19,5-.32-.11.2-3.3-.08-3,.02-1.44.27-.35.27-2Z"/>
      <path class="cls-1" d="M22.03,1045.66c.74-1.51.06-10.28.31-19.99.36,2.17-.11,7.88.25,9,.32-.28-.22-3.73.1-4,.56,11.51-.23,22.82.12,32.99.01,2.18-.08,3.18-.28,3,.32,6.42.09,15.21.14,24-.24-8.53-.57-29.63-.02-39.99-.08-3.11-.32-4.32-.62-5Z"/>
      <path class="cls-1" d="M21.03,1053.66c.04-1.48.11.4.27,0,.07-2.68-.18-1.93-.27-3,.02-1.09.18-.67.18-2-.21.66-.24-12.21.11-11,.07-4.31-.36-3.24-.26-7.99.33,1.04.08,3.82.54,2,.03,5.47-.17,8.24-.29,11.99,0,2.35.25-.36.18-2,.15-.17.17,6.55-.1,5,.45,2.22.07,7.54.25,12.99-.37,1.38-.28-2.17-.54-2,.12-1.33.13-3.72-.08-4Z"/>
      <path class="cls-1" d="M18.07,1091.64c-.07-.93-.16-1.51-.27-2,.52.89.08-6.42.56-7.99-.02-.81-.09-1-.09-2.01-.31,2.3-.23-5.1-.63-2,.22-4.11.47-2,.91-3.99-.04,3.77-.3,13.03.06,14.99.44.6.41-12.49.02-12,.14-4.23.31-1.83.63-.99-.2,1.16-.2,13.7.15,15-.36,1.93-.79.65-.99-1.01.08,9.03-.03,21.16-.06,31.99,0,2.26.29,7.04-.19,7-.36-13.15.38-25.41-.39-35.99,0-3.82.07-.36.27-1Z"/>
      <path class="cls-1" d="M23.4,1084.64c-.07,3.06.09,3.65.08,6.01-.58,1.94.08,4.13-.02,8.99-.46-3.06-.68-12.71-.06-15Z"/>
      <path class="cls-1" d="M22.56,1104.64c-.29,3.02.2-6.09-.17-4,.11-4.34.03-5.57.11-8.99.54,2.88,0,7.85.07,13Z"/>
      <path class="cls-1" d="M22.93,1097.64c-.07,3.06.09,3.64.08,5.99-.09,1.07-.33.31-.28,3,.05,2.25.14-1.22.27,1-.03,1.3-.16,1.56-.19,2.99.26-2.32.07,2.32.17,6-.2-.15-.19-2.52-.17-5-.16.88-.27,3.17-.45,1,.11-1.45.45-1.51.1-3,.45-2.33.01-11.78.47-11.99Z"/>
      <path class="cls-1" d="M22.07,1122.63c0,1.42-.02,2.83.08,2.99-.02,1.09-.18.69-.18,2,.02,1.09.18.68.18,2,.16-3.85.44,0,.46-5,.13.09.26.16.27-.99.38.24-.11,3.71.17,4.99-.27.13-.98,1.19-1.01,11-.48-1.71-.31-7.82-.61-13,.19-5.2.14-.7.64-3.99Z"/>
      <path class="cls-1" d="M9.52,1136.6c.09,0,.18,0,.27,0,0,1,0,2,0,3-.15.28-.15-.95-.27-1,0,.67,0,1.33,0,2-.27-.66.09-2.15,0-4Z"/>
      <path class="cls-1" d="M22.49,1143.62c.34,1.47-.29,7.72.26,5.99-.18,1.88-.03,3.67-.01,6.01-.46-.16-.33-8.88-.25-12Z"/>
      <path class="cls-1" d="M21.48,1149.61c.03-2.57.15,1.38.36,0,.06,3.35-.16,3.66-.37,4-.27-1.76.25-3.09,0-4Z"/>
      <path class="cls-1" d="M22.2,1200.6c-.2,1.51.06,2.45-.1,5,.03,1.35.22.83.36,1-.04,3.51-.23,6.61-.11,10.99-.09-.02-.07-1.22-.09-1.99-.29-1.24-.07,3.23-.36,1.99.03-8.27.27-19.83-.32-22.99,0-2.46,0-4.82.1-6,.28,1.12.2.09.54,0,.06-2.6-.03-3.59-.26-3-.01-.85.04-.94.09-1,0-.66,0-1.32,0-1.99.65,2.62.18,13.47.51,17.98-.03,1.31-.16,1.58-.19,3.01-.11-.44-.18-1.28-.18-3.01Z"/>
      <path class="cls-1" d="M18.8,1189.6c-.78,3.91-.02,8.51-.65,10.99.01,2.83.16,4.17.17,7.01.08-.28.25-4.43.1-4,.14-2.05.36,2.6.17,4.99.31-.01,0-2.59.37-2.99.02-2.18-.07-3.18-.26-3,.33-2.88.67,2.5.8,5.01.06,2.72-.18,2-.19,3.99.27,1.8.31,21.24-.13,22.99.04,3.44.44,4.97-.01,6,.02,2.06.24,2,.36,3-.07,3.29-.16,6.39-.2,10,.51,6.93-.54,18.34.13,26.99-.28,2.32-.19,5.66-.02,8.99-.3,4.05-.37-5.75-.54-3-.25-.01.22-2.73-.18-2,.58-8.1-.04-22.43.5-26.99-.52-5.75-.18-12.33-.14-19.99.02-5.93-.59-12.03.12-13.99-.32-1.62-.21-2.77-.35-7.01-.19-.46-.17,1.44-.19,3-.1-2.48-.36-3.32-.35-7-.35,2.73.18,10.49.24,14.99-.08-2.69-.48-2.93-.36,2-.13-.09-.26-.17-.27,1-.23-1.76-.17-6.59-.25-10,.16.24.2,1.72.17,3.99.39-2.41-.37-5.58.01-8-.08-2.73-.21,3.05-.36,0,.51-7.33.43-11.96.31-23.99.39.73.47-2.15.55-4.99.29-.86.28,1.57.45,2Z"/>
      <path class="cls-1" d="M16,1189.6c.61,2.34.19,9.94.51,14.99-.69,3.03.24,22.13-.41,27.99.02-18.04.09-30.63-.1-42.98Z"/>
      <path class="cls-1" d="M20.01,1217.59c.12-6.59-.3-18.67.22-22.99-.14,1.58-.2,7.93.17,6.99-.18,3.19.18,6.1-.19,7,.04,3.77.27,5.54.62,6.01-.15,3.52.04,4.46-.1,8-.65-1.77-.08,9.65-.47,12.99-.07-.53-.14-1.04-.27-1-.1-6.58.08-8.83-.07-12.99-.08-1.85.52-.61.18-2,.16-3.79.14,2.17.27,2,.25-2.34-.11-6.36-.35-4Z"/>
      <path class="cls-1" d="M19.42,1195.6c.06,0,.12,0,.18,0,.05.81.09,1.62.08,3-.12,0-.24,0-.36,0,0,.66,0,1.33,0,1.99-.3-1.5.19-2.44.1-4.99Z"/>
      <path class="cls-1" d="M5.68,1216.56c.46-1.76.11,5.3.44,5.01-.09,1.57-.5-1.73-.44-5.01Z"/>
      <path class="cls-1" d="M22.26,1218.59c.37,4.34-.04,9.47.15,14.99-.37-3.67-.15-8.82-.15-14.99Z"/>
      <path class="cls-1" d="M4.44,1256.55c.06.41.15,4.75-.01,7-.28-1.13-.24.28-.45-1,.04-3.24.38-3.17.46-5.99Z"/>
      <path class="cls-1" d="M22.39,1294.57c.02-2.48-.14-3.09-.17-5-.18,4.1-.46-.25-.54-3,.13,2.77.37-1.74.45,1,.3-1.97.27-6.81.2-9,.45-.96.28,14.21.05,19.99-.13-.09-.26-.17-.27,1-.33-1.99-.12-4.73-.17-6,.17-2.51.33.8.18,3,.09-.65.1-2.3.27-2Z"/>
      <path class="cls-1" d="M19.13,1305.55c-.08-1.47-.13-3.17-.36-3,.24-.64.26-3.86.55-3.99.07,1.57-.02,8.11-.29,9,.13,1.16.22,2.89.44,2.99-.12,6.89-.35,22.07-.14,26.99-.19,2.74-.16,4.17-.37,5,.21-1.97-.24-7.3.19-8-.19-8.24-.26-22.31-.04-28.99Z"/>
      <path class="cls-1" d="M22.38,1300.56c.47,1.34.16,6.94.07,11-.11.16-.16-.22-.18-1-.14.85-.2,2.51-.19,5,.34,1.47.02-4.47.36-3-.06,3.35-.16,6.35-.46,6.99-.22-2.65.21-8.01-.25-9,.16-.28.68-4.79.63-1,.23-1.58.05-6.99.02-9Z"/>
      <path class="cls-1" d="M16.96,1359.53c-.28-1.14-.24.29-.45-1,0,1.34,0,2.67,0,4,.01,1.18.16.85.27,1-.53,2.1-.27,10.24-.48,14-.18-8.55-.17-18.69-.12-30.99.04-10.99.01-24.1.24-34.98.27,1.36.05,11.75.15,18.99.07,5.36.13,4.02.07,9-.01.99.22,7.03.27,1,.19,5.78-.25,14.67.06,18.99ZM16.79,1353.53c-.13-1.57-.4-1.12-.36,2,.16,1.85.28-.26.36-2Z"/>
      <path class="cls-1" d="M13.93,1340.53c0-1.67,0-3.34,0-5,.23,2.8.35,5.99.25,10-.34-.89.08-5.58-.26-5Z"/>
      <path class="cls-1" d="M23.21,1340.55c-.22-.15-.02-3.39,0-4,.18.63.05,4.67.26,4.99-.16,4.7-.19-4.8-.27-1Z"/>
      <path class="cls-1" d="M17.53,1341.53c.34-2.93.66,3.09.43,10-.07-.53-.14-1.04-.27-1-.17,1.18-.08,5.22-.19,7,.11,2.59.18,3.14.45,2,.08,4.03-.15,4.43-.28,6,0,3.54.3-2.12.27,1,.03,3.04-.3,2.08-.46,3,.04-6.74-.46-13.34.04-19.99-.04-1.48-.12.39-.27,0-.05-2.08.4-3.41.19-4,.03-2.58.15,1.38.36,0,0-.66,0-1.33,0-2-.09-1.37-.15.43-.27-2Z"/>
      <path class="cls-1" d="M18.85,1360.53c.1-.29.32-1.33,0-3,.32-3.59.03-8.17.2-13,.39,10.63.05,21.64.12,32.99-.57.33.14-9.16-.34-11,.17.39.29-4.28.01-5.99Z"/>
      <path class="cls-1" d="M21.83,1358.54c.02-1.13.09-.55.09,0,.16.13.19-1.22.36-.99-.04,2.6-.27,3.01-.28,5.99-.31-1.12.03-3.87-.17-5Z"/>
      <path class="cls-1" d="M15.49,1374.52c-.1-.25-.06-1.99-.18-2,.12-3.53.43,4.63.36-2,.4-.17.23,3.51.08,4.99-.13.54-.21-3.89-.27-1Z"/>
      <path class="cls-1" d="M17.3,1371.52c.3-.23.03,3.71.26,6,.15-1.64.12-5.43.28-7,.28,3.29-.13,9.11.07,11.99-.38-2.15-.52-.78-.8-4,.14-2.59.34-3.71.19-7Z"/>
      <path class="cls-1" d="M5.44,1399.5c-.25-.09-.19,1.66-.36,0,.08-1.47.14-3.17.37-3,.11,2.36-.02,1.87.08,5-.07,1.82-.1-.6-.09-2Z"/>
      <path class="cls-1" d="M4.5,1423.48c.26,4.22-.23,11.75.06,18-.57.42-.09-14.29-.06-18Z"/>
      <path class="cls-1" d="M19.27,1424.51c.02.85-.04.93-.09,1-.03,3.79.22,6.85-.02,11-.37.94-.3-5.42-.17-7,0-2.55-.3-1.99-.54-2,.12-6.27.51,1.24.82-3Z"/>
      <path class="cls-1" d="M5.01,1440.48c.21-5.64.77,3.93.17,4-.05-2.22.17-1.42.19-3-.08-2.8-.24,1.45-.36-1Z"/>
      <path class="cls-1" d="M5.27,1446.48c.42,1.51.22,7.48.52,11.99-.42-.15.04,4.05-.19,5-.32-3.53,0-8.26-.34-11.99.43-.19-.15-1.74,0-5Z"/>
      <path class="cls-1" d="M5.78,1563.43c.18,6.03.26,10.94.15,18.99-.17-4.4-.17-11.42-.15-18.99Z"/>
      <path class="cls-1" d="M6.83,1580.42c-.04-.89-.08-1.78-.18-1.99.06-1.34.2-1.87.36-2,.12,4.05-.2,3.16-.19,5.99-.11-.24-.09-1.99,0-2Z"/>
      <path class="cls-1" d="M4.35,11.03c.25-.16.22,2.83.35,4,.08-4.57,1.02.12,1.08,0,.53-.92,1.38-4.3,1.25,6-.46-4.83-.94,1.1-1.63,1.99-.18.24-.21-1.98-.27-2-.77-.21-1.66,7.06-1.99,6.99-.35-.08-.23-2.03-.63,1-.02-4.66.32-5.21.2-10.99.25-.43.08,3.72.26,4,.25-.85.47-5.44.73-3,.19-.28-.13-2.67.1-4,.37,2.52.24-3.19.55-4Z"/>
      <path class="cls-1" d="M3.24,524.83c.22-.4-.06,4.56.26,3-.23,2.99-.23,5.08-.2,10,.11-.16.08-1.83.1-3,.17,4.67-.28,9.91-.11,12.99-.22-4.63-.82-9.75-.78-13.99.27.96.37,3.82.53,6,.1-.24.06-1.98.18-2,0-2.98-.23-3.4-.26-6,.27-4.44.09-4.46.28-7Z"/>
      <path class="cls-1" d="M4.5,574.81c.35,2.85.07,6.33.34,11-.41,1.62-.11,5.8-.29,8.99-.53-3.93-.12-11.97-.51-17,.09-3.36.17-.49.45-.99,0-.67,0-1.34,0-2Z"/>
      <path class="cls-1" d="M6.44,897.69c-.02-10.27-.15-21.47.05-28.99.12.66.16,2.14.17,4,.17-1.62-.06-3.16.19-5,.24,6.16.01,12.04.24,18.99-.18,1.67-.11-.08-.36,0,.01,3.09.05,10.55-.29,11Z"/>
      <path class="cls-1" d="M8.73,975.66c-.24,3.64-.04,2.13-.01,7,.09-.02.07-1.22.09-2,.36.31-.07,3.09.17,4-.14,2.14-.22-.72-.45,1,0,.67,0,1.33,0,2,.01,1.17.16.84.27,1-.03,5.71-.36.12-.63,0,.3-2.48-.15-6.74-.07-10,.14-2.77.35-.65.64-3Z"/>
      <path class="cls-1" d="M21.14,991.68c.2,1.07.02,6.28.07,9-.25-2.12-.06-2.9-.17-5.99-.24,1.28-.05,4.75-.19,4.99-.37-.34,0-2.62-.17-4.99-.11.43-.19,1.27-.19,2.99-.13-1.23-.16-3.44-.17-6,.38-4.72.62,5.58.81,0Z"/>
      <path class="cls-1" d="M6.37,986.66c.15-.28.15.94.27,1-.28,7.32.4,16.05-.22,19.99,0-6.37-.47-16.25-.05-20.99Z"/>
      <path class="cls-1" d="M8.25,992.66c.1.84.24,1.32.45,1,.32,7.6.06,11.85.05,20.99-.08-1.13-.22-6.6-.08-7-.06-1.34-.19-1.86-.36-2,.39-3.27-.41-6.46-.07-13Z"/>
      <path class="cls-1" d="M21.74,1057.65c.13-.02.28,4.22.27,0,.16,2.16.15,4.59.08,7-.11-.17-.07-1.82-.09-3.01-.67,3.71-.11,10.98.06,18-.24.69-.17-2.07-.26-3-.16,1.45-.12,9.06.26,8-.02,2.51-.18,3.14.08,4-.48,3.29-.77,9.18-.48,15.99-.25-1.51-.21-6.21-.34-9,.15.04.24-.74.27-2-.31-4.04-.25-14.66-.15-17.99-.26.61-.52-4.13-.08-6-.13-1.18-.13-3.77-.26-4.99.04-1.57.28-.86.19-4.01.24-.02.56.94.46-3Z"/>
      <path class="cls-1" d="M6.64,1087.62c.19,6.91.03,11.6.14,19-.2-2.32-.35.34-.63,0-.03-1.91-.19-2.52-.17-5.01.12-1.39.43-.6.54-2,0-6.29-.27-7.76.11-11.99Z"/>
      <path class="cls-1" d="M17.28,1382.52c.21,2.85.13,7.29.61,8.99.15,11.75-.64,18.15.04,25.99-.31-3.21-.23,4.23-.46,5,.02,1.09.18.68.18,2-.1,3-.11,6.95-.55,5.99.02-3.82,0-7.28-.16-9,.14-1.83.38-2.49.46-5,.08-4.87-.41-9.28.02-11.99-.04-1.48-.12.39-.27,0,.34-7.15-.15-13.65.13-21.99Z"/>
    </g>
  </g>
</svg>